<?xml version="1.0" standalone="no"?>
<!DOCTYPE svg PUBLIC "-//W3C//DTD SVG 20010904//EN"
 "http://www.w3.org/TR/2001/REC-SVG-20010904/DTD/svg10.dtd">
<svg version="1.0" xmlns="http://www.w3.org/2000/svg"
 width="3508.000000pt" height="4961.000000pt" viewBox="0 0 3508.000000 4961.000000"
 preserveAspectRatio="xMidYMid meet">
<metadata>
Created by potrace 1.16, written by Peter Selinger 2001-2019
</metadata>
<g transform="translate(0.000000,4961.000000) scale(0.100000,-0.100000)"
fill="#DDDDDD" stroke="none">
<path d="M13562 40475 c-11 -25 -13 -25 -137 -25 -126 0 -165 -8 -165 -35 0
-23 18 -27 77 -15 75 16 203 -3 211 -32 3 -14 14 -18 47 -18 42 0 73 19 61 39
-4 5 -22 15 -41 21 -41 14 -42 16 -14 46 12 12 18 27 14 33 -11 20 -42 12 -53
-14z"/>
<path d="M19839 40348 c-16 -6 -18 -11 -9 -28 12 -22 12 -22 183 -24 123 -1
153 8 121 35 -19 16 -261 29 -295 17z"/>
<path d="M20473 40340 c-27 -11 -29 -26 -5 -38 24 -13 251 -7 287 7 29 12 29
13 11 27 -23 16 -255 19 -293 4z"/>
<path d="M12470 40035 c-10 -12 -9 -20 4 -40 36 -55 10 -70 -59 -35 -77 39
-111 15 -42 -29 18 -11 51 -34 75 -50 24 -18 55 -31 72 -31 16 0 50 -5 75 -12
45 -12 46 -12 75 20 27 30 35 33 77 30 40 -2 49 -7 51 -24 2 -15 -3 -23 -17
-27 -25 -6 -38 -34 -23 -49 14 -14 52 0 52 18 0 8 16 22 35 30 73 30 25 93
-77 101 -67 4 -78 0 -141 -50 -33 -27 -38 -28 -76 -16 -22 6 -43 19 -46 27 -6
17 11 42 30 42 6 0 20 9 31 21 19 21 19 21 -21 55 -45 38 -57 41 -75 19z"/>
<path d="M18940 39628 c-11 -10 -20 -26 -20 -34 0 -8 -7 -25 -15 -38 -15 -23
-16 -68 -2 -82 8 -9 29 45 21 57 -3 5 7 14 23 20 25 9 30 7 50 -18 28 -34 28
-38 3 -74 -22 -30 -45 -30 -53 2 -6 22 -25 25 -33 6 -7 -19 13 -67 28 -67 13
0 38 -64 38 -95 0 -8 5 -15 10 -15 6 0 10 -7 10 -15 0 -19 42 -43 48 -26 4 11
49 69 94 121 18 20 22 37 21 87 -1 57 -4 65 -43 112 -45 54 -53 58 -117 70
-35 7 -46 5 -63 -11z"/>
<path d="M12512 39214 c94 -92 99 -96 150 -101 41 -4 57 -2 67 10 19 24 7 34
-49 42 -30 4 -62 16 -78 30 -15 12 -47 35 -71 51 -24 16 -55 37 -70 46 -58 39
-41 13 51 -78z"/>
<path d="M19630 39083 c-12 -9 -20 -25 -20 -42 0 -17 -7 -31 -15 -35 -17 -6
-16 -40 0 -66 5 -8 11 -32 13 -54 2 -21 10 -45 18 -53 8 -8 14 -18 14 -22 0
-18 37 -6 61 21 29 31 34 71 13 89 -8 6 -14 19 -15 28 0 12 -2 11 -9 -4 -5
-11 -9 -15 -9 -9 -1 7 -9 14 -19 16 -22 6 -27 48 -5 48 8 0 26 -9 39 -19 29
-23 57 -18 74 14 11 21 6 38 -27 84 -1 2 -23 7 -48 11 -32 5 -51 3 -65 -7z"/>
<path d="M11940 39026 c0 -7 34 -44 76 -81 54 -49 86 -70 112 -74 26 -5 40
-14 52 -36 19 -35 56 -40 74 -12 9 15 7 21 -8 33 -11 8 -28 14 -38 14 -18 0
-134 74 -168 106 -17 16 -88 64 -95 64 -3 0 -5 -6 -5 -14z"/>
<path d="M22205 38939 c-33 -22 -61 -43 -63 -48 -5 -15 37 -20 72 -9 48 15
105 2 115 -26 14 -36 1 -75 -30 -91 -16 -9 -33 -24 -38 -34 -6 -10 -24 -21
-41 -24 -16 -4 -30 -12 -30 -20 0 -17 20 -37 38 -37 13 0 69 42 97 71 6 6 22
24 38 39 31 32 35 75 12 120 -12 23 -23 29 -52 32 -36 3 -38 5 -35 36 3 42 -9
41 -83 -9z"/>
<path d="M19891 38890 c-20 -11 -15 -22 17 -37 25 -12 29 -20 27 -46 -1 -18 5
-43 13 -56 11 -19 12 -28 2 -46 -14 -25 -6 -95 10 -95 6 0 10 -7 10 -15 0 -9
13 -28 29 -44 23 -22 36 -27 57 -23 25 5 26 6 9 13 -11 4 -14 8 -7 8 7 1 21 8
30 17 13 14 14 21 4 48 -8 20 -9 32 -2 34 5 2 3 10 -5 19 -17 16 -20 69 -5 78
28 17 -20 56 -97 80 -13 3 -23 12 -23 19 0 19 -55 55 -69 46z"/>
<path d="M22173 38392 c-32 -5 -31 -45 1 -60 16 -7 27 -23 33 -48 6 -29 15
-40 33 -44 16 -4 26 -14 28 -28 4 -27 45 -30 64 -4 7 9 25 23 41 29 16 8 27
20 27 32 0 36 -54 37 -65 1 -7 -21 -39 -35 -55 -25 -5 3 -10 21 -10 38 0 23
-8 40 -27 58 -16 14 -32 32 -38 40 -6 8 -20 13 -32 11z"/>
<path d="M11386 38374 c-13 -13 -16 -42 -16 -165 0 -139 1 -149 19 -149 37 0
46 27 43 132 -1 54 2 117 8 140 9 32 9 43 -2 49 -20 13 -35 11 -52 -7z"/>
<path d="M22536 38374 c-9 -8 -16 -25 -16 -37 0 -12 -9 -35 -20 -52 -33 -50
-21 -95 25 -95 43 0 57 22 63 98 6 91 -14 124 -52 86z"/>
<path d="M20540 38371 c-17 -5 -27 -16 -30 -34 -3 -15 -13 -36 -22 -47 -22
-25 -22 -42 -2 -111 19 -62 49 -109 70 -109 8 0 23 15 35 33 23 37 22 122 -2
141 -17 14 -13 55 9 79 12 14 14 22 6 35 -13 20 -29 23 -64 13z"/>
<path d="M18235 37798 c-71 -4 -318 -7 -547 -5 -499 2 -453 15 -522 -143 -41
-96 -26 -101 182 -59 49 10 79 10 127 2 64 -11 125 -44 125 -67 0 -24 -56 -65
-110 -79 l-55 -15 42 -18 c30 -14 43 -25 43 -40 0 -11 8 -38 19 -60 15 -31 19
-68 21 -189 6 -265 0 -836 -9 -980 -14 -198 -13 -229 9 -409 35 -295 19 -375
-89 -424 -62 -28 -144 -41 -155 -23 -19 31 -74 4 -121 -60 -5 -8 -29 -40 -52
-71 -24 -31 -43 -59 -43 -62 0 -3 -13 -24 -29 -48 -55 -82 -51 -80 -249 -90
-97 -4 -249 -12 -337 -17 -96 -5 -214 -5 -295 0 -74 5 -304 8 -510 7 -206 -1
-474 0 -595 3 -188 4 -232 3 -300 -13 -44 -9 -103 -18 -131 -18 -48 0 -83 -17
-67 -33 3 -4 43 -7 87 -7 45 0 113 -7 151 -15 61 -13 81 -13 150 -1 103 18
731 16 785 -3 50 -17 78 -16 330 13 202 23 237 25 339 15 63 -6 144 -9 180 -6
39 3 105 -1 161 -10 117 -18 198 -12 263 22 27 14 54 25 61 25 19 0 104 69
111 89 3 10 15 23 28 28 12 6 56 27 98 47 41 20 91 36 110 36 19 0 50 5 69 10
144 43 236 55 415 53 99 0 239 -8 310 -16 146 -17 741 -16 940 2 60 6 194 13
296 17 139 5 194 11 220 23 34 16 63 60 73 112 3 15 22 49 41 77 19 29 35 57
35 63 0 27 78 159 121 204 46 49 99 135 99 161 0 8 -12 21 -26 31 -23 15 -35
15 -117 4 -150 -20 -175 -32 -198 -93 -6 -16 -15 -28 -20 -28 -4 0 -20 -21
-35 -47 -15 -27 -41 -67 -56 -91 -16 -23 -35 -59 -42 -80 -11 -30 -21 -40 -57
-54 -177 -67 -318 -91 -549 -94 -448 -7 -618 -6 -655 2 -25 6 -62 6 -100 0
-124 -20 -181 -9 -204 40 -14 32 -16 2011 -2 2045 6 13 18 33 28 44 29 33 143
84 213 94 106 16 223 43 250 56 37 19 102 84 98 97 -3 7 -20 19 -39 29 -42 21
-142 27 -314 17z"/>
<path d="M14451 37789 c-17 -4 -46 -18 -65 -33 -29 -22 -36 -34 -41 -80 -13
-105 8 -118 149 -92 149 26 222 18 266 -29 20 -21 22 -28 12 -50 -14 -31 -48
-45 -107 -45 -50 0 -95 -14 -95 -30 0 -6 20 -32 45 -58 25 -26 45 -52 45 -60
0 -7 11 -17 24 -24 35 -16 40 -31 42 -148 2 -107 5 -134 23 -205 13 -51 14
-237 1 -290 -6 -23 -9 -185 -8 -375 4 -551 -6 -852 -30 -896 -18 -34 -84 -73
-142 -84 -107 -22 -126 -30 -164 -69 -37 -37 -38 -42 -32 -85 9 -61 28 -78 74
-70 21 4 54 15 75 26 21 11 84 26 140 33 56 8 129 25 162 37 54 20 79 22 250
22 118 0 224 -5 280 -14 117 -18 774 -20 995 -2 85 7 211 15 280 18 288 11
287 11 335 164 9 30 21 60 26 66 5 6 22 51 38 99 31 91 44 111 124 185 41 38
76 98 77 133 0 4 -21 7 -47 7 -27 0 -71 6 -99 14 -78 21 -94 11 -199 -124 -19
-25 -38 -53 -41 -62 -4 -10 -12 -18 -19 -18 -7 0 -57 -44 -112 -98 -139 -138
-219 -172 -404 -172 -36 0 -90 -4 -120 -10 -92 -16 -581 -20 -686 -4 -68 10
-106 11 -151 3 -130 -23 -208 34 -193 141 1 8 2 182 1 387 -1 239 3 385 10
410 13 48 71 90 143 104 82 15 881 11 959 -6 64 -13 129 -45 182 -88 40 -33
31 -68 -28 -102 -23 -14 -48 -37 -54 -51 -16 -34 -5 -98 22 -123 38 -36 161
-28 188 13 14 20 8 131 -8 180 -9 26 -13 59 -10 74 3 15 11 83 16 152 17 209
27 248 83 311 75 84 108 165 76 184 -19 12 -122 33 -142 29 -28 -5 -110 -36
-123 -46 -6 -5 -14 -26 -17 -48 -3 -27 -17 -53 -41 -80 -19 -21 -41 -51 -49
-67 -13 -25 -23 -30 -91 -40 -43 -7 -87 -19 -99 -28 -12 -8 -29 -15 -39 -15
-10 0 -18 -4 -18 -9 0 -31 -197 -47 -258 -22 -19 8 -50 11 -79 7 -162 -19
-198 -19 -248 4 -28 12 -60 31 -72 42 -30 28 -61 17 -97 -33 -16 -23 -44 -48
-63 -55 -30 -13 -37 -12 -80 8 -43 21 -48 28 -60 73 -7 28 -11 56 -8 63 3 7 5
176 6 374 l1 361 36 33 c20 18 64 44 97 56 60 23 62 23 560 22 539 -2 612 -7
726 -51 82 -32 119 -62 119 -96 0 -24 -41 -69 -92 -100 -39 -24 -35 -48 17
-103 25 -26 45 -51 45 -55 0 -4 14 -12 31 -18 27 -9 38 -7 82 16 27 15 61 44
74 64 24 36 24 38 7 71 -28 53 -42 128 -32 173 9 40 44 105 56 105 4 0 24 15
44 33 33 28 38 40 44 88 6 53 5 58 -17 70 -20 12 -238 14 -1251 14 -675 0
-1240 -3 -1257 -6z"/>
<path d="M18335 37473 c-54 -8 -75 -38 -75 -109 0 -99 43 -112 96 -28 29 46
35 49 119 58 44 6 115 41 115 57 0 21 -162 35 -255 22z"/>
<path d="M15471 37395 c-78 -26 -104 -71 -61 -110 19 -17 23 -17 123 9 l103
26 58 -20 c76 -26 132 -25 192 2 46 20 61 22 244 19 256 -4 261 -4 273 8 6 6
24 11 40 11 24 0 27 3 18 14 -18 21 -103 30 -147 16 -29 -10 -49 -10 -90 -1
-54 12 -233 22 -484 26 -74 1 -155 4 -180 8 -28 4 -61 1 -89 -8z"/>
<path d="M22218 37028 c-6 -18 12 -88 30 -115 8 -13 24 -23 37 -23 23 0 42
-35 24 -46 -5 -3 -9 -17 -9 -32 0 -32 37 -62 50 -42 4 7 13 9 19 5 8 -4 11 4
11 27 -1 18 4 52 10 75 17 60 -2 88 -64 97 -27 4 -46 12 -46 20 0 15 -32 46
-47 46 -6 0 -13 -6 -15 -12z"/>
<path d="M15486 36220 c-16 -10 -34 -16 -42 -13 -7 2 -20 -7 -30 -22 -16 -24
-16 -30 -2 -73 11 -38 18 -46 35 -44 13 2 22 -4 25 -15 7 -28 -1 -41 -23 -36
-17 5 -20 2 -17 -16 1 -12 6 -20 9 -19 4 2 15 -5 26 -14 17 -16 23 -16 67 -3
60 18 74 29 74 59 0 36 37 83 76 96 24 8 45 8 77 -1 125 -31 138 -33 220 -22
45 6 85 16 89 23 4 6 9 11 11 10 13 -5 39 15 39 29 0 27 -21 41 -60 41 -20 0
-64 10 -99 21 l-63 21 -67 -26 c-36 -14 -75 -26 -86 -26 -27 0 -135 31 -135
40 0 16 -96 8 -124 -10z"/>
<path d="M26719 35502 c-36 -17 -119 -100 -119 -119 0 -6 12 -18 26 -28 14 -9
32 -32 40 -51 15 -35 32 -42 52 -22 19 19 14 45 -13 66 -14 11 -25 25 -25 31
0 6 18 34 40 62 22 28 40 57 40 65 0 8 -1 14 -2 13 -2 0 -19 -8 -39 -17z"/>
<path d="M20056 35354 c-3 -9 -6 -28 -6 -43 0 -16 -5 -43 -11 -61 -7 -18 -17
-58 -23 -89 -10 -50 -15 -58 -48 -76 -21 -11 -53 -38 -72 -60 -21 -25 -52 -47
-85 -60 -35 -13 -51 -25 -51 -37 0 -16 10 -18 69 -18 66 0 71 2 127 46 40 30
63 57 71 81 7 19 22 44 34 54 17 15 20 25 15 51 -4 23 -1 41 10 56 10 14 14
34 11 50 -3 16 2 39 11 55 16 27 16 29 -8 47 -31 24 -36 24 -44 4z"/>
<path d="M25645 35230 c-4 -6 7 -13 25 -16 21 -5 36 -16 47 -38 21 -41 54 -77
154 -166 58 -52 89 -63 89 -32 0 23 -9 34 -50 62 -54 36 -130 116 -130 137 0
28 -11 38 -56 51 -50 15 -71 15 -79 2z"/>
<path d="M26849 34991 c-26 -27 -26 -28 -7 -40 25 -16 20 -52 -10 -67 -30 -15
-59 -7 -65 17 -6 22 -52 42 -79 33 -14 -4 -18 -13 -16 -32 3 -24 7 -27 49 -30
34 -2 53 -10 69 -27 27 -29 42 -31 60 -10 20 24 57 18 79 -14 25 -35 64 -46
103 -30 50 20 32 52 -37 63 -22 4 -52 12 -67 17 -50 20 -49 83 2 94 38 8 48
25 25 42 -31 22 -77 15 -106 -16z"/>
<path d="M17546 34934 c-109 -13 -135 -22 -121 -45 6 -9 55 -10 214 -4 113 4
211 6 216 5 30 -6 302 -12 705 -15 250 -2 480 -8 511 -13 37 -7 81 -7 130 -1
41 6 126 10 189 10 63 0 135 5 160 10 25 6 59 10 75 10 39 0 125 21 125 30 0
6 -54 15 -120 19 -14 1 -464 3 -1000 4 -727 2 -1003 -1 -1084 -10z"/>
<path d="M11791 34843 c-16 -14 -22 -33 -26 -82 -3 -38 0 -69 6 -77 6 -7 12
-27 14 -45 5 -40 6 -40 34 -26 14 7 26 23 28 37 2 14 8 37 14 53 13 32 6 120
-10 125 -6 2 -11 10 -11 18 0 19 -23 18 -49 -3z"/>
<path d="M6766 34711 c-6 -9 58 -71 73 -71 4 0 32 -22 61 -50 29 -27 57 -50
60 -50 4 0 15 -16 26 -35 23 -43 54 -48 54 -7 -1 21 -18 43 -86 102 -131 115
-171 139 -188 111z"/>
<path d="M5853 34463 l-9 -38 -148 0 c-147 0 -148 0 -170 -26 -13 -14 -36 -31
-52 -36 -16 -5 -29 -14 -29 -19 0 -17 33 -15 50 3 21 21 94 31 231 32 89 1
107 4 147 26 25 14 48 33 51 41 9 24 -12 54 -38 54 -19 0 -26 -7 -33 -37z"/>
<path d="M5339 34453 c-19 -16 -56 -50 -83 -76 -27 -26 -57 -52 -68 -58 -12
-6 -18 -19 -16 -32 4 -30 40 -29 53 1 5 12 17 25 26 27 15 5 51 34 104 86 12
10 25 19 31 19 17 0 47 38 39 49 -11 19 -52 12 -86 -16z"/>
<path d="M6997 34379 c-9 -6 -17 -17 -17 -25 0 -25 -50 -36 -142 -31 -96 5
-124 -6 -90 -36 13 -12 39 -15 115 -13 86 1 101 4 115 22 9 11 29 25 45 32 15
6 27 18 27 26 0 22 -32 36 -53 25z"/>
<path d="M6344 34107 c-3 -9 -15 -19 -25 -22 -41 -13 -54 -52 -54 -162 0 -100
1 -103 22 -103 34 0 55 39 47 89 -4 23 -11 44 -15 47 -12 7 -11 40 0 62 5 9
14 29 20 45 12 31 37 35 82 12 31 -17 49 -13 49 10 0 19 -8 23 -68 31 -42 5
-53 4 -58 -9z"/>
<path d="M5059 34093 c-10 -11 -14 -48 -14 -129 0 -94 3 -116 17 -131 32 -32
43 -3 43 115 0 147 -12 186 -46 145z"/>
<path d="M9775 33900 c-38 -11 -82 -20 -97 -20 -15 0 -47 -7 -71 -15 -25 -8
-89 -19 -144 -23 -95 -8 -102 -11 -174 -56 -41 -26 -119 -73 -174 -103 -55
-31 -107 -64 -115 -74 -8 -10 -48 -34 -88 -54 -49 -23 -75 -43 -82 -59 -5 -13
-14 -27 -20 -31 -6 -3 -26 -37 -44 -74 -27 -52 -46 -75 -85 -102 -38 -26 -56
-48 -76 -92 -15 -31 -37 -65 -50 -75 -12 -10 -35 -41 -49 -68 -31 -59 -61 -94
-81 -94 -14 0 -27 -46 -27 -92 0 -13 1 -151 1 -308 1 -157 5 -310 10 -340 6
-30 13 -89 16 -130 6 -73 15 -96 97 -267 6 -13 19 -25 29 -28 14 -5 48 -38
116 -117 6 -7 25 -24 42 -38 17 -14 44 -36 60 -50 97 -85 134 -107 251 -154
52 -21 106 -45 120 -54 14 -9 47 -27 74 -39 27 -13 64 -36 82 -52 18 -16 59
-37 91 -46 105 -31 153 -64 219 -152 25 -32 40 -62 37 -72 -5 -20 28 -45 89
-67 22 -7 54 -25 70 -39 17 -15 54 -38 82 -52 28 -14 58 -31 66 -38 8 -7 87
-43 175 -80 88 -37 184 -77 212 -90 29 -13 79 -31 110 -39 32 -9 92 -25 133
-37 323 -91 599 -128 855 -116 140 7 201 21 209 50 12 44 5 66 -25 91 -29 25
-37 26 -133 26 -75 -1 -129 6 -211 24 -60 14 -124 26 -141 26 -38 0 -95 18
-109 35 -26 31 -86 56 -187 79 -16 4 -32 17 -40 33 -9 19 -24 30 -50 36 -20 5
-45 18 -55 29 -17 19 -17 20 9 43 19 16 49 26 107 34 105 16 140 31 198 87 27
25 67 55 91 66 26 11 48 30 55 46 14 32 26 42 52 42 36 0 123 51 129 76 3 12
15 26 26 29 11 3 20 11 20 16 0 5 17 28 39 52 21 23 41 52 45 64 4 12 25 38
47 56 21 19 39 37 39 42 0 4 13 22 29 40 22 25 32 51 41 107 7 40 19 77 26 81
19 11 18 38 -1 31 -8 -4 -15 -11 -15 -16 0 -15 -42 -47 -62 -48 -27 0 -87 -69
-94 -108 -5 -28 -28 -56 -103 -129 -53 -51 -99 -93 -103 -93 -3 0 -37 -25 -73
-55 -37 -30 -72 -55 -77 -55 -11 0 -55 -32 -94 -68 -14 -12 -52 -36 -85 -52
-33 -17 -69 -40 -80 -51 -27 -27 -68 -44 -154 -64 -38 -9 -80 -25 -92 -37 -28
-26 -182 -44 -243 -28 -99 27 -69 140 45 174 28 8 82 26 120 41 39 14 89 33
112 41 24 8 69 32 102 54 33 22 65 40 70 40 6 0 25 13 43 29 18 16 49 35 68
44 35 15 67 43 105 92 11 14 62 69 114 123 118 122 133 143 160 217 13 33 36
83 52 112 16 28 36 76 43 105 39 153 53 417 37 700 -10 166 -10 223 -1 258 24
89 24 117 1 125 -12 3 -21 15 -21 25 0 27 -22 65 -66 110 -21 23 -58 62 -82
86 -23 25 -49 56 -58 69 -9 14 -22 25 -28 25 -7 0 -28 16 -47 36 -18 20 -51
47 -71 60 -21 13 -38 31 -38 39 0 15 -60 65 -79 65 -7 0 -24 12 -39 27 -36 37
-337 143 -407 143 -34 0 -124 20 -205 46 -31 10 -96 18 -150 20 -52 1 -142 5
-200 8 -87 5 -117 3 -175 -14z m490 -216 c50 -8 104 -24 121 -35 17 -10 40
-19 51 -19 34 0 204 -98 248 -144 57 -59 90 -143 79 -201 -11 -61 23 -146 100
-252 17 -24 25 -52 30 -109 4 -44 16 -93 27 -116 11 -21 25 -71 31 -111 13
-82 17 -333 5 -390 -4 -21 -10 -87 -13 -145 -4 -83 -9 -111 -23 -127 -23 -26
-67 -119 -80 -167 -5 -20 -21 -52 -35 -71 -14 -19 -26 -41 -26 -49 0 -9 -13
-26 -30 -39 -16 -13 -32 -37 -36 -52 -3 -15 -29 -50 -57 -78 -29 -28 -59 -63
-69 -77 -11 -17 -45 -36 -105 -59 -48 -18 -92 -40 -98 -47 -16 -20 -51 -36
-82 -36 -15 0 -50 -8 -76 -17 -40 -15 -52 -15 -80 -4 -72 28 -83 29 -143 9
-47 -16 -65 -18 -89 -9 -16 6 -64 15 -105 21 -83 11 -159 34 -295 86 -71 27
-101 45 -142 85 -59 57 -62 71 -38 159 27 95 28 123 7 150 -17 21 -22 22 -36
11 -18 -15 -22 -86 -6 -96 6 -3 10 -15 10 -25 0 -27 -37 -34 -105 -20 -49 10
-65 19 -107 63 -27 29 -61 72 -75 97 -14 25 -31 52 -38 60 -6 8 -18 31 -25 50
-8 19 -18 38 -23 41 -5 3 -27 69 -50 145 l-42 139 1 210 c1 166 4 220 17 255
8 25 27 83 42 130 14 47 30 94 35 105 5 11 12 31 16 45 3 14 21 48 39 75 17
28 35 58 38 69 11 29 77 109 118 141 21 17 68 65 106 108 65 76 82 87 183 127
25 10 83 35 130 55 152 66 188 72 430 74 119 1 204 -4 265 -15z"/>
<path d="M9855 33516 c-95 -13 -204 -50 -220 -75 -3 -6 -28 -17 -55 -25 -35
-11 -61 -28 -92 -60 -23 -25 -48 -46 -56 -46 -7 0 -31 -12 -52 -27 -39 -28
-60 -60 -60 -90 0 -8 -12 -48 -26 -87 -14 -39 -28 -93 -29 -121 -2 -27 -7 -64
-10 -81 -5 -22 -2 -36 11 -48 9 -10 20 -14 23 -9 3 5 19 17 35 27 25 16 28 22
22 57 -6 39 18 108 44 124 5 3 10 17 10 31 0 14 7 27 18 31 30 11 62 46 62 68
0 28 23 48 80 73 25 11 77 41 115 66 91 61 161 82 220 67 62 -16 116 -14 161
5 27 12 70 17 139 18 80 1 100 4 100 15 0 20 -54 33 -89 21 -44 -15 -81 -12
-107 9 -19 15 -21 21 -11 34 10 12 10 16 -2 20 -35 14 -139 15 -231 3z"/>
<path d="M9202 32691 c-7 -21 -12 -48 -12 -59 0 -12 -10 -40 -21 -62 -20 -37
-21 -51 -15 -140 9 -134 24 -184 56 -187 14 -1 19 0 12 3 -10 5 -7 10 9 18 14
7 31 31 42 61 26 68 19 244 -12 309 -12 23 -21 54 -21 69 0 41 -25 33 -38 -12z"/>
<path d="M24215 33884 c-38 -6 -115 -19 -170 -28 -138 -22 -332 -81 -440 -133
-50 -23 -94 -43 -99 -43 -16 0 -96 -62 -96 -75 0 -7 -21 -26 -47 -42 -25 -15
-65 -47 -87 -71 -23 -24 -53 -49 -66 -55 -14 -7 -29 -21 -35 -32 -5 -11 -31
-42 -57 -70 -26 -27 -67 -86 -90 -130 -23 -44 -64 -102 -91 -130 -46 -47 -48
-52 -43 -89 5 -27 0 -61 -18 -115 -75 -232 -93 -461 -49 -636 42 -173 52 -204
77 -249 14 -27 26 -55 26 -61 0 -7 15 -44 34 -81 18 -38 40 -85 48 -104 22
-53 67 -101 114 -121 23 -11 47 -26 54 -34 7 -9 42 -32 77 -51 34 -20 63 -39
63 -44 0 -10 99 -65 146 -80 19 -6 34 -15 34 -19 0 -5 52 -34 115 -65 131 -65
407 -161 493 -171 31 -4 89 -14 127 -23 44 -9 120 -15 205 -15 128 -1 143 2
290 42 85 23 178 48 206 55 93 24 188 68 231 105 62 54 91 73 168 115 64 35
225 177 225 200 0 4 27 53 60 108 33 54 60 101 60 103 0 3 20 48 45 100 60
128 101 269 115 394 20 181 -7 576 -46 686 -35 95 -42 123 -48 173 -5 47 -12
62 -61 117 -30 35 -55 70 -55 80 0 21 -125 141 -165 156 -16 7 -46 25 -66 41
-20 15 -41 28 -45 28 -5 1 -40 21 -79 45 -38 25 -101 60 -140 79 -161 77 -188
85 -360 107 -49 6 -113 17 -141 25 -68 19 -328 25 -419 8z m490 -207 c28 -8
68 -24 90 -36 22 -11 45 -21 51 -21 24 0 222 -98 242 -120 33 -35 72 -123 72
-161 0 -19 -7 -47 -16 -64 -14 -28 -14 -31 5 -46 12 -10 21 -27 21 -39 0 -20
30 -57 62 -76 28 -16 90 -125 95 -168 3 -22 13 -63 24 -91 26 -70 53 -276 54
-425 2 -147 -19 -269 -64 -384 -17 -42 -31 -85 -31 -95 0 -11 -13 -49 -30 -86
-16 -37 -30 -74 -30 -82 0 -8 -14 -28 -31 -44 -33 -31 -63 -72 -94 -131 -11
-21 -23 -38 -27 -38 -5 0 -33 -25 -63 -55 -31 -30 -64 -55 -73 -55 -9 0 -30
-9 -47 -20 -16 -11 -48 -25 -69 -31 -21 -6 -51 -19 -65 -30 -50 -37 -161 -52
-376 -53 -223 -1 -323 15 -382 60 -17 13 -38 24 -47 24 -27 0 -160 74 -185
103 -27 32 -175 147 -189 147 -17 0 -100 72 -105 91 -3 11 -15 23 -26 26 -24
6 -45 36 -55 78 -7 28 -24 69 -66 160 -22 47 -64 195 -79 279 -22 119 -8 433
24 538 38 124 90 278 117 342 23 58 44 85 130 173 57 57 117 112 133 120 17 9
36 25 43 35 13 18 112 68 134 68 6 0 23 9 39 21 27 19 62 34 171 75 64 24 187
33 393 29 133 -2 217 -8 250 -18z"/>
<path d="M24239 33495 c-3 -2 -36 -9 -73 -14 -44 -6 -82 -19 -107 -35 -21 -14
-57 -30 -79 -35 -23 -5 -43 -11 -45 -13 -1 -1 -14 -20 -29 -42 -14 -21 -49
-52 -78 -70 -41 -25 -62 -47 -100 -109 -26 -43 -48 -85 -48 -92 0 -8 -9 -30
-21 -50 -12 -19 -18 -42 -15 -50 15 -41 92 9 81 53 -4 18 1 26 26 40 37 20 79
59 79 72 0 6 6 10 14 10 8 0 27 24 43 53 24 44 37 56 90 82 34 17 73 40 86 53
13 12 28 22 34 22 6 0 17 9 24 20 10 14 32 22 82 29 77 11 117 32 117 61 0 16
-7 20 -38 20 -21 0 -41 -2 -43 -5z"/>
<path d="M19080 33866 c0 -20 -46 -26 -71 -8 -20 14 -70 14 -191 -2 -31 -4
-133 -53 -149 -72 -21 -26 -27 -71 -13 -100 25 -51 42 -55 134 -33 116 27 218
26 279 -5 60 -31 79 -67 57 -111 -50 -105 -50 -106 -37 -139 33 -78 37 -169
35 -702 -2 -566 -6 -618 -46 -612 -12 2 -26 11 -32 22 -23 39 -63 79 -117 117
-31 22 -61 50 -68 62 -7 12 -25 31 -42 42 -16 11 -32 28 -34 37 -3 9 -22 34
-41 55 -42 46 -60 79 -69 130 -5 29 -16 44 -46 66 -22 15 -45 27 -52 27 -24 0
-52 28 -75 74 -13 25 -30 46 -38 46 -8 0 -37 23 -64 50 -27 28 -56 50 -64 50
-22 0 -53 37 -81 96 -32 67 -120 140 -188 158 -15 3 -27 10 -27 14 0 4 -27 36
-60 72 -33 36 -60 71 -60 79 0 7 -59 73 -131 145 -177 177 -176 176 -194 218
-8 20 -21 41 -29 45 -7 4 -23 26 -34 49 -24 47 -32 51 -191 95 -116 31 -127
32 -228 8 -42 -10 -68 -10 -130 0 -57 9 -104 10 -173 3 -52 -5 -201 -7 -330
-5 -129 2 -482 6 -785 9 -302 2 -558 4 -569 4 -10 1 -33 -6 -50 -14 -46 -21
-63 -21 -143 -3 -76 18 -185 23 -245 12 -24 -5 -46 -3 -66 8 -26 12 -39 13
-103 0 -48 -9 -170 -15 -344 -17 -148 -2 -281 -8 -295 -12 -49 -15 -87 -45
-117 -91 -40 -63 -48 -97 -27 -118 23 -22 66 -16 139 20 49 25 75 31 145 33
77 3 88 1 121 -21 21 -14 47 -28 59 -32 11 -4 26 -17 32 -31 9 -20 7 -30 -18
-65 -16 -23 -43 -51 -61 -63 -46 -30 -44 -42 19 -88 10 -7 27 -48 38 -92 20
-80 43 -315 36 -371 -2 -16 -7 -129 -10 -250 -4 -121 -12 -267 -17 -324 -5
-57 -9 -143 -8 -190 1 -48 -1 -93 -6 -101 -4 -7 -7 -33 -6 -58 1 -30 -6 -57
-19 -80 -20 -33 -20 -36 -4 -78 16 -41 16 -44 -5 -77 -11 -19 -21 -43 -21 -54
0 -11 -27 -46 -60 -79 -33 -32 -60 -64 -60 -70 0 -17 -53 -70 -90 -89 -59 -31
-228 -65 -263 -52 -24 8 -32 7 -42 -6 -22 -30 -70 -40 -225 -45 -165 -5 -299
9 -312 32 -8 14 -117 56 -195 76 -24 6 -47 19 -53 30 -6 11 -38 35 -73 55
-153 89 -203 139 -245 245 -45 116 -47 151 -47 950 0 864 -10 780 98 850 103
68 156 89 247 101 156 20 233 38 253 58 25 25 17 36 -46 59 -83 31 -279 45
-439 31 -154 -14 -293 -7 -361 16 -31 11 -60 15 -85 10 -20 -3 -116 -10 -212
-14 -186 -8 -222 -16 -272 -64 -23 -22 -28 -35 -28 -75 0 -36 5 -54 20 -67 20
-18 22 -18 73 0 38 14 81 19 162 19 107 1 113 0 148 -27 62 -47 57 -102 -12
-143 -41 -24 -46 -43 -19 -78 34 -47 68 -123 68 -153 0 -16 -7 -41 -16 -58
-13 -25 -17 -90 -21 -410 -13 -935 0 -1082 102 -1145 41 -25 51 -41 65 -105 6
-26 22 -67 36 -90 21 -36 31 -44 65 -49 22 -4 50 -13 62 -21 12 -7 60 -26 107
-41 47 -14 107 -38 135 -51 97 -50 210 -81 465 -129 130 -24 368 -29 510 -10
69 9 141 21 160 27 19 5 68 16 109 25 110 23 178 62 390 224 130 99 183 209
213 442 13 103 19 1065 9 1459 -5 194 -5 197 87 256 93 60 140 80 264 107 135
31 177 28 257 -16 l54 -30 89 17 c155 30 283 1 322 -73 12 -24 12 -31 -5 -64
-27 -52 -54 -68 -119 -68 -44 -1 -61 -6 -82 -25 -33 -28 -35 -41 -9 -55 14 -7
36 -6 77 5 75 19 69 20 98 -18 20 -25 27 -50 33 -112 11 -121 9 -387 -5 -505
-10 -78 -10 -153 -3 -295 6 -130 6 -228 -1 -310 -8 -88 -8 -155 1 -250 6 -71
10 -205 8 -298 l-4 -167 -32 -33 c-24 -26 -48 -37 -104 -50 -39 -10 -88 -17
-107 -17 -116 0 -270 -88 -270 -154 0 -42 10 -55 51 -66 51 -15 99 -12 160 9
30 11 95 25 144 31 50 6 137 23 195 38 98 25 119 27 300 26 119 -1 213 -6 240
-13 157 -43 242 -50 310 -26 74 26 105 21 159 -30 26 -25 58 -45 69 -45 12 0
50 11 84 24 35 13 98 29 141 36 43 6 99 21 125 33 41 18 66 21 187 21 119 0
149 -3 199 -22 78 -29 179 -29 272 -1 82 26 94 34 94 64 0 31 -14 40 -95 59
-38 8 -110 27 -160 41 -49 13 -101 25 -115 25 -13 0 -48 10 -77 22 -94 39 -93
25 -95 1068 -1 811 -4 772 62 790 73 20 97 5 125 -81 19 -59 74 -131 191 -252
23 -23 44 -49 47 -58 3 -9 37 -37 76 -63 38 -26 73 -56 76 -67 4 -11 18 -27
31 -36 14 -9 36 -34 49 -57 14 -23 40 -52 60 -65 19 -13 35 -27 35 -31 0 -5
35 -45 78 -90 42 -45 82 -90 87 -101 6 -10 31 -29 55 -41 31 -16 46 -30 48
-46 2 -14 60 -80 146 -165 146 -145 151 -149 199 -180 15 -10 27 -23 27 -30 0
-6 13 -26 29 -43 16 -17 35 -44 44 -60 14 -27 59 -74 203 -211 28 -26 63 -69
77 -94 16 -28 39 -53 59 -62 41 -20 91 -72 107 -113 32 -82 104 -108 175 -65
43 27 49 57 40 199 -7 117 4 216 36 321 19 60 20 96 20 730 0 425 -5 702 -12
766 -13 120 -14 145 -3 210 10 68 21 78 167 168 31 20 136 49 261 72 l88 17
24 -22 c33 -31 40 -71 19 -115 -23 -50 -61 -78 -99 -72 -39 6 -149 -11 -153
-24 -2 -5 -16 -16 -32 -24 -29 -15 -41 -47 -32 -90 4 -23 9 -25 59 -25 51 0
58 3 92 38 20 20 45 50 56 66 29 41 59 30 74 -29 15 -59 14 -96 -4 -138 -8
-20 -15 -56 -15 -79 0 -24 -5 -63 -11 -87 -8 -36 -7 -47 5 -59 13 -13 18 -13
40 1 14 10 30 17 36 17 6 0 28 11 49 25 41 25 89 111 125 222 18 54 95 161
147 201 34 27 59 36 189 62 124 26 493 39 566 21 93 -23 108 -64 46 -124 -21
-20 -43 -37 -49 -37 -6 0 -25 -12 -42 -26 -30 -25 -30 -27 -16 -55 9 -16 29
-42 45 -59 35 -36 36 -51 19 -230 -14 -145 -14 -163 -4 -515 11 -384 12 -667
3 -908 -9 -248 -17 -271 -107 -316 -33 -17 -74 -31 -91 -31 -89 0 -213 -53
-247 -105 -30 -45 -29 -55 10 -100 l33 -37 119 35 c66 20 147 39 180 43 33 4
71 11 85 16 13 5 69 18 123 29 162 31 367 23 577 -25 36 -9 97 -15 135 -16 62
0 77 4 125 33 45 26 56 38 58 62 3 27 -1 32 -30 42 -18 6 -62 14 -98 18 -36 4
-81 11 -100 17 -19 5 -81 13 -137 18 l-101 7 -60 54 -59 53 -7 156 c-4 85 -6
533 -5 995 2 462 0 846 -4 852 -17 28 6 66 65 104 91 58 133 63 408 51 249
-12 340 -27 422 -68 40 -20 49 -30 59 -66 12 -47 0 -106 -26 -128 -28 -23 -17
-58 61 -200 26 -48 33 -52 82 -46 51 7 88 43 98 96 4 19 0 98 -10 175 -21 178
-12 228 56 304 67 75 52 119 -47 139 -32 6 -512 8 -1300 6 -1146 -3 -1256 -5
-1318 -21 -54 -13 -74 -15 -100 -6 -68 24 -193 34 -461 36 -251 2 -279 4 -290
20 -16 20 -46 23 -46 3z m-2494 -177 c42 -28 47 -29 146 -27 94 1 109 -1 163
-26 105 -48 138 -99 99 -154 -14 -20 -21 -22 -63 -16 -53 7 -91 -7 -91 -33 0
-8 17 -33 38 -54 28 -27 44 -36 59 -33 44 12 46 -8 45 -535 -1 -273 -2 -671
-2 -886 0 -214 -3 -407 -6 -427 -8 -50 -66 -113 -124 -133 -25 -8 -60 -22 -78
-31 -18 -8 -74 -22 -124 -31 -84 -14 -96 -14 -143 1 -28 9 -80 19 -116 22 -35
3 -77 10 -94 15 -16 6 -77 14 -135 19 -88 8 -108 13 -127 32 -12 13 -29 29
-37 36 -8 6 -20 29 -26 51 -12 45 -17 1943 -5 2004 8 43 51 90 130 142 68 45
88 52 196 65 52 6 119 17 149 25 67 17 90 13 146 -26z"/>
<path d="M16275 33493 c-34 -38 -51 -89 -35 -108 17 -21 73 -19 101 4 13 10
44 29 69 42 25 13 56 34 70 47 13 12 31 23 39 23 44 3 -55 17 -131 18 -83 1
-88 0 -113 -26z"/>
<path d="M14885 33525 c-22 -8 -52 -15 -67 -15 -36 0 -70 -49 -75 -109 -7 -82
51 -110 88 -42 13 22 26 30 60 36 53 8 89 30 89 53 1 9 15 26 32 37 17 11 33
25 35 31 9 26 -98 32 -162 9z"/>
<path d="M12823 33520 c-54 -17 -78 -82 -58 -162 7 -29 18 -79 25 -110 13 -55
27 -72 53 -63 19 8 37 55 37 95 0 39 10 52 83 112 31 25 38 37 34 57 -3 17 2
30 17 42 11 9 18 20 14 24 -11 12 -171 15 -205 5z"/>
<path d="M20545 33410 c-50 -6 -117 -42 -137 -72 -17 -26 -33 -118 -21 -118
13 0 84 53 93 71 5 9 26 20 47 23 87 16 103 25 103 61 0 37 -16 44 -85 35z"/>
<path d="M28290 32212 c0 -5 -11 -14 -25 -20 -15 -7 -25 -20 -25 -32 0 -27
-55 -60 -101 -60 -29 0 -42 -6 -62 -32 -13 -18 -51 -46 -83 -63 -32 -16 -77
-45 -98 -62 -22 -18 -46 -33 -53 -33 -8 0 -53 -40 -101 -89 -69 -71 -96 -92
-132 -102 -25 -7 -58 -22 -75 -34 -16 -12 -39 -24 -50 -28 -46 -13 -128 -47
-142 -58 -8 -7 -23 -29 -33 -48 -29 -55 -121 -131 -159 -131 -36 0 -83 -32
-98 -68 -18 -43 -44 -65 -102 -88 -24 -9 -51 -24 -60 -33 -9 -9 -27 -25 -41
-36 -14 -11 -45 -45 -68 -75 -54 -68 -86 -94 -137 -109 -73 -23 -120 -48 -165
-91 -60 -55 -102 -88 -119 -92 -18 -4 -39 -20 -101 -80 -28 -27 -54 -48 -59
-48 -4 0 -21 -19 -36 -41 -73 -112 -207 -220 -290 -234 -40 -8 -102 -39 -120
-62 -5 -7 -34 -25 -64 -40 -36 -19 -61 -40 -74 -63 -28 -52 -70 -86 -129 -105
-35 -12 -67 -32 -93 -59 -22 -22 -56 -55 -75 -73 -19 -17 -48 -45 -64 -61 -16
-17 -42 -33 -57 -36 -17 -3 -59 -37 -108 -86 -44 -44 -85 -80 -90 -80 -5 0
-16 -6 -23 -13 -7 -7 -26 -20 -41 -30 -16 -11 -25 -23 -21 -30 4 -7 4 -9 0 -6
-10 9 -134 -73 -178 -118 -21 -21 -45 -53 -55 -70 -10 -18 -21 -33 -25 -33 -4
0 -16 -9 -27 -21 -19 -20 -30 -27 -133 -83 -56 -31 -98 -65 -98 -81 0 -27
-136 -100 -205 -110 -11 -1 -27 -6 -35 -9 -16 -7 -70 -87 -70 -103 0 -5 -14
-30 -30 -55 -30 -45 -55 -61 -117 -73 -18 -4 -33 -10 -33 -13 0 -4 -12 -13
-27 -20 -16 -8 -49 -46 -78 -90 -50 -78 -52 -79 -166 -133 -9 -4 -34 -12 -55
-18 -22 -6 -56 -25 -77 -43 -109 -95 -165 -151 -161 -162 3 -7 -12 -20 -34
-30 -21 -10 -46 -30 -55 -46 -18 -29 -42 -51 -179 -161 -43 -34 -78 -66 -78
-71 0 -12 -91 -68 -110 -68 -9 0 -26 -10 -37 -22 -52 -55 -81 -76 -116 -82
-34 -6 -41 -4 -66 23 -16 17 -34 31 -40 31 -22 0 -63 -55 -116 -153 -52 -99
-103 -167 -124 -167 -5 0 -12 -9 -16 -20 -9 -28 -122 -142 -172 -174 -24 -14
-43 -31 -43 -37 0 -16 -60 -89 -73 -89 -7 -1 -31 -20 -55 -43 -28 -28 -69 -54
-120 -75 -42 -18 -82 -36 -88 -40 -7 -4 -36 -23 -65 -43 -30 -20 -70 -40 -89
-44 -19 -4 -42 -13 -50 -20 -26 -23 -142 -57 -245 -71 -55 -8 -113 -18 -128
-24 -15 -5 -41 -7 -56 -4 -22 5 -35 -1 -62 -25 -18 -17 -39 -29 -46 -26 -7 2
-13 1 -13 -3 0 -4 17 -14 38 -23 20 -9 53 -24 74 -33 52 -23 87 -20 110 9 14
19 29 25 56 25 48 0 72 -14 54 -32 -6 -6 -12 -27 -12 -45 0 -18 -4 -33 -8 -33
-9 0 -23 -11 -94 -73 -59 -51 -91 -73 -125 -85 -17 -6 -41 -19 -52 -29 -11
-10 -33 -28 -48 -40 -16 -12 -41 -33 -58 -46 -16 -13 -47 -32 -67 -42 -21 -9
-38 -21 -38 -26 0 -5 -6 -9 -13 -9 -17 0 -63 -39 -162 -137 -46 -46 -88 -83
-93 -83 -5 0 -32 -22 -60 -49 -67 -64 -100 -87 -139 -96 -24 -5 -37 -16 -49
-42 -10 -19 -28 -39 -42 -44 -14 -5 -55 -40 -91 -78 -36 -37 -85 -80 -109 -96
-37 -24 -46 -26 -68 -16 -22 10 -28 8 -50 -16 -15 -17 -23 -35 -20 -46 2 -11
1 -30 -4 -43 -8 -20 -17 -24 -49 -24 -43 0 -56 -11 -56 -50 0 -21 -5 -25 -30
-25 -26 0 -30 3 -30 29 0 16 -7 33 -17 39 -25 17 -56 -16 -64 -69 -6 -45 -40
-84 -71 -84 -7 0 -18 -11 -23 -25 -15 -40 -98 -26 -143 25 -16 18 -37 30 -52
30 -13 0 -40 9 -59 21 -29 17 -49 20 -107 18 -65 -3 -73 -2 -87 19 -17 25 -48
28 -79 7 -12 -8 -44 -15 -74 -15 -220 -1 -289 -7 -309 -25 -12 -11 -39 -20
-64 -21 -47 -3 -89 -25 -246 -131 -30 -20 -63 -45 -73 -55 -10 -10 -26 -18
-36 -18 -26 0 -68 -50 -75 -92 -6 -31 -12 -39 -38 -46 -25 -6 -33 -15 -44 -51
-7 -23 -20 -51 -29 -61 -19 -21 -45 -102 -45 -141 0 -16 -9 -46 -21 -68 -19
-37 -21 -58 -21 -233 -1 -182 1 -196 22 -236 41 -78 36 -172 -9 -172 -19 0
-51 -30 -51 -48 0 -18 -52 -53 -71 -47 -18 6 -59 -29 -59 -51 0 -19 -81 -82
-110 -86 -18 -2 -24 -8 -22 -21 2 -10 -2 -25 -9 -33 -15 -19 -58 -18 -65 1
-10 25 -31 17 -43 -17 -11 -32 -57 -88 -72 -88 -4 0 -31 -22 -60 -50 -49 -47
-56 -50 -104 -50 -37 0 -60 -6 -85 -24 -27 -18 -40 -22 -58 -15 -13 5 -28 7
-33 3 -14 -8 -11 -42 5 -51 20 -11 -21 -111 -49 -120 -11 -3 -34 -16 -51 -29
-17 -13 -37 -24 -44 -24 -6 0 -25 -11 -42 -25 -23 -19 -41 -25 -79 -25 -34 0
-49 4 -49 13 0 21 -37 50 -55 44 -8 -4 -22 -22 -31 -41 -26 -54 -46 -52 -109
15 -31 32 -63 59 -71 59 -8 0 -20 -13 -25 -30 -7 -19 -18 -30 -30 -30 -24 0
-36 27 -22 50 14 22 -31 83 -56 76 -35 -12 -46 10 -51 104 -3 51 -1 98 3 106
11 20 41 17 62 -6 22 -24 62 -37 146 -44 56 -5 70 -3 90 13 13 11 22 21 19 23
-73 55 -154 88 -212 88 -38 0 -66 15 -104 56 -34 36 -59 42 -88 21 -17 -13
-18 -36 -18 -338 0 -178 1 -332 1 -341 1 -9 9 -19 20 -23 10 -3 32 -18 49 -33
78 -69 87 -73 165 -73 75 0 113 -12 89 -27 -7 -5 -236 -8 -510 -7 -273 1 -510
-1 -526 -5 -33 -6 -40 -18 -26 -40 7 -12 44 -16 177 -21 92 -4 182 -12 198
-18 17 -7 36 -25 45 -43 8 -18 44 -54 80 -81 36 -27 86 -67 111 -88 25 -22 57
-48 71 -57 14 -9 49 -36 78 -59 28 -24 58 -43 65 -43 7 0 51 -37 98 -82 140
-136 179 -168 237 -198 30 -15 78 -51 107 -79 36 -37 61 -54 87 -58 35 -5 96
12 96 27 0 23 60 74 123 106 39 19 77 44 85 55 7 10 26 26 41 33 15 8 40 33
55 55 16 22 42 49 60 60 17 11 50 33 73 50 24 17 56 37 72 45 27 14 48 33 158
137 23 22 58 46 77 54 19 8 40 23 45 32 5 10 30 33 55 52 25 19 46 41 46 48 0
11 49 48 106 79 32 17 73 53 156 136 43 42 90 84 105 93 82 45 169 113 252
195 20 19 48 43 63 53 15 9 50 37 78 62 28 25 69 57 91 70 21 14 39 32 39 41
0 13 60 46 123 68 24 8 12 26 -17 26 -13 0 -43 11 -67 23 -28 15 -69 26 -111
29 -70 6 -130 33 -156 69 -7 10 -24 19 -38 19 -35 0 -89 24 -105 47 -8 11 -32
23 -53 27 -52 10 -103 65 -150 163 -20 40 -40 73 -44 73 -16 0 -32 51 -32 99
0 45 -2 50 -30 60 -16 5 -30 16 -31 23 -1 7 0 101 1 208 l2 195 26 28 c20 21
27 42 33 92 5 53 12 70 33 90 14 13 31 45 38 71 8 30 20 50 34 56 12 6 27 21
33 34 6 13 15 24 20 24 5 0 26 24 48 53 37 48 45 53 113 72 75 21 92 29 156
80 36 29 40 30 125 27 l89 -4 45 46 45 46 62 -21 c40 -13 73 -18 95 -14 28 5
34 3 42 -17 19 -50 51 -57 151 -33 19 5 33 0 53 -19 16 -14 38 -26 50 -26 29
0 97 -46 97 -66 0 -12 7 -14 30 -9 25 5 34 1 57 -23 16 -16 35 -33 44 -38 9
-5 31 -22 50 -38 25 -21 33 -35 31 -57 -2 -21 4 -33 25 -46 39 -24 41 -28 35
-82 -4 -43 -1 -50 29 -80 60 -60 34 -131 -41 -114 -19 4 -206 9 -415 10 -209
1 -391 2 -405 3 -14 1 -134 1 -267 0 -232 -1 -243 -2 -275 -24 -45 -30 -49
-68 -11 -108 27 -28 28 -33 25 -115 l-3 -87 38 -36 c47 -46 92 -107 99 -136 3
-12 38 -54 77 -93 58 -58 76 -71 102 -71 35 0 50 -13 57 -45 3 -17 10 -20 53
-17 45 3 54 0 79 -27 20 -21 36 -29 50 -25 12 2 117 6 234 7 204 2 214 3 230
23 9 12 34 25 54 28 27 5 48 19 75 50 21 24 57 56 81 70 30 19 42 33 42 50 0
14 10 37 23 53 12 15 31 46 41 68 17 38 19 39 32 20 11 -15 13 -37 8 -95 -8
-85 -16 -106 -43 -115 -13 -4 -21 -17 -23 -38 -2 -24 -8 -33 -25 -35 -27 -4
-53 -38 -53 -69 0 -18 -6 -23 -25 -23 -22 0 -25 -4 -25 -35 0 -30 3 -35 24
-35 28 0 48 21 44 47 -2 12 4 19 20 21 12 2 30 15 40 28 9 14 26 37 38 52 12
15 24 40 28 55 4 16 17 33 31 39 14 6 26 16 26 22 1 6 3 27 5 46 11 152 17
183 34 197 36 29 105 101 128 132 13 17 28 31 33 31 6 0 25 11 42 24 18 13 54
36 81 51 56 30 100 29 123 -5 8 -11 21 -20 30 -20 12 0 14 7 9 33 -5 27 -2 38
15 53 16 14 19 25 14 49 -4 16 -6 85 -5 153 1 108 -1 127 -20 156 -24 39 -57
64 -120 88 -58 23 -87 23 -143 -2 -46 -20 -71 -19 -80 5 -9 22 22 55 51 55 15
0 43 4 62 9 19 6 63 12 97 15 39 2 75 12 97 25 18 12 47 21 63 21 21 0 38 10
60 35 35 39 45 42 63 20 21 -25 47 -17 70 20 25 40 59 46 89 16 17 -17 18 -31
14 -172 -5 -149 -5 -155 16 -174 27 -24 47 -14 76 37 56 100 121 167 168 175
26 4 45 15 59 34 20 27 120 79 151 79 8 0 30 16 49 36 18 19 48 42 66 49 17 8
32 21 32 30 0 21 116 137 153 153 15 6 27 16 27 22 0 5 15 18 34 27 87 46 172
112 203 159 9 14 28 31 44 39 15 8 30 23 34 32 3 10 28 29 56 42 28 13 69 41
92 63 23 22 58 51 77 63 19 12 63 50 97 83 34 33 92 81 130 107 37 25 102 75
143 111 41 36 89 71 105 79 17 7 51 33 78 58 26 25 56 49 67 52 11 4 20 10 20
15 0 5 15 17 33 26 17 9 36 23 40 30 4 8 12 14 18 14 11 0 124 94 189 157 24
24 64 58 88 76 24 18 66 50 94 72 28 22 59 45 70 51 11 6 25 20 33 30 7 11 42
35 78 54 45 24 72 46 89 73 12 21 38 47 56 58 17 12 32 24 32 29 0 4 15 17 33
29 17 12 69 45 113 74 45 28 104 70 130 92 27 22 78 64 114 94 36 29 88 75
117 101 67 62 159 133 201 154 18 10 61 44 94 77 67 65 185 157 261 204 27 17
95 75 153 129 93 88 144 129 194 152 31 15 75 57 80 78 3 12 28 33 60 51 30
17 97 71 148 121 52 51 129 114 179 145 48 30 127 92 175 139 49 47 111 99
138 116 27 17 73 51 102 76 29 25 78 62 108 84 30 21 86 69 125 107 38 37 73
67 77 67 3 0 26 16 50 36 23 20 93 69 154 109 70 46 128 92 160 129 27 32 63
64 81 71 37 16 173 125 259 210 34 33 101 87 149 120 49 33 111 81 139 106 28
25 73 58 100 74 27 15 65 43 83 61 19 19 48 36 68 40 34 6 70 30 155 103 19
17 60 51 90 77 30 25 60 52 65 58 6 7 20 19 32 27 23 16 96 75 157 130 57 49
178 135 202 143 21 6 85 65 151 138 24 26 61 57 83 68 22 11 40 25 40 30 0 5
9 11 20 15 11 3 61 40 111 81 50 41 94 74 98 74 4 0 43 34 87 75 43 41 83 75
87 75 5 0 32 22 60 49 29 27 63 52 77 56 67 20 140 79 140 113 0 7 -24 36 -52
64 -49 46 -82 68 -188 123 -21 11 -49 30 -62 43 -14 12 -28 22 -32 22 -4 0
-42 29 -83 65 -48 41 -94 70 -125 81 -28 9 -62 23 -77 30 -29 15 -81 19 -81 6z"/>
<path d="M14739 31988 c-18 -54 -28 -72 -40 -70 -26 4 -31 -18 -60 -258 -6
-47 -12 -94 -14 -105 -2 -11 -4 -26 -4 -33 -1 -7 -13 -17 -28 -23 -15 -6 -35
-18 -43 -27 -53 -59 -118 -141 -129 -164 -8 -15 -38 -42 -68 -60 -30 -18 -69
-43 -86 -55 -18 -12 -63 -37 -102 -57 -38 -19 -97 -53 -130 -75 -33 -23 -71
-41 -85 -41 -14 0 -44 -9 -66 -19 -89 -41 -434 -63 -754 -50 -124 5 -244 13
-268 18 -24 5 -52 6 -63 4 -27 -7 -20 -35 11 -43 14 -4 45 -16 70 -27 50 -23
321 -48 395 -37 22 3 82 0 133 -7 81 -11 101 -11 165 5 57 13 83 15 118 7 61
-14 156 -4 195 19 17 11 44 20 60 20 16 0 44 9 63 21 19 11 73 32 120 45 76
22 92 31 134 74 27 28 55 50 63 50 7 0 28 13 47 30 18 16 55 37 82 47 26 10
53 27 59 37 6 11 23 38 39 59 15 22 27 47 27 55 0 8 14 38 30 67 17 29 31 65
32 80 1 15 10 31 20 36 10 5 18 15 18 21 0 6 6 19 13 27 7 9 19 39 26 67 10
42 9 55 -4 80 -20 39 -20 123 1 131 8 3 20 1 27 -6 38 -38 69 34 57 136 -13
118 -27 122 -61 21z"/>
<path d="M5728 31665 c-4 -4 -62 -8 -130 -9 -104 -2 -131 -6 -176 -26 -53 -23
-54 -24 -47 -59 11 -58 32 -87 136 -183 129 -119 134 -123 259 -194 33 -19 59
-42 66 -59 12 -30 104 -119 146 -141 15 -8 50 -35 78 -59 28 -25 55 -45 61
-45 6 0 27 -17 47 -38 20 -21 65 -57 99 -80 34 -23 65 -47 69 -53 3 -6 32 -27
63 -47 31 -21 88 -67 127 -105 43 -41 101 -83 145 -106 41 -21 88 -51 105 -67
17 -16 61 -49 98 -74 37 -25 73 -51 79 -58 7 -7 46 -38 87 -69 41 -31 100 -80
130 -108 30 -28 68 -59 83 -69 15 -9 51 -38 80 -64 29 -26 84 -68 123 -94 39
-26 88 -68 110 -94 38 -45 125 -111 191 -145 41 -21 139 -100 212 -171 32 -31
83 -70 113 -87 30 -17 75 -51 99 -76 24 -25 49 -45 54 -45 6 0 21 -12 34 -26
13 -14 43 -35 65 -46 23 -12 82 -62 131 -112 50 -50 108 -100 130 -110 54 -26
148 -101 231 -185 38 -39 83 -76 99 -82 36 -15 85 -58 85 -75 0 -7 42 -40 93
-73 130 -85 166 -112 172 -131 7 -22 121 -130 137 -130 26 0 183 -123 261
-203 49 -51 110 -97 128 -97 6 0 34 -22 63 -50 29 -27 56 -50 60 -50 5 0 36
-25 71 -55 34 -30 66 -55 70 -55 4 0 29 -19 55 -42 128 -115 178 -156 245
-198 127 -79 149 -96 198 -154 27 -31 79 -76 115 -101 86 -58 120 -83 179
-132 26 -22 59 -46 72 -53 14 -7 57 -43 95 -81 39 -37 89 -81 111 -98 22 -16
53 -42 69 -56 15 -15 72 -55 125 -89 53 -35 107 -76 121 -91 14 -15 41 -35 60
-45 32 -17 111 -82 212 -175 21 -19 55 -39 77 -46 42 -12 59 -33 38 -46 -7 -4
-275 -10 -597 -13 -613 -5 -621 -6 -635 -49 -8 -26 19 -77 48 -93 12 -6 75
-14 142 -16 164 -6 195 -24 209 -124 7 -49 30 -78 46 -62 6 6 13 37 16 71 6
57 5 62 -17 73 -13 6 -41 31 -61 53 l-36 42 -129 3 c-141 3 -162 7 -146 23 16
16 1279 17 1295 1 15 -15 -14 -20 -134 -24 -84 -3 -101 -7 -121 -26 -13 -12
-32 -22 -44 -22 -32 0 -81 -20 -87 -36 -3 -8 -16 -14 -28 -14 -13 0 -34 -7
-47 -16 -18 -13 -21 -22 -15 -43 4 -14 10 -55 13 -91 3 -36 11 -64 16 -64 6 1
25 46 43 100 35 103 42 114 80 114 13 0 43 9 67 20 35 16 67 20 178 21 l135 2
68 -38 c72 -40 135 -90 169 -136 26 -34 99 -92 150 -120 22 -12 61 -39 87 -60
26 -21 49 -39 52 -39 3 0 29 -22 58 -50 29 -27 56 -50 60 -50 8 0 133 -102
192 -157 22 -20 83 -65 135 -100 52 -36 117 -90 144 -121 27 -31 69 -68 92
-82 98 -57 224 -153 256 -196 17 -22 28 -52 32 -86 4 -28 11 -56 17 -62 11
-11 11 -9 15 58 2 30 10 46 35 69 17 16 37 45 42 65 10 38 62 93 111 119 26
13 28 18 23 48 -6 31 -3 36 41 69 63 46 80 61 85 76 2 8 19 13 43 12 26 -1 52
6 75 21 19 13 57 29 84 37 27 7 60 24 74 37 21 19 36 24 72 23 86 -3 99 0 136
33 33 28 43 32 83 29 35 -3 57 3 94 23 26 15 47 30 47 35 0 34 -148 13 -172
-24 -5 -7 -19 -5 -43 7 -33 16 -46 16 -123 5 -96 -13 -247 -12 -274 3 -10 5
-18 21 -18 34 0 20 -6 25 -34 31 -43 7 -72 38 -80 84 -4 25 -15 41 -36 53 -16
10 -35 27 -40 38 -6 10 -17 19 -24 19 -8 0 -21 11 -30 25 -9 14 -25 25 -36 25
-13 0 -26 12 -37 35 -9 19 -20 35 -25 35 -4 0 -8 9 -8 20 0 12 -9 22 -24 26
-31 7 -46 -1 -46 -27 0 -16 -7 -19 -39 -19 -32 0 -46 7 -73 34 -72 75 -105
130 -112 185 -6 54 -62 131 -94 131 -10 0 -27 7 -38 15 -25 19 -66 19 -111 0
-55 -23 -85 -12 -132 50 -30 39 -42 66 -47 104 -4 28 -11 54 -15 57 -5 3 -9
12 -9 20 0 7 -14 27 -30 42 -16 16 -30 36 -30 45 0 26 -61 40 -109 26 -22 -7
-38 -16 -35 -20 3 -5 -2 -9 -10 -9 -9 0 -16 3 -16 8 0 4 -23 8 -52 10 -62 4
-118 25 -118 45 0 8 -11 18 -25 21 -25 6 -75 50 -75 66 0 5 -8 11 -17 13 -17
4 -17 5 0 6 20 1 23 21 3 21 -8 0 -22 7 -31 16 -14 14 -14 19 -3 30 17 17 104
34 176 34 31 0 84 7 119 16 39 10 84 14 116 10 29 -2 108 -10 177 -15 69 -6
150 -14 180 -18 30 -5 64 -7 75 -5 28 4 82 52 90 80 l7 24 -124 -9 c-223 -15
-1203 -2 -1238 17 -52 28 19 99 120 121 30 6 93 22 140 34 233 64 388 72 594
30 67 -13 138 -31 159 -40 20 -8 46 -15 58 -15 28 0 175 57 212 83 26 18 27
22 21 70 -4 29 -10 56 -15 61 -6 6 -27 4 -56 -7 -27 -9 -63 -17 -81 -17 -34 0
-105 31 -118 51 -4 8 -37 9 -109 4 -79 -5 -109 -3 -136 8 -40 17 -74 51 -88
90 -7 17 -11 159 -11 377 -1 397 -2 390 78 437 l47 28 180 -2 c341 -4 505 13
651 68 28 11 108 35 177 53 86 23 137 42 157 59 16 14 39 28 50 32 11 3 20 11
20 16 0 5 30 40 68 77 122 122 186 233 201 349 6 43 15 117 22 164 6 52 24
119 43 167 32 78 32 83 17 113 -27 56 -131 153 -202 188 -36 18 -79 44 -96 59
-123 111 -205 138 -473 158 -52 3 -111 13 -130 21 -25 11 -84 17 -210 19 -124
3 -190 9 -227 20 -29 9 -63 14 -75 11 -13 -3 -51 -14 -84 -23 -54 -16 -73 -17
-170 -6 -105 12 -194 15 -444 15 -63 1 -149 1 -190 1 -107 0 -123 -6 -160 -64
-18 -27 -36 -50 -41 -50 -15 0 -9 -43 10 -75 20 -33 28 -34 197 -20 117 10
204 -21 204 -74 0 -5 -16 -27 -36 -47 -31 -33 -38 -36 -54 -26 -28 17 -50 15
-85 -8 -16 -11 -38 -20 -47 -20 -23 0 -50 -42 -42 -64 3 -9 18 -16 33 -17 102
-1 117 -5 158 -38 l41 -33 7 -125 c5 -83 4 -149 -4 -197 -20 -116 -25 -268
-12 -308 10 -31 9 -42 -4 -67 -8 -17 -20 -31 -25 -31 -5 0 -13 -12 -16 -26 -5
-19 -9 -22 -15 -12 -6 9 -9 6 -9 -11 0 -16 4 -21 15 -18 8 4 17 1 21 -5 4 -6
8 -76 9 -157 2 -80 6 -247 9 -371 4 -124 6 -252 5 -285 -3 -60 -2 -95 2 -211
2 -72 -11 -101 -55 -119 -17 -7 -40 -23 -50 -34 -33 -36 -154 -63 -201 -45 -9
4 -21 17 -26 30 -6 17 -16 24 -34 24 -16 0 -40 13 -62 35 -41 40 -70 50 -113
41 -24 -4 -35 0 -60 27 -16 18 -30 35 -30 40 0 4 -5 7 -11 7 -6 0 -39 20 -73
44 -33 23 -78 51 -98 61 -21 9 -38 22 -38 27 0 6 -11 19 -25 30 -14 11 -25 28
-25 38 0 11 -6 23 -14 27 -8 4 -16 26 -18 48 -2 22 -8 40 -15 40 -6 0 -15 3
-19 8 -11 11 -33 8 -70 -9 -33 -16 -35 -16 -54 6 -11 13 -20 29 -20 37 0 7 -6
16 -14 19 -8 3 -17 20 -20 39 -4 18 -16 45 -27 59 -11 14 -20 28 -19 31 3 38
-3 66 -19 83 -19 23 -41 29 -41 11 0 -6 -21 -9 -52 -7 -44 2 -53 6 -56 23 -1
11 -18 31 -36 43 -19 13 -37 34 -40 48 -5 20 -12 24 -46 24 -22 0 -40 4 -40
10 0 5 -3 9 -7 8 -12 -4 -58 31 -50 38 6 7 -4 22 -40 59 -13 12 -23 26 -23 30
0 4 -11 18 -25 31 -14 13 -25 20 -25 17 0 -3 -9 2 -19 11 -16 15 -32 16 -96
12 -91 -7 -112 1 -121 52 -11 56 -29 93 -69 137 -20 22 -38 50 -41 62 -4 13
-11 23 -16 23 -6 0 -6 5 1 14 9 11 6 18 -14 34 -23 18 -24 21 -8 25 18 5 -79
11 -107 7 -8 -1 -18 -7 -22 -13 -6 -9 -8 -9 -8 1 0 7 -13 12 -29 12 -17 0 -33
5 -36 11 -4 6 -12 8 -19 6 -6 -3 -20 1 -31 9 -10 8 -16 14 -12 14 18 0 -19 52
-80 115 -18 19 -33 38 -33 43 0 11 -30 26 -45 23 -5 -2 -7 0 -4 4 4 3 -22 35
-58 70 -68 68 -91 76 -184 74 -50 -2 -73 6 -64 22 4 5 1 9 -5 9 -6 0 -9 4 -6
9 4 5 1 11 -4 13 -6 2 -12 10 -14 18 -6 33 -27 72 -51 98 -14 15 -32 34 -40
43 -8 9 -15 21 -15 27 0 7 -7 12 -15 12 -8 0 -15 5 -15 10 0 6 -6 10 -13 10
-21 0 -62 40 -59 56 2 12 -12 20 -20 12 -2 -2 -14 5 -27 14 -13 9 -29 14 -37
11 -8 -3 -16 5 -19 19 -6 23 -10 25 -58 21 -93 -7 -137 2 -137 29 0 6 -13 33
-30 59 -16 27 -27 49 -23 49 3 0 -3 10 -14 23 -25 28 -79 138 -75 155 2 6 -3
12 -10 12 -11 0 -38 31 -38 45 -1 6 -50 55 -56 55 -3 0 -22 11 -42 25 -20 14
-47 25 -59 25 -13 0 -23 5 -23 10 0 6 -7 10 -15 10 -25 0 -65 47 -65 75 0 24
-21 65 -47 93 -13 14 -49 16 -57 3 -14 -21 -66 -19 -127 5 -84 34 -115 73
-126 154 -6 48 -52 88 -168 144 -51 25 -96 46 -100 46 -17 0 -51 54 -46 74 1
5 -7 6 -18 3 -14 -3 -18 -1 -14 9 3 9 -2 14 -16 14 -14 0 -29 -12 -42 -35 -25
-42 -44 -36 -80 22 -13 21 -34 49 -46 63 -13 14 -26 35 -28 48 -3 12 -7 32
-10 45 -2 12 -14 37 -25 55 -17 28 -25 32 -63 32 -31 0 -49 -6 -62 -20 -26
-29 -71 -26 -104 8 -57 58 -99 119 -115 167 -9 27 -28 62 -43 77 -24 26 -33
28 -98 28 -78 0 -96 11 -118 74 -6 17 -21 42 -34 56 -13 14 -23 28 -23 32 0 7
-41 23 -52 20 -5 -1 -8 2 -8 7 0 5 -17 15 -37 21 -21 7 -51 18 -68 25 -16 7
-45 18 -62 25 -18 7 -33 16 -33 20 0 4 -19 12 -42 19 -24 7 -50 19 -58 26 -25
21 -87 36 -123 30 -41 -8 -116 11 -124 31 -4 12 -24 13 -115 9 -75 -4 -115 -2
-124 6 -8 7 -27 9 -46 5 -40 -9 -62 -9 -108 -1 -19 4 -38 4 -42 0z m7562
-1969 c248 -40 370 -86 454 -175 24 -25 30 -42 34 -90 4 -55 2 -61 -27 -92
l-31 -32 25 -27 c30 -31 55 -105 55 -162 0 -58 -31 -158 -62 -202 -15 -21 -28
-43 -28 -48 0 -11 -78 -88 -89 -88 -5 0 -30 -22 -57 -48 -47 -46 -55 -49 -181
-82 -73 -19 -128 -37 -122 -41 16 -9 2 -16 -69 -29 -83 -17 -202 1 -195 29 5
21 -53 51 -98 51 -39 0 -89 -29 -89 -52 0 -36 -110 -61 -163 -37 -44 20 -47
55 -47 556 l0 469 33 32 c46 45 102 72 167 82 78 12 378 3 490 -14z"/>
<path d="M12890 29525 c-98 -72 -58 -141 80 -137 35 1 93 -3 127 -8 58 -10 64
-9 100 16 35 24 45 26 115 22 53 -3 85 -10 105 -24 47 -31 72 -43 108 -50 19
-3 35 -10 35 -14 0 -4 17 -11 38 -15 20 -3 47 -9 60 -12 12 -3 22 -1 22 4 0
13 -45 33 -74 33 -15 0 -39 16 -63 43 -48 51 -74 67 -108 67 -15 0 -54 9 -88
20 -34 11 -105 27 -157 36 -52 9 -102 20 -112 25 -9 5 -47 11 -85 14 -62 5
-71 3 -103 -20z"/>
<path d="M25882 31632 c-21 -36 -79 -102 -88 -102 -4 0 -21 -15 -38 -33 -17
-19 -59 -57 -93 -85 -34 -29 -75 -71 -92 -95 -17 -26 -44 -50 -63 -57 -18 -7
-47 -24 -65 -36 -17 -13 -57 -33 -88 -45 -31 -11 -71 -34 -90 -50 -18 -16 -41
-29 -52 -29 -11 0 -28 -9 -38 -20 -10 -11 -34 -23 -54 -26 -20 -4 -54 -15 -76
-26 -105 -50 -290 -90 -395 -85 -81 4 -477 -15 -491 -23 -15 -10 -16 -9 136
-35 182 -31 574 -8 678 40 66 30 159 55 203 55 43 0 93 19 134 51 19 15 52 32
72 39 21 6 49 26 64 43 15 18 40 37 56 44 41 18 159 126 229 210 32 40 75 83
94 95 19 13 35 27 35 32 0 4 13 25 29 45 31 39 44 80 35 105 -9 24 -22 20 -42
-12z"/>
<path d="M9160 31114 c-6 -14 -10 -33 -10 -42 0 -9 -7 -26 -15 -36 -23 -30
-18 -55 12 -67 21 -8 30 -6 48 11 12 11 45 27 74 36 60 18 60 21 -22 86 -57
45 -74 47 -87 12z"/>
<path d="M15550 30970 c-177 -11 -310 -36 -310 -59 0 -24 105 -34 289 -27 102
4 240 9 306 11 107 3 288 13 354 19 13 2 42 -4 65 -12 29 -10 59 -12 101 -7
68 9 240 9 330 1 145 -13 170 -11 204 13 32 23 33 23 92 6 33 -9 76 -26 95
-37 l35 -20 67 21 c104 32 154 36 207 16 33 -13 60 -16 103 -12 75 8 136 30
140 50 5 23 -20 27 -188 31 -80 2 -191 8 -247 12 -85 6 -110 4 -155 -11 -36
-13 -92 -20 -178 -22 -69 -2 -138 -4 -155 -5 -16 -1 -57 7 -90 16 -49 15 -81
17 -180 11 -109 -6 -142 -10 -228 -31 -20 -5 -40 0 -67 15 -34 19 -56 21 -251
24 -118 2 -270 1 -339 -3z"/>
<path d="M21394 30954 c-27 -7 -64 -9 -84 -6 -103 16 -362 0 -340 -22 11 -11
66 -12 509 -6 190 3 193 3 170 21 -16 12 -34 17 -54 13 -16 -3 -58 -1 -92 4
-42 6 -76 5 -109 -4z"/>
<path d="M10618 30340 c-28 -17 -22 -26 32 -49 28 -12 50 -26 50 -31 0 -16 62
-43 115 -51 37 -5 67 -2 118 13 56 16 87 18 170 14 113 -7 385 -17 460 -18 55
-1 94 28 99 72 l3 25 -95 -5 c-52 -3 -135 -4 -185 -3 -49 1 -146 3 -215 3 -69
1 -152 8 -185 15 -80 19 -344 30 -367 15z"/>
<path d="M9782 30195 c-12 -14 -19 -25 -14 -25 4 0 3 -4 -3 -8 -21 -15 -47
-104 -37 -129 8 -24 67 -15 91 13 21 24 23 33 17 86 -11 96 -18 104 -54 63z"/>
<path d="M20730 29961 c-69 -3 -134 -11 -146 -18 -12 -7 -52 -17 -90 -23 -38
-6 -76 -18 -84 -25 -9 -8 -47 -19 -86 -25 -38 -5 -91 -21 -118 -35 -27 -14
-55 -25 -62 -25 -7 0 -33 -14 -56 -30 -24 -17 -60 -42 -80 -55 -21 -14 -38
-30 -38 -35 0 -5 -36 -28 -80 -50 -63 -32 -98 -58 -159 -123 -107 -111 -169
-193 -181 -238 -6 -21 -15 -41 -21 -44 -5 -4 -21 -25 -36 -48 -14 -23 -36 -52
-49 -63 -27 -24 -46 -72 -64 -160 -7 -32 -25 -87 -41 -121 -26 -55 -30 -81
-41 -220 -17 -237 -16 -281 9 -328 54 -99 73 -142 73 -170 0 -35 31 -106 66
-152 13 -17 24 -38 24 -45 0 -22 73 -154 106 -190 17 -19 62 -55 100 -80 38
-25 82 -57 97 -71 15 -15 40 -30 55 -33 37 -9 149 -67 197 -103 50 -37 153
-96 185 -106 14 -4 41 -18 60 -30 19 -13 82 -35 140 -50 58 -14 130 -35 160
-46 30 -12 71 -25 90 -30 58 -15 306 -22 456 -11 118 8 147 13 171 30 16 12
85 34 154 51 166 40 192 51 260 120 24 23 56 49 72 58 16 8 50 30 76 48 25 18
62 40 81 50 19 10 49 32 65 49 67 68 175 209 180 234 3 15 13 41 22 57 34 65
66 121 77 135 7 8 32 96 57 195 l44 180 0 215 c-1 187 -7 266 -30 380 -3 14
-10 75 -16 135 -15 157 -36 215 -112 305 -152 183 -220 250 -252 250 -45 0
-94 26 -101 55 -7 29 -31 45 -67 45 -13 0 -41 14 -62 30 -21 17 -50 33 -64 36
-14 3 -32 7 -39 10 -7 2 -56 11 -109 19 -56 9 -101 22 -107 30 -6 8 -33 19
-61 26 -27 6 -66 17 -85 25 -42 15 -352 24 -540 15z m384 -186 c106 -16 165
-36 356 -117 127 -54 172 -90 211 -166 24 -48 31 -113 16 -164 -6 -24 -1 -35
43 -82 35 -39 54 -73 67 -113 10 -32 18 -62 18 -68 1 -5 6 -19 12 -30 12 -23
23 -65 29 -114 2 -19 10 -53 18 -75 13 -41 21 -208 20 -421 0 -189 -35 -371
-84 -445 -9 -14 -25 -47 -35 -75 -10 -27 -27 -63 -37 -80 -10 -16 -18 -36 -18
-43 0 -42 -143 -203 -210 -237 -25 -12 -79 -40 -122 -61 -194 -99 -260 -114
-488 -115 -86 0 -106 4 -210 40 -63 23 -122 41 -130 41 -13 0 -140 54 -206 89
-38 19 -154 122 -154 135 0 19 -34 46 -57 46 -26 0 -88 36 -114 66 -9 11 -29
42 -43 70 -15 28 -38 62 -52 75 -35 32 -54 78 -106 244 l-43 140 1 245 0 245
41 155 c38 146 53 181 123 290 5 8 22 42 37 74 15 33 49 82 75 108 26 27 48
53 48 58 0 5 13 16 28 24 16 8 46 32 68 54 26 27 57 45 93 56 30 9 72 27 95
40 23 13 68 32 101 41 33 9 76 22 95 30 29 11 133 32 240 48 61 10 180 6 274
-8z"/>
<path d="M20630 29546 c-19 -8 -44 -15 -56 -15 -12 -1 -36 -12 -55 -26 -19
-13 -51 -36 -72 -50 -21 -15 -73 -59 -115 -100 -65 -62 -81 -84 -102 -140 -13
-36 -30 -71 -38 -77 -38 -32 -62 -137 -36 -162 33 -34 91 -1 79 45 -7 30 23
81 62 106 32 20 44 34 37 45 -2 4 24 38 59 75 34 37 71 81 80 96 21 33 73 67
103 67 12 0 25 10 32 24 8 19 21 25 64 30 47 6 138 43 138 56 -1 32 -121 49
-180 26z"/>
<path d="M15665 29938 c-26 -9 -267 -19 -430 -18 -27 0 -135 0 -240 0 -104 0
-242 5 -306 11 -100 10 -122 9 -172 -5 -71 -21 -117 -62 -118 -108 -2 -60 3
-93 15 -100 21 -14 107 -8 163 12 32 11 80 20 108 20 52 0 187 -42 218 -68 33
-29 18 -78 -37 -111 -42 -26 -80 -26 -158 0 -60 20 -63 20 -75 2 -21 -27 -27
-62 -14 -77 19 -22 82 -27 128 -10 40 16 43 15 73 -6 17 -12 36 -34 42 -49 21
-53 30 -423 11 -486 -36 -123 -46 -289 -28 -465 5 -47 7 -121 5 -165 -11 -206
1 -532 26 -668 13 -74 13 -80 -6 -117 -19 -37 -81 -95 -127 -119 -12 -6 -36
-11 -53 -11 -17 0 -40 -5 -51 -10 -10 -6 -45 -15 -76 -21 -92 -16 -110 -27
-144 -86 -25 -43 -29 -57 -19 -68 8 -9 10 -28 6 -50 -6 -32 -5 -35 16 -35 13
0 48 9 78 20 30 11 98 25 150 31 52 6 136 21 185 34 173 45 274 57 412 52 164
-6 279 -22 351 -47 66 -23 112 -25 167 -5 22 8 61 15 87 15 40 0 53 -5 93 -40
32 -28 53 -39 68 -36 138 29 190 41 232 56 62 23 125 36 240 50 93 12 89 12
344 -31 110 -19 117 -19 169 -3 74 24 146 74 150 105 4 39 -12 53 -60 50 -135
-7 -143 -6 -187 34 -38 34 -41 35 -112 33 -113 -4 -166 8 -183 40 -22 45 -26
167 -26 1001 -1 902 -5 851 69 851 52 0 90 -33 131 -112 38 -72 88 -138 105
-138 13 0 65 -61 85 -100 16 -33 81 -100 95 -100 16 0 78 -61 124 -123 21 -29
66 -76 99 -106 34 -30 67 -70 75 -90 8 -20 28 -49 43 -64 94 -89 127 -125 140
-147 7 -14 32 -43 54 -65 23 -22 46 -47 51 -56 4 -9 19 -19 33 -23 29 -7 175
-156 196 -199 8 -17 29 -41 47 -52 17 -11 35 -28 40 -37 8 -18 144 -159 209
-218 49 -44 68 -69 93 -119 12 -22 31 -43 43 -47 43 -13 188 -193 188 -233 0
-25 46 -61 78 -61 38 0 91 38 107 77 11 26 15 76 14 196 -1 99 6 213 16 292
15 115 17 225 13 955 l-3 825 22 31 c26 36 103 77 183 98 30 8 75 21 99 30 24
9 50 16 58 16 8 0 44 14 79 32 44 22 66 39 70 55 8 30 -2 42 -53 65 -44 19
-52 19 -222 6 -184 -14 -390 -16 -501 -4 -157 16 -244 16 -295 -1 -118 -38
-172 -112 -138 -185 19 -39 47 -42 140 -19 103 27 153 26 234 0 107 -36 122
-58 76 -114 -26 -33 -31 -46 -29 -86 1 -27 9 -70 19 -96 13 -39 17 -99 20
-313 7 -606 2 -925 -16 -955 -3 -5 -6 -14 -6 -20 0 -23 -35 -7 -67 32 -19 22
-63 67 -98 100 -35 32 -89 85 -119 117 -31 33 -86 89 -123 125 -38 37 -69 77
-72 91 -7 42 -16 57 -41 68 -13 6 -43 37 -66 69 -66 89 -107 132 -189 202 -41
35 -79 71 -85 80 -15 25 -132 133 -158 145 -12 6 -34 35 -49 65 -19 38 -55 80
-125 144 -54 50 -103 103 -110 118 -14 34 -110 128 -250 246 -19 16 -33 37
-33 49 0 21 -60 84 -79 84 -5 0 -12 11 -15 24 -9 38 -61 57 -116 43 -67 -17
-758 -17 -830 0 -63 15 -133 16 -175 1z m294 -174 l46 -46 82 6 c87 6 161 -7
232 -41 28 -14 38 -27 45 -56 9 -34 6 -42 -24 -85 l-33 -47 17 -65 c18 -72 21
-126 7 -135 -6 -3 -13 -27 -16 -53 -4 -26 -11 -63 -15 -82 -5 -19 -12 -62 -15
-95 -3 -33 -11 -79 -17 -102 -6 -23 -8 -55 -5 -70 4 -15 10 -48 15 -73 5 -25
16 -60 26 -78 14 -27 18 -73 23 -255 10 -331 9 -422 -4 -532 -7 -55 -13 -170
-13 -255 -1 -179 -15 -232 -69 -251 -16 -6 -37 -21 -45 -34 -30 -45 -161 -64
-269 -39 -43 10 -66 10 -101 2 -41 -11 -112 8 -163 42 -52 35 -57 36 -90 10
-36 -28 -82 -25 -157 9 -108 49 -98 -60 -98 1127 l1 1033 22 30 c28 39 131 84
249 111 52 11 124 30 160 40 139 41 152 40 209 -16z"/>
<path d="M15725 29612 c-86 -12 -145 -71 -145 -145 0 -19 8 -45 19 -58 10 -13
21 -33 23 -44 4 -18 6 -17 16 8 16 39 60 75 107 87 65 17 89 30 106 53 21 29
33 83 20 91 -16 11 -94 14 -146 8z"/>
<path d="M15614 28870 c-9 -16 -31 -282 -40 -499 -6 -137 8 -237 41 -301 17
-31 18 -26 39 103 20 120 21 286 2 347 -9 32 -12 81 -8 168 3 76 0 132 -6 145
-6 12 -12 29 -14 37 -4 12 -5 12 -14 0z"/>
<path d="M19074 29602 c-41 -13 -77 -70 -82 -127 -5 -62 14 -155 32 -155 19 0
41 30 55 76 9 28 23 47 45 59 52 30 90 66 103 96 7 16 17 29 23 29 5 0 10 7
10 15 0 12 -15 15 -82 14 -46 -1 -93 -4 -104 -7z"/>
<path d="M19006 29238 c-31 -104 -39 -245 -21 -367 8 -52 17 -145 21 -205 3
-61 8 -113 10 -115 13 -13 36 -7 50 14 12 18 13 31 4 71 -13 53 -8 120 17 254
26 142 9 265 -43 318 -8 7 -14 20 -14 28 0 17 -19 19 -24 2z"/>
<path d="M14447 28761 c-15 -27 -25 -55 -22 -63 3 -8 -3 -23 -15 -33 -11 -10
-20 -15 -20 -11 0 20 -57 -28 -89 -74 -29 -42 -52 -61 -106 -89 -87 -45 -146
-83 -164 -105 -7 -9 -18 -16 -24 -16 -6 0 -20 -9 -31 -19 -36 -34 -195 -82
-371 -112 -93 -16 -186 -29 -206 -29 -20 0 -55 -7 -78 -15 -32 -11 -82 -13
-229 -10 -174 4 -191 3 -221 -16 -27 -16 -32 -24 -29 -51 2 -23 11 -36 28 -45
30 -15 132 -17 180 -3 19 6 147 12 284 15 l249 4 42 34 c47 40 84 50 175 49
41 -1 73 4 87 13 30 20 170 75 190 75 8 0 33 16 54 35 25 22 49 35 67 35 21 0
36 12 67 51 51 65 64 79 76 79 20 0 89 73 89 95 0 12 14 34 30 49 27 23 30 31
24 66 -4 22 -2 46 3 52 11 14 5 88 -7 88 -4 0 -19 -22 -33 -49z"/>
<path d="M17141 27069 c-28 -18 -58 -29 -80 -30 -171 -2 -781 -10 -836 -9 -67
0 -107 -11 -93 -26 8 -7 51 -8 168 -5 41 1 108 -5 148 -13 93 -20 145 -20 183
0 28 14 35 14 77 0 25 -9 66 -16 90 -16 25 0 73 -5 108 -11 57 -10 69 -9 137
15 42 14 83 26 91 26 9 0 24 4 34 9 9 5 25 12 35 15 22 7 22 38 -1 59 -16 15
-21 14 -61 -14z"/>
<path d="M15300 27047 c-3 -3 -157 -7 -342 -9 -186 -2 -340 -7 -344 -10 -8 -8
27 -88 38 -88 4 0 8 -7 8 -16 0 -11 12 -5 42 21 23 19 53 38 66 42 23 5 108
-13 127 -28 6 -4 33 -11 60 -14 39 -5 63 -2 109 16 54 20 70 21 179 15 94 -5
136 -3 194 10 59 13 83 14 116 5 23 -6 53 -13 67 -15 14 -2 39 -11 55 -19 17
-8 64 -18 105 -21 l74 -7 36 38 c19 21 44 43 55 49 19 11 19 12 -7 22 -19 8
-82 8 -210 1 -166 -10 -312 -7 -393 7 -17 3 -32 3 -35 1z"/>
<path d="M16333 25653 c-25 -10 -13 -32 20 -35 28 -3 32 -6 29 -28 -1 -14 -6
-92 -11 -175 -8 -130 -7 -152 6 -167 29 -32 26 -35 205 137 20 19 42 35 48 35
7 0 23 9 37 20 14 11 33 20 41 20 9 0 29 12 45 28 24 23 37 27 88 27 59 0 61
1 105 47 65 69 61 75 -48 70 -82 -3 -95 -6 -113 -27 -15 -17 -34 -24 -75 -28
-30 -2 -56 -10 -58 -17 -3 -7 -12 -19 -22 -27 -15 -13 -39 -36 -90 -86 -58
-57 -69 -66 -74 -59 -3 5 -5 49 -4 97 l1 89 -49 43 c-49 42 -57 46 -81 36z"/>
<path d="M14678 25623 c-41 -6 -52 -26 -35 -60 12 -22 27 -31 81 -44 52 -13
73 -15 96 -6 26 10 31 8 50 -16 14 -18 35 -29 61 -33 21 -4 44 -13 50 -20 6
-7 27 -16 48 -20 48 -9 64 -18 136 -78 34 -28 78 -63 98 -79 21 -16 40 -41 45
-60 5 -19 21 -45 36 -60 14 -14 26 -34 26 -45 0 -10 14 -28 30 -40 27 -21 30
-28 30 -80 0 -53 2 -58 33 -78 l32 -21 0 -138 0 -138 -30 -17 c-28 -15 -30
-21 -33 -83 -3 -60 -6 -68 -31 -86 -16 -11 -31 -33 -34 -49 -3 -16 -17 -43
-31 -60 -15 -16 -26 -34 -26 -40 0 -6 -16 -29 -35 -52 -19 -23 -35 -49 -35
-58 0 -31 -45 -72 -100 -93 -30 -11 -75 -28 -100 -37 -25 -10 -59 -27 -74 -40
-16 -12 -35 -22 -42 -22 -25 0 -64 -23 -70 -42 -5 -16 -12 -18 -36 -13 -45 10
-134 -4 -160 -25 -62 -50 74 -72 146 -24 34 23 45 25 89 20 58 -8 218 -86 257
-125 14 -14 43 -40 65 -57 22 -17 63 -52 90 -77 28 -26 55 -47 62 -47 6 0 18
-8 25 -17 7 -10 33 -34 58 -53 25 -19 50 -41 56 -50 7 -8 38 -33 70 -55 33
-21 75 -52 94 -67 19 -16 41 -33 48 -39 20 -16 14 -28 -23 -50 -35 -21 -44
-42 -24 -55 22 -13 161 -5 185 11 13 8 49 22 81 30 72 19 80 27 67 64 -8 21
-8 34 1 52 33 65 39 260 34 1159 -1 157 1 299 5 316 6 26 -3 147 -20 269 -8
57 -45 82 -76 52 -12 -13 -13 -28 -7 -252 0 -16 -5 -113 -11 -215 -7 -102 -11
-212 -11 -245 1 -33 -3 -87 -9 -120 -33 -185 -37 -191 -84 -134 -24 28 -30 30
-65 24 -38 -6 -40 -5 -59 32 -21 40 -114 113 -145 113 -23 0 -31 39 -24 122 4
44 13 81 26 102 19 30 21 50 21 179 0 134 -2 148 -20 165 -11 11 -29 49 -40
87 -11 37 -26 72 -33 79 -8 6 -20 26 -26 45 -6 19 -20 40 -30 48 -11 7 -25 29
-31 48 -7 21 -22 40 -38 47 -24 12 -27 18 -24 53 4 51 22 79 61 95 17 7 31 19
31 27 0 24 -71 7 -96 -23 l-21 -25 -69 22 c-38 12 -80 32 -94 44 -14 12 -49
35 -77 50 -29 16 -53 34 -53 41 0 14 -17 19 -80 27 -19 3 -53 12 -75 20 -43
15 -143 26 -187 20z"/>
<path d="M16185 25616 c-16 -7 -45 -16 -63 -19 -19 -4 -46 -16 -62 -27 -20
-14 -37 -18 -58 -14 -22 4 -47 -2 -93 -24 -85 -40 -112 -46 -151 -33 -31 11
-35 10 -59 -18 -15 -16 -36 -32 -47 -35 -31 -10 -50 -60 -42 -107 4 -22 9 -41
11 -43 58 -42 121 -56 161 -35 28 15 57 5 102 -36 22 -19 46 -35 53 -35 15 0
58 43 74 72 12 23 -16 41 -101 63 -108 29 -127 30 -140 5 -7 -14 -19 -20 -33
-18 -19 3 -22 9 -22 52 l0 50 128 2 129 2 33 32 c27 27 38 31 63 26 23 -6 36
-1 61 20 25 21 38 25 63 20 27 -5 37 -1 70 31 47 46 49 68 7 77 -42 8 -49 7
-84 -8z"/>
<path d="M17128 25614 c-31 -9 -19 -32 34 -69 41 -27 63 -35 98 -35 37 0 52
-6 79 -30 18 -17 47 -38 64 -46 18 -9 40 -23 50 -32 9 -8 41 -27 70 -42 39
-19 57 -35 71 -65 10 -22 33 -57 52 -78 18 -22 40 -59 48 -84 8 -24 29 -62 46
-83 17 -22 31 -47 30 -57 -1 -10 -3 -123 -6 -252 -2 -128 -6 -242 -9 -252 -4
-11 -15 -23 -25 -29 -11 -6 -20 -26 -24 -55 -5 -31 -19 -59 -47 -92 -21 -27
-58 -70 -80 -98 -23 -27 -57 -60 -75 -73 -19 -12 -34 -27 -34 -33 0 -5 -13
-15 -28 -22 -34 -15 -83 -51 -126 -93 -17 -18 -46 -34 -66 -38 -20 -3 -47 -14
-60 -24 -17 -11 -44 -17 -81 -17 -46 0 -61 -5 -88 -28 -18 -15 -43 -30 -57
-33 -29 -8 -31 -32 -3 -42 11 -4 55 -4 97 1 42 6 100 10 127 11 37 1 66 10
115 37 36 20 71 38 79 41 8 2 20 22 26 44 l11 39 62 -2 c34 -1 62 1 62 4 0 4
-8 15 -17 25 -15 17 -15 20 -3 28 8 6 32 10 53 10 30 0 39 5 46 23 5 12 25 42
45 67 20 25 36 48 36 52 0 4 27 45 59 92 61 87 71 113 75 195 2 32 11 60 27
82 22 31 25 47 29 164 6 148 -5 270 -26 302 -8 12 -19 45 -25 73 -6 28 -21 63
-34 78 -13 16 -35 53 -49 83 -32 71 -104 138 -193 183 -39 19 -78 45 -86 56
-7 11 -28 25 -45 31 -17 6 -34 19 -37 30 -12 37 -49 51 -152 54 -54 2 -106 2
-115 -1z"/>
<path d="M21450 25506 c0 -15 10 -32 26 -43 24 -18 27 -26 30 -104 l3 -85 -32
-10 c-25 -7 -32 -15 -32 -34 0 -44 40 -39 89 12 52 52 60 74 51 141 -7 46 -13
58 -59 99 -57 54 -76 59 -76 24z"/>
<path d="M14555 25460 c-11 -5 -37 -9 -58 -9 -36 -1 -38 -3 -35 -28 l3 -28 76
3 c72 3 76 2 87 -22 8 -19 21 -26 57 -31 36 -6 46 -12 51 -30 3 -12 16 -27 30
-34 15 -7 24 -19 24 -34 0 -13 11 -34 24 -47 30 -27 56 -99 56 -151 0 -21 7
-42 16 -49 8 -8 14 -25 12 -39 -3 -23 -8 -26 -44 -29 -33 -2 -47 2 -68 21 -14
13 -26 29 -26 36 0 6 -6 11 -12 11 -19 1 -55 33 -62 57 -4 11 -18 33 -32 48
-19 21 -28 24 -38 16 -10 -9 -15 -8 -19 3 -3 8 -21 14 -48 14 -49 1 -68 16
-74 60 -4 37 -59 139 -89 165 -19 17 -19 17 3 41 36 38 19 49 -63 44 -100 -7
-186 -45 -263 -116 l-62 -57 -10 -83 c-7 -65 -15 -92 -38 -125 l-28 -42 0
-191 c0 -230 2 -234 96 -234 52 0 64 -4 125 -46 37 -26 79 -57 93 -70 149
-134 250 -218 286 -237 17 -8 49 -35 72 -58 23 -24 55 -54 72 -67 50 -38 39
-99 -21 -123 -32 -13 -31 -13 47 -19 96 -6 116 -1 133 34 8 15 25 31 39 37 14
5 39 20 54 32 16 12 42 33 59 46 22 16 29 29 25 42 -4 11 2 25 14 36 12 10 30
26 41 36 16 14 18 22 10 37 -17 31 -11 71 14 105 38 49 46 100 43 256 -3 139
-5 146 -33 194 -23 40 -29 62 -29 108 0 53 -3 60 -33 83 -26 21 -32 32 -32 65
0 35 -7 47 -60 101 -33 34 -60 66 -60 71 0 5 -13 25 -30 44 -16 18 -30 38 -30
42 0 5 -11 12 -25 15 -13 3 -30 16 -36 29 -17 32 -29 37 -74 30 -36 -5 -43 -2
-58 21 -18 27 -37 31 -72 16z"/>
<path d="M19020 25450 c0 -13 14 -27 39 -40 43 -21 141 -114 141 -132 0 -6 -8
-20 -17 -30 -16 -18 -16 -21 2 -55 l19 -35 -23 -19 c-15 -12 -39 -19 -65 -19
-24 0 -87 -7 -141 -15 -73 -11 -110 -12 -143 -4 -25 5 -88 9 -139 8 -146 -4
-155 27 -44 141 29 30 57 64 62 77 5 14 22 26 45 32 20 6 47 20 59 31 13 12
41 24 64 27 45 6 52 17 22 33 -33 17 -106 12 -134 -10 -15 -12 -40 -20 -64
-20 -33 0 -47 -8 -110 -68 -56 -52 -73 -74 -73 -95 0 -15 -3 -27 -8 -27 -4 0
-20 -12 -35 -26 -22 -20 -27 -32 -22 -51 4 -18 -1 -36 -21 -64 -14 -21 -24
-45 -21 -53 11 -29 109 -35 547 -32 481 2 484 3 474 59 -4 17 -13 46 -21 62
-9 17 -19 52 -24 79 -5 31 -18 59 -34 76 -14 14 -25 31 -25 37 0 21 -79 82
-122 94 -24 7 -56 23 -71 36 -38 31 -117 33 -117 3z"/>
<path d="M23066 25421 c-12 -19 13 -59 43 -69 29 -10 30 -12 25 -59 -9 -89 43
-138 72 -68 21 51 10 89 -44 152 -44 51 -82 68 -96 44z"/>
<path d="M16641 25294 c-16 -13 -34 -24 -41 -24 -6 0 -23 -13 -38 -29 -16 -18
-41 -31 -63 -35 -52 -8 -61 -13 -96 -58 l-33 -40 0 -393 c0 -216 -3 -413 -6
-439 -6 -43 -5 -48 28 -78 18 -18 39 -45 46 -60 6 -16 18 -28 27 -28 8 0 22
-11 30 -24 9 -14 29 -29 45 -34 16 -6 34 -20 40 -32 6 -12 27 -28 45 -36 53
-22 99 -18 262 23 15 3 32 -3 53 -21 49 -40 85 -32 169 38 24 20 50 36 58 36
8 0 28 14 43 30 15 17 37 30 48 30 13 0 24 10 30 29 6 16 20 34 31 41 16 8 20
17 15 36 -5 19 1 31 31 59 37 34 38 36 35 97 -3 58 -3 137 0 236 1 20 1 96 1
169 0 135 0 136 -45 167 -10 7 -20 28 -22 47 -6 60 -14 78 -34 84 -21 7 -50
53 -50 78 0 8 -22 24 -50 36 -27 12 -50 26 -50 31 0 20 -34 40 -68 40 -23 0
-44 8 -60 23 -22 21 -33 22 -188 24 -160 1 -165 1 -193 -23z m322 -54 c20 -4
45 -17 55 -29 9 -12 31 -23 48 -25 41 -4 54 -13 54 -36 0 -11 10 -20 25 -24
13 -3 30 -16 36 -29 6 -12 22 -33 35 -47 15 -17 24 -40 26 -70 2 -35 8 -47 26
-55 18 -8 22 -18 22 -57 0 -26 5 -58 11 -72 9 -19 9 -32 0 -53 -9 -23 -8 -41
5 -93 12 -48 15 -86 10 -150 -12 -166 -15 -179 -47 -196 -21 -11 -29 -22 -29
-42 0 -18 -11 -39 -30 -57 -16 -16 -30 -35 -30 -42 0 -7 -13 -19 -30 -28 -16
-8 -34 -24 -39 -34 -7 -12 -27 -21 -56 -25 -24 -4 -51 -14 -59 -22 -19 -19
-40 -18 -57 2 -11 14 -26 15 -86 10 -40 -3 -96 -1 -125 5 -63 13 -64 13 -105
4 -29 -7 -34 -4 -42 18 -6 14 -20 31 -31 37 -12 6 -26 25 -32 40 -5 16 -18 32
-29 35 -29 10 -41 40 -31 79 6 19 8 96 5 173 -2 76 -5 245 -6 377 -2 229 -1
239 18 250 11 6 41 32 68 59 38 38 54 47 82 47 22 0 38 6 41 15 4 8 16 15 28
15 11 1 35 7 51 14 34 16 162 19 218 6z"/>
<path d="M20905 25293 c-8 -12 -29 -30 -45 -38 -32 -16 -41 -51 -16 -61 8 -3
45 11 82 30 82 44 145 49 189 14 21 -16 43 -22 79 -23 71 0 69 23 -4 49 -30
11 -60 26 -66 34 -8 11 -36 15 -108 16 -90 2 -97 0 -111 -21z"/>
<path d="M20760 25110 c-11 -22 -25 -40 -31 -40 -5 0 -17 -16 -25 -35 -11 -28
-14 -105 -14 -410 0 -240 4 -383 10 -396 6 -10 19 -19 30 -19 11 0 24 9 30 19
6 13 10 160 10 409 l0 388 25 22 c24 21 28 30 28 67 0 30 -3 35 -23 35 -13 0
-27 -14 -40 -40z"/>
<path d="M22702 24944 c-30 -33 -31 -37 -17 -57 8 -12 15 -31 15 -43 0 -26 37
-44 91 -44 52 0 63 23 24 54 -26 21 -27 24 -15 60 16 50 8 66 -33 66 -26 0
-41 -8 -65 -36z"/>
<path d="M22075 24783 c-11 -3 -31 -14 -44 -24 -13 -11 -31 -19 -40 -19 -9 0
-28 -13 -43 -30 -16 -19 -36 -30 -52 -30 -29 0 -54 -21 -82 -69 -11 -19 -26
-31 -39 -31 -29 0 -45 -19 -45 -52 0 -37 14 -35 51 7 19 21 44 37 64 41 21 4
50 23 81 55 35 36 56 49 76 49 21 0 32 7 40 25 9 20 18 25 49 25 38 0 73 23
66 44 -4 12 -50 17 -82 9z"/>
<path d="M22334 24742 c-6 -4 -16 -17 -23 -29 -7 -14 -21 -23 -35 -23 -13 0
-31 -9 -40 -19 -10 -10 -33 -22 -52 -26 -24 -4 -38 -13 -44 -30 -5 -13 -18
-28 -29 -34 -12 -7 -22 -26 -26 -50 -4 -26 -13 -41 -25 -44 -33 -9 -51 -59
-43 -127 5 -57 9 -63 34 -72 32 -11 46 -42 28 -64 -14 -17 -12 -20 20 -32 15
-5 28 -22 35 -43 9 -28 17 -34 41 -37 17 -1 36 2 44 7 23 15 -2 58 -43 75 -19
8 -40 24 -46 36 -13 24 -15 93 -5 139 4 20 0 42 -14 68 l-19 39 34 52 c21 30
43 52 53 52 10 0 35 14 56 30 21 17 42 30 47 30 5 0 21 8 35 18 15 9 43 22 62
27 38 11 53 41 29 56 -16 11 -59 11 -74 1z"/>
<path d="M13081 24461 c-12 -12 -21 -27 -21 -35 0 -8 -14 -29 -31 -47 -69 -74
-73 -99 -14 -99 31 0 35 4 46 40 23 75 66 78 71 7 3 -42 3 -42 43 -42 34 0 41
4 43 22 2 14 -4 27 -17 35 -12 7 -21 18 -21 25 0 7 -8 21 -19 32 -10 10 -23
31 -28 47 -12 36 -27 40 -52 15z"/>
<path d="M21660 24403 c-20 -42 -24 -180 -7 -228 11 -32 19 -40 38 -40 22 0
25 5 30 60 7 57 3 165 -7 213 -6 31 -38 28 -54 -5z"/>
<path d="M22761 24279 c-13 -5 -37 -20 -53 -34 -16 -14 -38 -25 -49 -25 -11 0
-42 -21 -69 -46 l-48 -45 -142 -3 c-148 -3 -170 -9 -150 -47 13 -23 50 -28
150 -23 116 7 129 11 140 39 8 20 17 25 43 25 19 0 45 8 58 19 13 10 60 34
104 53 73 32 80 38 83 67 3 27 0 31 -20 30 -13 0 -34 -5 -47 -10z"/>
<path d="M12885 24250 c-10 -11 -24 -20 -31 -20 -7 0 -25 -11 -40 -25 -15 -14
-38 -28 -51 -32 -14 -3 -28 -15 -33 -28 -8 -21 -16 -22 -145 -28 -137 -7 -187
-19 -166 -40 14 -14 199 -27 252 -17 22 4 46 16 54 27 7 11 27 20 47 21 23 2
40 12 56 32 13 17 28 30 33 30 16 0 79 68 79 85 0 21 -34 19 -55 -5z"/>
<path d="M11517 24242 c-9 -10 -22 -34 -29 -52 -10 -30 -9 -35 8 -44 10 -6 33
-26 50 -44 45 -47 84 -55 173 -34 l75 17 -85 24 c-111 32 -116 35 -130 81 -7
22 -20 47 -29 55 -15 14 -18 13 -33 -3z"/>
<path d="M23212 24248 c-7 -7 -12 -38 -12 -69 0 -53 2 -59 40 -93 42 -38 50
-40 124 -30 42 6 46 9 46 34 0 33 -14 40 -80 40 -52 0 -51 0 -65 66 -8 41 -36
69 -53 52z"/>
<path d="M13688 24178 c-3 -7 -2 -20 1 -29 8 -23 89 -89 108 -89 9 0 31 -14
51 -31 20 -18 54 -40 76 -51 23 -11 59 -32 81 -48 35 -26 105 -42 105 -24 0
23 -28 45 -75 59 -46 13 -57 21 -68 48 -19 45 -42 60 -87 59 -33 -2 -41 2 -52
25 -7 15 -23 30 -36 33 -12 3 -28 16 -35 30 -14 28 -61 40 -69 18z"/>
<path d="M14137 24166 c-13 -34 140 -146 199 -146 8 0 24 -11 36 -25 24 -28
50 -32 68 -10 25 30 8 49 -54 62 -49 9 -65 18 -95 52 -61 68 -141 102 -154 67z"/>
<path d="M22718 24096 c-13 -13 -39 -29 -58 -35 -32 -11 -90 -53 -90 -66 0
-12 32 -3 96 25 78 36 101 35 123 -1 27 -45 74 -103 114 -140 42 -40 67 -41
92 -6 21 30 3 57 -40 57 -28 0 -37 6 -50 30 -8 16 -15 42 -15 57 0 20 -12 40
-38 66 -47 46 -98 51 -134 13z"/>
<path d="M21735 24069 c-4 -5 -4 -21 -1 -34 5 -18 15 -26 40 -30 24 -5 42 -18
64 -50 16 -23 45 -50 63 -60 108 -57 107 -57 153 -50 25 4 46 11 46 17 0 5
-11 20 -25 33 -24 25 -38 28 -124 29 -41 1 -45 3 -53 33 -6 24 -16 34 -43 43
-21 7 -41 23 -50 40 -19 36 -56 52 -70 29z"/>
<path d="M19386 23964 c-9 -8 -16 -21 -16 -28 0 -9 -28 -15 -100 -19 -103 -5
-130 -15 -130 -48 0 -40 107 -33 186 12 19 10 48 19 64 19 33 0 66 39 56 65
-7 20 -40 19 -60 -1z"/>
</g>
</svg>
