<?xml version="1.0" standalone="no"?>
<!DOCTYPE svg PUBLIC "-//W3C//DTD SVG 20010904//EN"
 "http://www.w3.org/TR/2001/REC-SVG-20010904/DTD/svg10.dtd">
<svg version="1.0" xmlns="http://www.w3.org/2000/svg"
 width="2641.000000pt" height="2249.000000pt" viewBox="0 0 2641.000000 2249.000000"
 preserveAspectRatio="xMidYMid meet">
<metadata>
Created by potrace 1.16, written by Peter Selinger 2001-2019
</metadata>
<g transform="translate(0.000000,2249.000000) scale(0.100000,-0.100000)"
fill="#FFFFFF" stroke="none">
<path d="M10200 19701 c0 -5 -7 -17 -16 -25 -12 -13 -40 -16 -135 -16 -120 0
-159 -8 -159 -35 0 -23 18 -27 77 -15 74 16 203 -4 211 -32 6 -23 83 -25 102
-3 16 19 7 31 -35 45 -41 14 -42 16 -14 46 12 12 18 27 14 33 -8 13 -45 15
-45 2z"/>
<path d="M16461 19553 c-15 -11 -14 -13 1 -29 15 -15 39 -18 155 -19 127 -1
163 4 163 25 0 18 -64 29 -179 32 -84 2 -129 -1 -140 -9z"/>
<path d="M17103 19550 c-13 -5 -23 -14 -23 -19 0 -21 39 -28 155 -26 127 3
188 16 166 38 -15 15 -265 21 -298 7z"/>
<path d="M9102 19248 c-16 -16 -15 -33 3 -48 19 -16 20 -50 1 -50 -7 0 -38 11
-68 24 -57 25 -93 22 -65 -6 44 -44 155 -107 197 -112 25 -3 58 -9 73 -12 24
-6 34 -1 58 25 26 29 34 32 76 29 40 -2 49 -7 51 -24 2 -15 -3 -23 -17 -27
-25 -6 -38 -34 -23 -49 15 -15 46 -2 57 24 6 12 21 25 35 28 34 8 37 40 5 70
-20 19 -39 25 -88 27 -65 4 -78 -1 -140 -50 -33 -27 -38 -28 -76 -16 -60 18
-64 46 -9 73 35 18 34 44 -4 77 -37 31 -48 35 -66 17z"/>
<path d="M15567 18837 c-8 -13 -17 -37 -19 -53 -2 -16 -8 -28 -14 -27 -7 1
-14 -7 -17 -17 -3 -11 -1 -18 4 -14 5 3 9 -6 9 -20 0 -31 17 -70 52 -119 15
-21 30 -53 33 -70 14 -64 54 -77 80 -27 9 17 19 30 23 30 5 0 24 21 42 48 30
41 34 54 33 100 -1 33 -9 64 -20 79 -10 14 -22 33 -28 41 -19 31 -50 51 -85
57 -19 3 -45 8 -56 10 -15 3 -27 -3 -37 -18z"/>
<path d="M16310 18302 c-44 -5 -70 -24 -70 -49 0 -13 -7 -35 -17 -49 -15 -23
-15 -28 -1 -57 8 -18 19 -48 23 -67 8 -40 23 -62 36 -54 5 3 9 0 9 -6 0 -15
48 18 61 42 17 31 2 75 -31 88 -40 16 -57 37 -42 52 8 8 19 6 39 -8 40 -26 54
-26 79 2 l23 24 -22 34 c-25 39 -51 53 -87 48z"/>
<path d="M8570 18237 c0 -7 29 -39 65 -72 84 -75 95 -83 130 -87 19 -2 34 -12
45 -33 19 -34 51 -43 69 -21 18 22 7 44 -26 52 -40 8 -91 36 -115 62 -12 12
-26 22 -32 22 -6 0 -19 9 -31 20 -20 20 -92 70 -100 70 -3 0 -5 -6 -5 -13z"/>
<path d="M18875 18172 c-128 -73 -134 -87 -36 -78 102 10 136 -12 124 -78 -3
-16 -17 -33 -34 -41 -16 -9 -33 -24 -38 -34 -6 -10 -24 -21 -41 -24 -31 -7
-39 -24 -18 -45 18 -18 43 -15 64 9 10 12 29 25 42 30 12 5 27 20 32 33 5 14
18 30 30 36 25 13 27 67 5 110 -12 23 -23 29 -52 32 -36 3 -38 5 -35 36 2 37
-1 38 -43 14z"/>
<path d="M16567 18043 c-12 -11 -8 -49 7 -79 13 -23 13 -31 2 -53 -17 -32 1
-91 43 -139 38 -43 66 -48 87 -17 16 25 16 31 -3 156 -3 22 0 39 6 43 25 16 7
35 -59 65 -78 35 -74 33 -83 24z"/>
<path d="M18803 17602 c-32 -5 -31 -45 1 -60 16 -7 27 -23 33 -48 6 -29 15
-40 33 -44 15 -4 27 -15 30 -30 7 -29 36 -29 60 -2 8 9 27 23 43 29 29 14 37
47 12 57 -22 8 -41 -2 -54 -30 -8 -18 -18 -24 -34 -22 -17 2 -22 10 -23 36 -1
23 -10 42 -30 61 -16 15 -33 34 -39 42 -6 8 -20 13 -32 11z"/>
<path d="M8016 17584 c-13 -13 -16 -42 -16 -165 0 -139 1 -149 19 -149 37 0
45 26 43 137 -2 60 2 120 9 140 9 29 9 37 -2 44 -21 13 -36 11 -53 -7z"/>
<path d="M19166 17584 c-9 -8 -16 -25 -16 -37 0 -12 -9 -35 -20 -52 -33 -50
-21 -95 25 -95 43 0 57 22 63 98 6 91 -14 124 -52 86z"/>
<path d="M17150 17576 c-5 -5 -10 -19 -10 -29 0 -10 -10 -32 -21 -49 -25 -34
-22 -77 12 -154 32 -76 56 -83 89 -27 25 43 24 111 -2 137 -17 17 -13 63 9 84
25 26 12 43 -38 46 -16 1 -33 -2 -39 -8z"/>
<path d="M14750 17004 c-118 -7 -222 -11 -231 -8 -36 10 -565 12 -606 2 -23
-5 -51 -20 -62 -32 -22 -24 -71 -138 -71 -167 0 -22 27 -28 81 -18 175 31 189
32 249 21 62 -11 120 -43 120 -67 0 -19 -67 -75 -90 -75 -10 0 -31 -5 -47 -11
l-28 -12 43 -19 c29 -13 42 -25 42 -39 0 -11 9 -38 20 -60 15 -28 20 -57 19
-102 0 -34 1 -231 3 -437 3 -243 0 -442 -9 -565 -17 -247 -16 -310 3 -436 9
-57 17 -163 16 -236 0 -146 -5 -162 -75 -208 -57 -38 -167 -59 -182 -35 -11
18 -61 11 -83 -13 -12 -13 -22 -26 -22 -30 0 -3 -11 -18 -25 -33 -13 -14 -46
-60 -72 -101 -27 -42 -62 -91 -79 -111 l-31 -35 -184 -9 c-101 -4 -251 -12
-334 -17 -98 -6 -202 -6 -300 1 -83 6 -271 8 -420 5 -148 -3 -409 -2 -580 3
-285 7 -317 7 -400 -11 -49 -10 -111 -19 -136 -19 -28 0 -51 -6 -58 -14 -19
-22 3 -29 80 -27 38 1 105 -5 150 -14 68 -14 89 -15 128 -5 29 8 159 14 361
16 259 4 333 1 415 -12 105 -18 146 -16 460 22 96 11 142 12 230 3 60 -6 143
-9 183 -5 47 4 108 0 170 -10 116 -19 204 -12 265 20 23 13 55 26 71 30 34 8
71 40 91 76 7 14 24 31 37 37 12 6 57 27 99 47 41 20 91 36 110 36 19 0 50 5
69 10 148 43 237 55 410 54 96 -1 236 -8 310 -17 155 -17 779 -16 942 2 51 6
180 13 287 17 131 4 205 11 228 20 36 15 73 65 73 99 0 11 11 38 24 60 14 22
48 87 76 145 34 68 68 122 98 152 56 57 102 139 95 169 -10 35 -43 43 -135 30
-150 -22 -163 -28 -190 -77 -12 -24 -26 -44 -30 -44 -4 0 -19 -21 -34 -47 -15
-27 -41 -67 -56 -91 -16 -23 -35 -59 -42 -79 -11 -34 -20 -40 -77 -62 -35 -13
-89 -30 -119 -37 -180 -44 -196 -46 -435 -50 -132 -2 -311 -6 -397 -9 -115 -4
-171 -1 -210 9 -52 13 -63 12 -199 -9 -56 -9 -110 13 -128 51 -14 32 -16 2010
-2 2045 6 13 18 33 28 44 26 30 140 83 193 90 89 13 245 48 270 61 26 13 100
80 100 90 0 13 -47 44 -75 48 -75 12 -196 12 -395 0z"/>
<path d="M11072 16995 c-15 -5 -41 -19 -59 -29 -29 -18 -32 -25 -38 -89 -6
-62 -5 -72 11 -84 23 -17 62 -16 149 2 128 27 220 14 258 -36 36 -49 -8 -89
-98 -89 -50 0 -95 -14 -95 -30 0 -6 20 -32 45 -58 25 -26 45 -52 45 -60 0 -7
11 -17 24 -24 35 -15 40 -31 42 -138 2 -101 7 -151 24 -215 12 -48 11 -241 -1
-293 -5 -20 -8 -190 -7 -377 1 -187 2 -385 2 -440 1 -118 -19 -423 -29 -446
-8 -22 -81 -73 -124 -87 -19 -7 -49 -12 -68 -12 -43 0 -79 -19 -122 -64 -31
-32 -33 -38 -27 -77 11 -71 22 -82 68 -75 22 4 61 16 87 28 25 11 87 26 136
33 50 7 119 23 155 35 59 22 82 24 260 24 123 0 223 -5 270 -14 109 -20 718
-22 965 -3 105 7 269 17 365 22 118 5 185 12 204 22 33 16 60 58 71 110 4 19
16 52 27 73 11 22 33 77 48 123 29 85 56 125 135 195 37 33 55 68 59 113 1 6
4 12 8 15 3 3 -22 5 -55 6 -34 0 -89 4 -122 8 l-60 7 -37 -43 c-61 -70 -108
-132 -114 -150 -4 -10 -15 -18 -25 -18 -10 0 -27 -12 -36 -27 -10 -16 -31 -39
-48 -53 -16 -14 -50 -46 -76 -71 -82 -82 -192 -118 -355 -119 -33 0 -85 -4
-115 -10 -90 -16 -570 -19 -678 -3 -72 10 -109 10 -156 2 -46 -8 -73 -7 -105
1 -73 20 -100 63 -92 145 2 11 2 185 2 386 -1 229 3 381 9 405 10 38 19 46
100 94 39 22 915 26 1009 5 69 -16 202 -94 202 -119 0 -29 -13 -46 -49 -67
-52 -29 -73 -67 -65 -118 10 -65 33 -81 113 -81 93 0 111 17 111 104 0 34 -7
84 -16 109 -13 39 -14 58 -5 110 6 35 11 93 11 128 0 35 7 95 15 134 8 38 15
79 15 90 0 11 13 33 29 48 47 44 111 146 111 178 0 34 -10 41 -80 55 -48 10
-64 9 -120 -8 -81 -25 -86 -29 -93 -78 -3 -27 -17 -53 -41 -80 -19 -21 -41
-51 -49 -67 -13 -25 -23 -30 -91 -40 -47 -8 -96 -23 -129 -42 -74 -41 -158
-55 -239 -40 -35 7 -88 11 -118 10 -254 -9 -259 -8 -327 52 -30 27 -62 16 -97
-34 -16 -23 -44 -48 -63 -56 -33 -13 -38 -12 -81 9 -34 17 -48 31 -54 53 -5
17 -8 149 -7 295 2 146 1 322 0 392 l-3 127 38 35 c21 19 66 46 99 58 60 23
62 23 560 22 539 -2 612 -7 726 -51 81 -32 119 -62 119 -95 0 -26 -39 -70 -87
-99 -43 -25 -42 -49 5 -97 20 -22 45 -49 54 -61 11 -13 29 -21 49 -21 41 0
114 44 139 84 l20 33 -25 55 c-45 99 -26 219 43 264 58 38 71 57 78 114 5 50
4 56 -18 70 -20 13 -177 15 -1256 15 -796 0 -1242 -4 -1260 -10z"/>
<path d="M14963 16683 c-49 -7 -73 -44 -73 -113 0 -95 42 -106 93 -25 30 46
36 50 122 59 27 4 64 16 82 29 28 19 30 24 18 36 -14 14 -175 24 -242 14z"/>
<path d="M12101 16605 c-78 -26 -104 -71 -62 -109 22 -20 44 -18 154 16 l67
21 59 -22 c72 -26 126 -27 191 -1 56 22 152 28 371 21 114 -4 139 -2 159 12
17 11 27 13 36 6 8 -7 14 -6 19 2 10 16 -11 27 -68 34 -30 5 -59 2 -78 -5 -24
-11 -41 -10 -87 1 -53 12 -141 17 -487 23 -77 2 -160 6 -185 9 -28 4 -62 1
-89 -8z"/>
<path d="M18853 16196 c7 -69 24 -96 60 -96 30 0 44 -20 31 -47 -24 -54 -2
-89 44 -72 15 6 22 17 22 34 0 13 5 45 12 69 15 57 -6 96 -52 96 -21 0 -39 10
-61 35 -48 52 -63 47 -56 -19z"/>
<path d="M12117 15430 c-15 -12 -34 -19 -42 -16 -9 3 -21 -4 -31 -19 -14 -21
-14 -31 -3 -75 12 -47 32 -65 41 -38 3 8 9 5 16 -9 15 -26 5 -54 -16 -51 -9 2
-18 -5 -20 -16 -3 -14 0 -17 12 -13 10 4 20 -1 26 -12 9 -18 13 -18 60 -6 63
17 80 30 80 64 0 56 59 102 121 96 20 -2 60 -11 88 -21 41 -13 70 -15 131 -10
79 6 150 28 150 46 0 5 6 7 14 4 7 -3 16 2 19 10 4 11 1 13 -11 9 -9 -3 -14
-3 -10 2 15 16 -15 35 -52 35 -21 0 -66 9 -100 19 l-62 19 -64 -24 c-79 -29
-104 -30 -180 -3 -90 33 -134 35 -167 9z"/>
<path d="M23345 14711 c-34 -17 -115 -102 -115 -118 0 -6 12 -18 26 -28 14 -9
32 -32 40 -51 15 -36 34 -43 54 -19 17 20 5 62 -20 70 -29 9 -25 30 20 86 37
47 51 81 33 78 -5 -1 -22 -9 -38 -18z"/>
<path d="M16686 14564 c-3 -9 -6 -29 -6 -45 0 -17 -5 -39 -10 -49 -6 -10 -11
-32 -12 -47 0 -15 -7 -49 -15 -74 -12 -39 -20 -48 -43 -53 -16 -3 -33 -11 -39
-18 -57 -72 -79 -90 -146 -112 -64 -21 -80 -22 -175 -15 -58 4 -208 8 -335 7
-126 0 -534 0 -905 1 -647 0 -834 -6 -921 -29 -35 -10 -39 -13 -28 -27 12 -13
39 -14 219 -8 113 3 210 6 215 5 45 -7 323 -13 700 -15 260 -1 479 -7 518 -13
45 -7 89 -7 135 -1 37 6 119 10 182 10 63 0 144 6 180 14 36 7 72 13 80 13 42
-3 70 4 85 19 13 13 19 13 25 3 12 -19 155 -10 172 11 7 9 30 28 50 43 21 16
39 39 43 56 3 16 18 40 32 54 21 21 24 32 19 59 -4 22 -1 40 10 55 11 16 14
34 10 56 -5 23 -2 37 9 46 22 18 19 35 -10 54 -30 20 -31 20 -39 0z"/>
<path d="M22275 14440 c-4 -6 7 -13 25 -16 23 -5 36 -17 51 -45 11 -22 24 -39
29 -39 5 0 16 -13 25 -30 8 -16 28 -36 43 -44 15 -8 45 -33 67 -55 42 -43 75
-53 75 -23 0 23 -9 34 -50 62 -51 35 -130 118 -130 138 0 27 -12 37 -56 50
-50 15 -71 15 -79 2z"/>
<path d="M23483 14201 c-28 -26 -29 -29 -11 -40 21 -13 24 -41 6 -59 -20 -20
-75 -15 -81 8 -6 23 -51 43 -79 34 -14 -4 -18 -13 -16 -32 3 -25 7 -27 54 -30
42 -2 53 -7 64 -27 15 -28 41 -32 60 -10 20 24 53 18 82 -17 22 -27 33 -33 67
-33 88 0 79 53 -13 71 -100 20 -124 70 -53 110 36 20 37 22 22 38 -25 25 -68
20 -102 -13z"/>
<path d="M8410 14049 c-16 -30 -19 -132 -4 -161 8 -15 14 -41 14 -58 0 -16 5
-30 10 -30 6 0 10 4 10 9 0 5 7 11 16 13 11 2 18 16 21 37 2 19 8 38 14 41 15
10 9 131 -8 137 -7 3 -13 11 -13 19 0 19 -49 14 -60 -7z"/>
<path d="M3396 13921 c-6 -9 57 -71 72 -71 4 0 31 -23 61 -50 30 -28 58 -50
62 -50 4 0 16 -16 28 -35 25 -43 51 -47 51 -7 -1 21 -18 43 -86 102 -131 115
-171 139 -188 111z"/>
<path d="M2502 13711 c-6 -3 -13 -19 -16 -34 -9 -50 -10 -50 -159 -45 l-141 5
-29 -28 c-16 -16 -39 -32 -53 -35 -30 -8 -40 -22 -20 -30 8 -3 28 4 44 16 25
19 46 22 182 27 136 6 158 9 196 30 23 13 45 31 48 39 12 30 -26 71 -52 55z"/>
<path d="M1968 13662 c-20 -15 -58 -50 -86 -77 -29 -28 -59 -56 -67 -63 -9 -8
-15 -21 -13 -30 5 -25 41 -21 53 6 5 12 13 22 16 22 8 0 84 60 114 90 12 11
25 20 31 20 17 0 47 38 39 49 -11 19 -52 12 -87 -17z"/>
<path d="M3622 13588 c-7 -7 -12 -18 -12 -25 0 -23 -52 -35 -140 -31 -98 3
-120 -4 -94 -33 15 -16 29 -18 117 -15 84 2 102 6 116 23 9 10 28 24 44 31 32
14 35 37 8 52 -24 13 -24 13 -39 -2z"/>
<path d="M2970 13316 c-8 -9 -28 -27 -45 -40 l-30 -24 0 -111 c0 -108 0 -111
22 -111 32 0 51 33 46 83 -2 23 -9 46 -14 52 -12 12 -12 48 0 61 5 5 11 18 13
29 7 46 34 54 92 30 33 -14 37 -14 43 0 8 24 -6 33 -62 40 -39 5 -53 3 -65 -9z"/>
<path d="M1690 13305 c-16 -19 -25 -178 -13 -225 12 -45 39 -51 54 -13 16 41
6 220 -13 239 -13 13 -16 13 -28 -1z"/>
<path d="M6425 13115 c-27 -9 -79 -20 -115 -25 -36 -5 -79 -14 -95 -20 -16 -6
-65 -13 -109 -16 -95 -7 -121 -15 -198 -66 -31 -21 -70 -43 -85 -50 -15 -7
-55 -29 -89 -50 -34 -21 -66 -38 -72 -38 -7 0 -19 -11 -27 -24 -9 -13 -49 -40
-91 -60 -51 -24 -77 -43 -84 -60 -5 -13 -14 -27 -20 -31 -6 -3 -25 -35 -42
-71 -23 -48 -44 -74 -85 -105 -39 -29 -61 -56 -80 -95 -14 -30 -35 -62 -47
-72 -12 -9 -37 -46 -56 -81 -19 -35 -45 -70 -59 -79 -15 -9 -29 -20 -32 -25
-10 -14 -10 -668 0 -722 6 -27 13 -84 16 -125 5 -58 15 -93 46 -156 21 -45 39
-85 39 -90 0 -4 33 -39 73 -79 39 -39 77 -77 82 -83 20 -24 75 -72 83 -72 4 0
28 -20 53 -45 24 -24 48 -45 53 -45 6 0 19 -9 30 -19 19 -18 212 -101 234
-101 5 0 15 -6 21 -14 7 -8 38 -26 69 -42 31 -15 71 -40 89 -55 17 -15 58 -35
90 -44 79 -23 121 -46 168 -93 58 -57 88 -100 89 -129 1 -25 24 -43 106 -78
19 -9 56 -30 81 -48 65 -45 140 -85 239 -128 246 -106 333 -141 401 -159 41
-11 106 -29 144 -40 39 -11 104 -27 145 -36 41 -8 102 -22 135 -29 119 -28
224 -38 435 -39 228 -1 291 8 310 44 15 28 12 62 -10 90 -18 24 -24 25 -137
28 -84 2 -147 9 -219 27 -56 14 -117 25 -136 25 -45 0 -98 18 -121 41 -27 29
-74 50 -140 63 -50 10 -64 18 -77 41 -9 17 -30 33 -50 39 -60 19 -77 32 -64
53 16 27 59 44 133 54 89 11 133 31 189 86 26 25 66 54 89 64 26 11 48 29 58
48 11 22 27 33 57 42 61 16 116 50 123 76 3 12 14 25 25 28 11 3 20 11 20 16
0 5 17 28 39 52 21 23 42 52 45 65 4 12 25 36 47 54 21 17 39 37 39 43 0 6 11
22 25 35 28 26 45 76 45 133 0 25 5 37 14 37 7 0 16 11 18 25 4 17 1 25 -8 25
-8 0 -14 -4 -14 -10 0 -16 -43 -50 -63 -50 -28 0 -86 -68 -93 -109 -6 -28 -27
-55 -93 -119 -47 -46 -97 -91 -111 -100 -14 -9 -47 -35 -75 -58 -27 -22 -58
-44 -69 -47 -19 -7 -55 -34 -108 -79 -17 -15 -60 -41 -95 -58 -35 -16 -66 -36
-69 -45 -7 -18 -93 -51 -158 -60 -28 -5 -60 -18 -77 -33 -25 -21 -46 -26 -122
-33 -99 -9 -151 -1 -173 28 -37 50 8 122 91 147 28 8 82 26 120 41 39 14 89
33 112 41 24 8 69 32 102 54 33 22 65 40 70 40 6 0 25 13 43 29 18 15 50 36
70 46 21 9 57 39 80 66 24 27 93 101 155 166 94 98 115 126 134 177 12 34 36
88 54 121 18 33 40 85 48 115 40 142 55 436 37 714 -11 164 -11 212 -1 247 24
84 25 106 2 125 -12 10 -21 24 -21 30 0 25 -32 70 -102 143 -40 42 -84 91 -97
109 -13 18 -29 32 -36 32 -6 0 -27 16 -46 36 -18 20 -51 47 -71 60 -21 13 -38
31 -38 39 0 15 -60 65 -79 65 -7 0 -24 12 -39 27 -45 45 -301 129 -467 153
-44 7 -85 16 -91 21 -20 16 -155 39 -223 38 -36 -1 -115 1 -176 5 -84 4 -122
2 -160 -9z m470 -221 c50 -8 104 -24 121 -35 17 -10 39 -19 49 -19 23 0 114
-47 192 -98 95 -64 152 -167 137 -248 -7 -40 18 -133 47 -176 11 -14 19 -29
19 -32 0 -3 11 -16 25 -30 26 -26 28 -32 44 -149 6 -42 17 -87 25 -100 8 -12
22 -66 32 -120 18 -108 15 -258 -8 -499 -11 -108 -16 -130 -36 -151 -12 -13
-20 -26 -17 -29 3 -3 -1 -11 -10 -18 -8 -7 -15 -21 -15 -31 0 -10 -4 -20 -9
-23 -5 -3 -12 -23 -15 -43 -4 -21 -20 -57 -37 -80 -16 -23 -29 -48 -29 -56 0
-8 -11 -23 -25 -33 -13 -10 -31 -34 -39 -54 -8 -19 -36 -58 -64 -86 -27 -28
-57 -62 -66 -75 -9 -15 -37 -33 -68 -43 -29 -10 -57 -23 -63 -27 -5 -5 -17 -9
-26 -9 -10 0 -30 -11 -45 -25 -27 -25 -37 -29 -99 -39 -16 -2 -49 -10 -72 -17
-36 -11 -47 -10 -82 6 -49 21 -103 22 -134 0 -24 -17 -78 -20 -92 -6 -6 5 -48
15 -95 21 -117 16 -364 102 -408 142 -79 72 -86 84 -77 151 4 29 11 57 15 62
14 17 18 105 5 121 -6 9 -20 15 -31 13 -23 -5 -32 -61 -13 -95 16 -30 5 -54
-25 -54 -131 0 -205 69 -328 303 -21 40 -38 78 -38 86 0 7 -15 59 -32 115
l-33 101 1 210 c1 185 3 217 22 270 11 33 30 92 42 130 12 39 25 79 30 90 5
11 12 31 16 45 3 14 21 48 39 75 17 28 35 58 38 69 11 29 77 108 120 144 22
18 71 67 109 109 71 81 95 94 303 174 28 11 61 26 75 33 22 12 48 19 155 40
59 11 387 5 470 -10z"/>
<path d="M6480 12725 c-89 -12 -199 -50 -214 -74 -4 -5 -29 -17 -57 -26 -34
-12 -64 -31 -91 -61 -22 -24 -47 -44 -54 -44 -22 0 -91 -53 -103 -78 -6 -13
-11 -31 -11 -41 0 -9 -14 -55 -31 -101 -18 -50 -28 -95 -25 -110 2 -14 0 -43
-7 -64 -9 -31 -8 -41 1 -44 7 -2 12 -10 12 -18 0 -8 5 -14 10 -14 6 0 10 4 10
8 0 4 13 15 29 25 27 16 29 22 28 71 -1 44 4 60 26 89 15 20 27 45 27 56 0 13
11 26 29 36 33 17 63 54 55 67 -10 15 19 40 75 65 30 14 67 34 81 46 14 12 57
38 94 57 72 36 84 38 213 25 44 -5 77 -2 110 9 69 22 144 30 185 18 38 -10 54
-5 53 17 0 22 -54 32 -99 20 -22 -6 -54 -8 -72 -5 -34 7 -53 34 -32 47 18 11
5 20 -44 30 -55 10 -81 10 -198 -6z"/>
<path d="M5832 11910 c-6 -11 -12 -36 -12 -55 0 -20 -9 -53 -20 -75 -39 -76
-7 -330 42 -330 9 0 19 9 23 19 3 11 12 22 20 25 8 3 15 14 15 25 0 11 5 23
11 26 13 8 10 217 -3 260 -6 16 -17 46 -26 65 -8 19 -15 41 -15 48 0 19 -21
14 -35 -8z"/>
<path d="M20845 13095 c-38 -8 -117 -21 -174 -30 -57 -9 -138 -27 -180 -40
-42 -13 -96 -29 -121 -35 -25 -6 -84 -31 -132 -56 -47 -24 -91 -44 -97 -44
-20 0 -90 -52 -96 -71 -3 -10 -27 -31 -52 -46 -25 -15 -65 -47 -87 -71 -23
-24 -53 -49 -66 -55 -14 -7 -29 -21 -35 -32 -6 -11 -32 -42 -57 -70 -26 -27
-66 -86 -88 -130 -23 -44 -54 -91 -68 -104 -57 -51 -73 -83 -66 -127 4 -28 1
-51 -10 -72 -24 -47 -66 -236 -77 -354 -12 -118 -1 -273 25 -350 9 -24 20 -68
27 -98 6 -30 25 -79 40 -109 16 -30 29 -60 29 -67 0 -11 32 -80 98 -209 22
-44 60 -82 96 -96 17 -7 41 -21 53 -32 23 -21 34 -28 102 -65 22 -12 41 -26
41 -31 0 -10 98 -66 134 -77 11 -3 28 -12 36 -19 78 -68 491 -224 646 -245 45
-6 95 -15 113 -20 17 -5 85 -12 149 -15 108 -6 128 -4 252 24 74 17 171 42
214 56 43 14 86 25 95 26 33 1 171 65 208 97 67 57 96 78 168 117 64 35 224
177 225 199 0 4 27 53 60 108 33 54 60 101 60 103 0 3 20 47 44 98 105 224
134 396 117 707 -12 222 -25 325 -50 382 -21 52 -38 116 -46 181 -5 41 -15 58
-61 108 -30 32 -54 66 -54 75 0 20 -127 140 -165 155 -16 7 -46 25 -66 41 -20
15 -41 28 -45 28 -5 1 -40 21 -79 45 -67 43 -155 88 -258 134 -48 20 -160 44
-267 56 -30 3 -82 12 -115 20 -87 20 -334 26 -420 10z m490 -208 c28 -8 68
-24 90 -36 22 -11 47 -21 55 -21 8 -1 66 -27 129 -58 l115 -57 33 -65 c35 -67
38 -103 18 -184 -6 -22 -4 -31 9 -38 9 -5 16 -17 16 -27 0 -18 44 -73 65 -82
27 -11 87 -119 94 -170 5 -30 15 -70 24 -89 8 -19 18 -64 21 -100 4 -36 14
-101 21 -145 17 -93 14 -296 -5 -395 -7 -36 -28 -104 -46 -153 -19 -48 -34
-97 -34 -110 0 -12 -13 -49 -28 -82 -16 -33 -32 -72 -35 -87 -4 -15 -16 -32
-26 -38 -20 -10 -62 -68 -96 -132 -11 -21 -23 -38 -27 -38 -5 0 -33 -25 -63
-55 -31 -30 -63 -55 -71 -55 -9 0 -34 -11 -57 -24 -23 -13 -56 -27 -74 -31
-17 -3 -37 -13 -44 -21 -33 -39 -259 -69 -459 -61 -157 7 -261 28 -304 61 -17
12 -45 26 -62 29 -18 3 -49 18 -69 32 -21 14 -43 25 -49 25 -6 0 -41 29 -78
64 -65 61 -150 126 -167 126 -17 0 -99 72 -104 91 -3 11 -15 23 -26 26 -24 6
-45 36 -55 78 -7 28 -24 69 -66 160 -22 47 -64 195 -79 279 -21 114 -7 437 23
536 34 113 70 218 107 315 39 99 40 101 153 210 154 149 181 170 263 203 39
15 78 34 86 41 14 11 53 27 159 67 64 24 187 33 393 29 133 -2 217 -8 250 -18z"/>
<path d="M20867 12704 c-3 -3 -35 -9 -71 -14 -47 -6 -80 -17 -115 -39 -26 -17
-60 -31 -74 -31 -28 0 -71 -37 -82 -69 -3 -11 -32 -35 -64 -52 -40 -22 -64
-43 -77 -68 -10 -20 -31 -55 -46 -77 -16 -23 -28 -49 -28 -57 0 -9 -9 -32 -21
-52 -27 -45 -20 -68 18 -59 34 9 54 33 49 57 -4 17 25 52 43 52 15 0 96 90
122 135 19 34 39 51 86 75 54 27 100 59 144 100 8 8 46 19 83 24 73 10 121 34
112 56 -3 8 0 16 7 19 7 2 -9 5 -34 5 -25 1 -48 -2 -52 -5z"/>
<path d="M15545 13079 c-22 -5 -62 -10 -89 -13 -62 -7 -154 -59 -167 -95 -15
-37 -3 -93 23 -113 24 -18 44 -17 135 9 28 7 84 14 125 15 60 1 82 -4 124 -25
57 -29 83 -71 65 -103 -47 -88 -55 -115 -42 -147 33 -82 38 -176 35 -690 -2
-525 -6 -598 -30 -618 -17 -14 -42 -6 -51 16 -11 29 -76 95 -118 120 -23 13
-50 37 -60 52 -10 15 -24 32 -32 36 -14 8 -108 125 -135 167 -8 14 -19 44 -23
67 -7 44 -39 72 -113 99 -19 7 -34 14 -35 16 -2 1 -12 24 -25 51 -12 26 -28
47 -36 47 -8 0 -37 22 -64 49 -28 27 -61 52 -74 56 -28 9 -40 25 -72 90 -22
45 -74 105 -91 105 -3 0 -21 11 -38 24 -18 13 -44 26 -59 30 -16 3 -28 10 -28
14 0 4 -27 36 -60 72 -33 36 -60 71 -60 78 0 8 -59 73 -130 145 -72 73 -141
143 -155 157 -13 14 -31 41 -39 61 -8 19 -22 42 -31 49 -19 16 -46 65 -39 72
14 15 -263 98 -326 98 -20 0 -42 -6 -48 -12 -9 -9 -40 -12 -95 -11 -45 1 -136
2 -202 1 -66 -1 -151 -1 -190 -1 -38 0 -137 0 -220 0 -82 0 -175 1 -205 1 -30
1 -282 3 -560 6 -278 2 -514 6 -525 9 -11 2 -46 -6 -78 -18 l-58 -21 -102 20
c-99 21 -161 23 -240 10 -25 -4 -44 -1 -61 9 -25 17 -42 16 -121 -3 -31 -7
-157 -12 -325 -14 -269 -2 -276 -3 -323 -26 -34 -17 -59 -40 -82 -75 -45 -68
-51 -92 -29 -116 21 -23 86 -26 104 -4 23 28 118 55 194 55 61 0 79 -4 109
-24 19 -13 44 -27 54 -30 11 -4 26 -17 33 -31 12 -22 10 -29 -16 -66 -16 -23
-43 -51 -61 -63 -18 -12 -33 -26 -33 -32 0 -11 23 -37 52 -57 25 -18 57 -157
67 -288 8 -112 2 -333 -20 -735 -6 -111 -8 -215 -4 -232 4 -20 1 -41 -9 -59
-9 -19 -13 -44 -9 -71 4 -31 0 -50 -16 -77 -20 -35 -20 -39 -6 -82 15 -42 14
-47 -5 -78 -11 -18 -20 -41 -20 -52 0 -12 -26 -46 -60 -79 -33 -32 -60 -63
-60 -69 0 -21 -55 -73 -100 -93 -72 -33 -129 -45 -217 -46 -60 0 -83 -4 -83
-13 0 -22 -73 -35 -224 -40 -169 -6 -290 8 -315 37 -9 10 -63 32 -121 50 -66
21 -113 41 -125 55 -11 12 -45 37 -75 54 -145 85 -197 137 -238 241 -45 116
-47 151 -47 950 0 864 -10 780 98 850 104 68 156 89 247 101 145 18 233 38
253 58 17 17 17 19 2 34 -43 44 -298 76 -460 59 -130 -14 -329 -8 -390 13 -42
14 -62 15 -120 6 -38 -6 -136 -13 -217 -15 -155 -5 -178 -11 -230 -60 -23 -21
-28 -33 -28 -74 0 -37 5 -54 21 -68 19 -17 23 -17 67 -2 64 22 159 31 232 23
50 -6 67 -13 95 -40 49 -45 45 -69 -17 -126 l-52 -48 32 -45 c18 -24 32 -49
32 -54 0 -5 7 -23 15 -38 19 -37 19 -56 0 -101 -13 -30 -17 -108 -21 -412 -8
-520 -6 -876 7 -941 24 -127 40 -169 76 -196 56 -42 71 -64 84 -118 6 -28 22
-70 36 -92 19 -34 31 -43 60 -49 21 -4 53 -15 73 -24 19 -10 58 -24 85 -31 28
-7 84 -28 125 -47 114 -53 196 -80 293 -98 48 -9 99 -20 113 -25 44 -17 265
-40 385 -40 100 0 365 30 388 45 4 2 43 11 86 20 111 23 132 35 368 203 53 38
123 107 140 138 105 197 112 258 112 1024 0 327 -2 670 -4 763 -4 156 -3 169
16 195 30 40 179 128 248 146 217 55 251 56 344 4 l54 -30 85 17 c147 30 273
4 322 -65 l21 -29 -21 -41 c-28 -55 -69 -79 -125 -72 -34 3 -50 0 -74 -17 -39
-28 -39 -45 -1 -65 17 -8 30 -11 30 -7 0 14 92 34 109 24 41 -26 53 -70 63
-231 9 -128 8 -191 -6 -347 -9 -104 -14 -210 -11 -235 2 -25 4 -139 3 -255 -1
-223 -1 -260 4 -647 l3 -248 -31 -31 c-35 -34 -139 -69 -209 -69 -60 0 -140
-25 -194 -59 -74 -48 -84 -63 -76 -110 6 -36 11 -42 43 -51 55 -15 101 -12
163 9 30 11 107 27 169 35 63 9 149 25 190 37 49 13 119 22 200 26 128 5 327
-9 359 -26 10 -6 57 -16 104 -22 70 -11 97 -11 139 0 121 29 132 28 186 -23
27 -26 59 -46 71 -46 12 0 47 11 79 24 31 13 84 27 117 31 33 4 94 19 135 33
65 22 92 26 205 26 112 1 140 -2 199 -23 59 -20 82 -23 162 -19 52 3 99 10
106 15 7 6 28 14 46 18 39 8 62 46 46 73 -7 10 -47 25 -100 38 -49 12 -123 32
-164 43 -41 11 -87 21 -102 21 -15 0 -51 11 -81 24 -45 20 -54 28 -64 62 -19
62 -23 240 -25 1009 0 572 2 726 12 748 9 18 25 30 51 37 73 20 99 0 129 -95
14 -46 83 -133 188 -238 23 -24 42 -47 42 -51 0 -12 46 -53 67 -60 25 -8 93
-74 93 -90 0 -7 11 -18 24 -24 14 -6 36 -30 50 -54 14 -24 41 -54 61 -67 19
-13 35 -28 35 -32 0 -10 58 -75 109 -123 19 -17 42 -44 51 -59 9 -15 37 -38
61 -50 28 -14 45 -31 50 -47 7 -30 244 -273 312 -320 26 -18 47 -37 47 -42 0
-4 15 -25 34 -45 18 -21 40 -52 49 -68 14 -28 77 -93 204 -212 29 -26 59 -65
67 -85 15 -34 62 -78 84 -78 15 0 74 -72 103 -126 20 -37 35 -52 62 -62 33
-12 41 -11 84 10 60 30 65 50 57 199 -7 124 4 217 37 328 18 59 19 102 19 730
0 425 -5 702 -12 766 -13 120 -14 145 -3 210 10 67 22 79 166 168 34 20 108
41 243 68 l110 22 23 -27 c34 -40 37 -68 14 -115 -28 -54 -55 -70 -116 -69
-67 1 -133 -11 -142 -26 -5 -7 -18 -18 -29 -24 -23 -12 -34 -48 -26 -87 4 -23
9 -25 56 -25 61 0 80 12 132 80 59 77 87 65 100 -43 5 -39 2 -68 -9 -98 -14
-38 -22 -92 -30 -199 -2 -19 3 -26 20 -28 28 -4 122 42 146 71 23 29 70 129
91 194 18 54 94 159 150 205 55 46 235 77 492 85 220 6 289 -1 327 -34 9 -9
17 -26 17 -38 0 -27 -52 -81 -95 -99 -16 -7 -38 -23 -48 -34 -18 -20 -18 -22
13 -66 17 -25 35 -46 40 -46 19 0 30 -64 21 -119 -14 -79 -26 -235 -24 -306
17 -636 20 -945 11 -1210 -6 -192 -13 -232 -42 -278 -19 -28 -120 -77 -160
-77 -84 0 -208 -53 -242 -104 -31 -46 -30 -55 9 -101 l33 -37 119 35 c66 20
145 39 175 42 30 4 75 13 100 20 191 59 423 59 694 0 48 -10 106 -16 150 -13
61 3 78 8 119 36 37 26 47 39 47 61 0 24 -6 30 -37 39 -21 6 -69 14 -108 18
-38 4 -81 11 -95 17 -14 5 -71 13 -127 17 l-101 7 -60 54 -59 53 -7 156 c-4
85 -7 533 -7 995 0 462 -1 855 -1 872 -2 42 18 63 96 102 80 41 146 46 411 32
212 -11 310 -28 387 -67 39 -20 49 -31 58 -64 12 -45 0 -109 -25 -130 -23 -19
-18 -50 21 -125 20 -39 42 -80 48 -93 14 -28 37 -35 84 -27 50 9 84 52 90 114
2 26 -3 98 -13 161 -21 148 -10 220 45 283 21 23 42 51 47 62 16 31 -2 64 -44
83 -35 15 -144 16 -1313 14 -1175 -1 -1280 -3 -1343 -19 -54 -13 -74 -15 -100
-6 -68 24 -195 34 -455 36 -241 2 -272 4 -289 20 -23 20 -53 22 -53 3 0 -20
-41 -28 -65 -12 -30 19 -56 23 -100 15z m-2336 -174 l52 -36 102 3 c94 2 107
0 165 -27 66 -30 112 -73 112 -106 0 -11 -7 -31 -16 -44 -15 -23 -21 -24 -70
-19 -61 8 -85 -5 -79 -39 6 -33 72 -89 95 -82 41 13 43 -13 42 -535 -3 -1133
-4 -1277 -9 -1313 -13 -88 -111 -147 -316 -190 -92 -19 -101 -20 -150 -4 -29
8 -79 19 -112 22 -33 4 -87 13 -120 21 -33 8 -82 14 -110 14 -116 0 -182 47
-198 140 -9 52 -11 1939 -2 1983 9 46 60 99 148 153 47 29 76 39 136 47 42 5
117 17 166 27 50 10 95 19 101 19 7 1 35 -15 63 -34z"/>
<path d="M12900 12699 c-48 -53 -46 -119 5 -119 30 0 57 12 115 50 25 16 55
34 68 40 12 5 22 14 22 19 0 5 10 13 21 16 42 14 -4 25 -104 25 -97 0 -98 0
-127 -31z"/>
<path d="M11515 12734 c-22 -7 -52 -14 -67 -14 -35 0 -66 -44 -74 -103 -5 -37
-3 -48 15 -66 30 -30 43 -27 73 21 13 19 29 28 60 33 54 9 78 22 78 40 0 8 18
28 40 46 30 24 37 35 29 45 -14 17 -104 16 -154 -2z"/>
<path d="M9470 12734 c-45 -16 -60 -31 -75 -67 -17 -43 -14 -65 31 -225 15
-51 17 -53 42 -47 36 9 35 8 37 70 2 44 7 61 27 83 33 35 60 57 82 65 12 5 17
15 14 36 -1 18 5 37 16 50 11 12 16 24 12 28 -8 8 -166 14 -186 7z"/>
<path d="M17160 12621 c-43 -11 -106 -49 -122 -73 -9 -13 -19 -48 -23 -77 l-7
-54 46 33 c25 18 46 36 46 39 0 13 48 35 99 45 40 9 56 17 62 33 15 41 -40 70
-101 54z"/>
<path d="M24895 11405 c-22 -14 -34 -25 -27 -25 21 0 -5 -38 -36 -53 -15 -7
-45 -15 -66 -16 -42 -3 -59 -15 -70 -46 -4 -11 -34 -33 -69 -49 -34 -17 -73
-40 -87 -52 -14 -12 -40 -30 -59 -40 -65 -36 -71 -41 -99 -80 -45 -61 -107
-111 -148 -118 -20 -4 -53 -17 -73 -30 -42 -25 -79 -42 -140 -63 -44 -15 -80
-46 -81 -70 0 -18 -69 -93 -85 -93 -6 0 -20 -9 -30 -20 -10 -11 -28 -20 -40
-20 -45 0 -88 -34 -121 -95 -6 -11 -33 -32 -61 -46 -68 -33 -152 -107 -199
-172 -48 -66 -63 -76 -147 -105 -80 -26 -135 -62 -194 -125 -23 -25 -54 -48
-70 -51 -28 -7 -179 -146 -258 -239 -22 -26 -47 -56 -55 -65 -8 -10 -31 -27
-50 -37 -19 -11 -45 -28 -58 -37 -13 -9 -44 -20 -70 -24 -41 -6 -96 -36 -127
-68 -6 -6 -32 -22 -59 -36 -30 -15 -58 -40 -73 -64 -41 -63 -64 -82 -126 -101
-42 -13 -65 -27 -83 -50 -14 -18 -42 -45 -63 -59 -21 -15 -44 -38 -51 -51 -7
-14 -21 -27 -32 -31 -10 -3 -18 -12 -18 -19 0 -8 -8 -12 -19 -10 -11 2 -25 -3
-32 -11 -6 -8 -16 -14 -22 -14 -12 0 -117 -106 -117 -118 0 -5 -19 -17 -42
-28 -24 -10 -65 -39 -93 -64 -52 -47 -76 -64 -111 -79 -28 -12 -99 -88 -121
-128 -10 -18 -21 -33 -25 -33 -4 0 -17 -10 -28 -22 -12 -13 -34 -30 -50 -38
-105 -56 -129 -70 -153 -92 -15 -14 -27 -29 -27 -34 0 -21 -74 -65 -156 -93
-70 -24 -96 -38 -121 -67 -18 -21 -33 -45 -33 -54 0 -21 -44 -89 -73 -112 -12
-10 -32 -18 -44 -18 -26 0 -123 -49 -123 -62 0 -5 -16 -30 -35 -55 -19 -25
-35 -51 -35 -57 -1 -19 -73 -62 -144 -85 -80 -25 -126 -50 -126 -67 0 -7 -16
-18 -35 -24 -19 -6 -33 -15 -31 -19 3 -4 -7 -15 -22 -25 -15 -10 -38 -34 -52
-53 -14 -19 -32 -42 -42 -50 -18 -16 -92 -89 -105 -103 -18 -20 -71 -66 -93
-80 -33 -21 -112 -89 -130 -110 -22 -26 -90 -70 -109 -70 -9 0 -40 -23 -68
-51 -45 -44 -58 -52 -94 -53 -34 -1 -46 5 -70 32 l-29 32 -35 -36 c-20 -20
-57 -79 -83 -132 -26 -53 -62 -111 -81 -128 -47 -45 -45 -43 -103 -113 -29
-35 -76 -80 -105 -100 -29 -20 -67 -58 -84 -84 -18 -27 -39 -51 -47 -55 -8 -3
-35 -24 -60 -47 -27 -25 -76 -55 -121 -74 -42 -17 -81 -35 -87 -39 -7 -4 -36
-23 -65 -43 -30 -20 -70 -40 -89 -44 -19 -4 -46 -16 -60 -26 -29 -21 -143 -51
-279 -73 -52 -8 -98 -21 -103 -28 -8 -10 -11 -10 -15 0 -9 22 -51 13 -85 -18
-18 -17 -37 -30 -43 -30 -11 0 22 -20 75 -45 61 -29 91 -29 129 -1 33 25 94
35 104 18 3 -4 3 -28 0 -53 -4 -36 -11 -49 -32 -62 -14 -8 -45 -32 -68 -54
-56 -52 -92 -77 -133 -93 -19 -7 -42 -19 -50 -26 -105 -91 -151 -124 -171
-124 -10 0 -23 -9 -29 -20 -6 -11 -15 -20 -20 -20 -17 0 -93 -63 -171 -143
-42 -42 -80 -77 -86 -77 -5 0 -38 -27 -72 -59 -38 -37 -83 -68 -117 -81 -29
-12 -54 -28 -54 -35 0 -8 -21 -31 -47 -52 -27 -20 -75 -66 -109 -100 -33 -35
-63 -63 -68 -63 -4 0 -20 -10 -36 -22 -25 -18 -33 -20 -55 -10 -23 11 -29 9
-50 -14 -18 -19 -23 -33 -19 -50 4 -15 0 -34 -10 -49 -13 -20 -22 -23 -46 -18
-38 7 -62 -11 -54 -42 4 -17 0 -26 -13 -33 -27 -15 -56 4 -48 29 7 22 -10 49
-31 49 -19 0 -54 -59 -54 -92 0 -27 -40 -68 -67 -68 -7 0 -18 -11 -23 -25 -15
-40 -98 -26 -143 25 -18 19 -37 30 -55 30 -15 0 -40 9 -57 20 -24 17 -44 20
-104 19 -68 -2 -76 0 -84 19 -12 26 -52 29 -84 7 -12 -8 -44 -15 -74 -15 -220
-1 -289 -7 -309 -25 -12 -11 -39 -20 -64 -21 -38 -2 -88 -26 -171 -81 -11 -7
-43 -29 -72 -48 -29 -19 -61 -43 -73 -55 -11 -11 -26 -20 -33 -20 -26 0 -74
-55 -81 -92 -6 -31 -12 -39 -38 -46 -25 -6 -33 -15 -43 -49 -7 -23 -20 -49
-29 -58 -18 -19 -46 -106 -46 -147 0 -15 -10 -46 -21 -69 -20 -37 -22 -56 -22
-232 0 -187 1 -193 27 -243 39 -77 30 -164 -16 -164 -18 0 -40 -25 -56 -63 -6
-15 -18 -27 -27 -27 -8 0 -15 -5 -15 -11 0 -8 -4 -8 -14 0 -20 17 -42 4 -60
-33 -18 -38 -74 -84 -114 -95 -18 -5 -26 -14 -24 -25 7 -40 -49 -63 -73 -29
-17 22 -43 10 -51 -24 -7 -28 -50 -83 -66 -83 -5 0 -30 -21 -56 -46 -54 -53
-84 -67 -124 -58 -22 4 -39 -1 -66 -19 -28 -18 -43 -22 -61 -16 -12 5 -27 7
-32 3 -14 -8 -10 -44 5 -50 17 -7 6 -47 -21 -77 -9 -9 -13 -20 -9 -24 4 -4 -7
-14 -23 -23 -16 -8 -64 -34 -105 -58 -54 -30 -86 -42 -116 -42 -27 0 -40 4
-40 13 0 21 -37 50 -55 44 -8 -4 -23 -22 -32 -42 -24 -51 -50 -46 -112 21 -55
60 -84 68 -89 22 -4 -30 -28 -44 -49 -27 -9 8 -12 22 -8 41 10 42 -30 100 -63
91 -35 -8 -42 10 -42 115 0 77 3 94 16 99 9 3 22 2 29 -3 57 -43 74 -49 144
-56 78 -8 131 3 131 26 -1 30 -147 96 -212 96 -38 0 -66 15 -104 56 -34 36
-59 42 -88 21 -17 -12 -18 -38 -18 -338 0 -178 1 -332 1 -341 1 -9 9 -19 20
-23 10 -3 32 -18 49 -33 77 -68 86 -72 164 -72 75 0 115 -12 90 -28 -7 -5
-236 -8 -510 -7 -273 1 -510 -1 -526 -5 -33 -6 -40 -18 -26 -40 7 -12 44 -16
177 -21 92 -4 182 -12 198 -18 17 -7 36 -25 45 -43 8 -18 44 -54 80 -81 36
-27 86 -67 112 -90 26 -23 56 -45 65 -50 10 -6 33 -24 51 -42 18 -18 53 -43
79 -56 25 -13 81 -58 123 -99 126 -123 172 -160 233 -191 32 -17 80 -52 106
-80 35 -36 57 -51 84 -56 36 -5 97 12 97 27 0 23 60 74 123 106 40 20 75 42
80 49 4 7 22 23 41 34 18 12 46 39 61 61 26 37 129 116 201 153 31 16 70 49
160 135 25 24 60 50 79 58 19 8 35 18 35 23 0 5 25 28 55 51 30 23 55 49 55
56 0 8 28 32 63 54 88 55 112 75 198 161 42 42 101 90 131 107 55 32 136 97
218 174 24 24 60 54 80 67 19 13 54 41 76 61 23 21 60 50 83 64 22 15 41 33
41 40 0 13 70 52 123 70 25 8 11 26 -20 26 -15 0 -45 11 -67 24 -28 16 -63 25
-108 28 -70 6 -130 32 -156 69 -8 11 -25 19 -43 19 -35 0 -76 20 -102 48 -11
11 -37 24 -59 27 -34 6 -46 16 -88 73 -26 36 -54 83 -61 105 -7 21 -19 41 -26
44 -24 9 -43 60 -43 112 0 46 -2 51 -25 57 -14 3 -29 14 -33 23 -5 9 -6 106
-3 216 l6 200 28 27 c23 23 27 35 27 82 0 48 4 59 30 86 17 17 36 52 43 77 7
29 20 49 33 55 12 6 27 21 32 33 6 13 20 26 31 30 12 3 21 12 21 19 0 7 12 26
26 44 20 24 48 38 119 62 51 17 101 40 111 51 39 43 78 59 125 51 76 -13 123
-1 167 45 44 45 55 46 140 12 24 -10 39 -11 61 -2 33 12 41 8 41 -18 0 -10 11
-26 25 -35 25 -16 52 -16 125 2 18 4 33 -2 55 -20 17 -14 41 -26 54 -26 29 0
91 -45 91 -66 0 -12 7 -14 29 -9 24 5 35 0 64 -27 20 -18 53 -46 76 -63 32
-24 40 -37 41 -62 0 -23 8 -37 30 -53 26 -18 30 -28 30 -66 0 -51 12 -81 43
-105 24 -19 27 -70 7 -95 -12 -13 -23 -15 -60 -8 -25 5 -216 9 -425 10 -209 1
-396 2 -415 2 -19 1 -139 0 -267 -1 -218 -2 -233 -3 -260 -23 -40 -30 -41 -67
-4 -109 30 -34 30 -36 24 -115 l-6 -80 39 -38 c48 -48 93 -109 100 -138 3 -12
38 -55 77 -95 60 -60 78 -72 106 -73 33 -1 43 -10 55 -49 5 -15 13 -17 54 -11
45 6 51 4 70 -21 21 -27 25 -28 104 -26 46 2 154 3 241 4 148 2 159 3 175 23
9 12 34 25 54 28 27 5 48 19 75 50 21 24 57 56 81 70 30 19 42 33 42 50 0 14
10 37 23 53 12 15 31 46 41 68 17 38 19 39 32 20 11 -15 13 -37 8 -95 -8 -85
-15 -106 -44 -115 -14 -4 -20 -15 -20 -36 0 -23 -6 -31 -35 -43 -27 -12 -37
-23 -42 -46 -4 -21 -14 -35 -29 -41 -18 -6 -24 -16 -24 -39 0 -25 4 -30 23
-30 29 0 47 18 47 47 0 16 6 23 18 23 20 0 52 29 52 47 0 5 11 20 25 33 14 13
25 34 25 47 0 16 10 30 29 41 34 19 40 36 41 112 2 88 15 153 35 165 32 18 95
77 95 89 0 12 42 54 70 71 10 5 50 30 89 54 77 47 108 49 144 10 32 -34 69
-18 45 20 -10 17 -9 24 11 45 18 20 22 31 16 53 -4 15 -7 83 -6 151 2 109 0
126 -19 156 -24 39 -57 64 -120 88 -58 23 -94 23 -145 -2 -43 -21 -69 -19 -78
5 -9 22 22 55 51 55 15 0 43 4 62 9 19 6 64 12 98 15 39 3 77 14 97 26 18 11
46 20 62 20 21 0 38 10 61 36 31 35 33 36 57 20 36 -24 51 -20 75 19 25 40 59
46 89 16 17 -17 18 -31 13 -179 l-5 -161 26 -12 c31 -14 49 -3 75 47 50 95
131 174 180 174 10 0 31 14 48 31 28 30 119 79 146 79 8 0 30 16 49 36 18 19
49 42 67 49 17 8 32 21 32 30 0 21 116 137 153 153 15 6 27 16 27 22 0 6 15
18 33 26 68 32 169 111 204 159 12 17 33 37 47 44 14 8 28 21 31 30 3 9 28 27
56 39 27 13 66 40 87 60 20 20 56 48 79 63 23 15 63 51 90 79 26 28 84 76 128
106 44 31 114 85 155 120 41 36 89 71 105 79 17 7 53 34 80 59 28 26 58 49 68
52 9 3 17 9 17 13 0 3 15 15 33 26 17 10 36 24 40 32 4 7 14 13 22 13 7 0 22
10 32 23 10 12 31 30 46 40 16 10 45 35 65 55 56 55 152 135 200 165 24 16 53
39 64 52 12 14 27 25 35 25 7 0 19 10 28 23 8 12 43 38 79 57 44 24 71 46 88
73 12 21 38 46 56 57 17 11 32 23 32 28 0 10 141 107 196 135 17 9 37 23 45
33 8 9 39 35 69 58 30 22 64 49 75 59 11 11 34 30 50 43 17 12 59 50 95 84 35
33 67 60 71 60 3 0 22 14 40 30 19 17 51 40 73 51 21 11 57 40 80 63 48 50
200 169 269 211 27 17 94 74 150 128 56 54 128 112 160 130 31 17 57 35 57 39
0 4 13 14 29 23 17 8 31 25 33 37 2 16 20 33 58 54 30 16 96 69 145 117 79 78
180 153 283 212 17 11 35 27 38 37 3 10 9 18 14 18 5 0 30 23 56 50 26 28 70
65 98 82 28 18 91 65 139 105 48 40 91 73 96 73 4 0 41 32 82 71 41 39 88 80
105 92 17 12 54 40 82 62 27 22 89 64 137 94 54 34 107 78 142 117 30 34 66
65 80 68 28 8 161 115 247 201 34 34 90 81 126 105 84 56 135 96 185 141 22
20 60 47 85 62 25 14 62 41 83 61 22 19 54 38 73 42 32 6 80 38 143 97 13 12
34 29 46 37 13 8 52 41 87 72 179 160 383 319 433 338 14 5 64 50 111 99 48
49 100 95 115 102 16 6 29 14 29 18 0 4 15 15 33 26 17 10 66 46 107 80 41 34
89 70 105 81 17 10 59 47 94 81 35 35 68 63 73 63 5 0 33 22 61 49 29 27 63
52 77 56 67 20 140 79 140 113 0 8 -22 36 -50 63 -45 44 -71 61 -189 124 -40
21 -58 35 -179 132 -53 43 -96 69 -139 84 -35 11 -65 25 -68 30 -11 17 -59 9
-100 -16z"/>
<path d="M11386 11246 c-8 -20 -18 -52 -22 -71 -4 -26 -13 -37 -29 -41 -13 -3
-26 -13 -30 -22 -6 -16 -21 -118 -31 -207 -2 -22 -9 -73 -16 -113 -10 -65 -14
-75 -38 -85 -29 -13 -160 -154 -160 -173 0 -18 -63 -71 -127 -108 -34 -19 -68
-39 -75 -45 -7 -6 -49 -29 -93 -52 -43 -22 -92 -52 -108 -65 -16 -13 -41 -26
-55 -29 -15 -3 -47 -12 -72 -21 -130 -46 -450 -67 -785 -53 -126 6 -245 14
-263 19 -40 11 -92 -4 -74 -22 11 -11 95 -43 152 -58 57 -15 300 -32 348 -25
24 3 84 1 133 -6 78 -11 97 -11 162 5 57 13 83 15 118 7 61 -14 156 -4 195 19
17 11 44 20 60 20 16 0 45 10 64 21 19 12 73 33 120 46 73 21 92 31 135 74 28
27 54 49 59 49 5 0 29 15 55 34 25 18 61 38 80 45 40 13 71 38 71 58 0 7 9 22
19 32 11 11 25 38 31 61 6 22 22 57 35 77 15 21 25 50 25 71 0 19 3 33 6 29 9
-8 25 11 50 58 30 57 36 98 19 146 -8 23 -15 61 -15 85 0 37 3 44 19 44 11 0
23 -4 26 -10 11 -18 25 -11 46 23 20 33 20 34 3 162 -8 57 -20 63 -38 21z"/>
<path d="M2341 10870 c-19 -4 -70 -6 -114 -3 -69 4 -89 1 -153 -22 -82 -30
-89 -36 -76 -62 5 -10 17 -34 26 -53 9 -20 31 -50 49 -67 108 -107 187 -177
219 -194 20 -10 39 -23 42 -28 4 -5 25 -19 49 -30 50 -24 87 -56 87 -75 0 -15
64 -76 80 -76 5 0 11 -8 14 -17 3 -10 27 -29 52 -42 25 -14 58 -38 72 -54 15
-15 41 -35 57 -44 17 -8 41 -28 55 -43 30 -32 116 -100 128 -100 5 0 19 -11
32 -25 13 -14 47 -40 74 -57 57 -37 51 -32 138 -115 39 -38 90 -74 133 -95 39
-18 84 -47 101 -63 17 -17 62 -50 99 -75 36 -25 74 -53 83 -63 9 -10 44 -38
77 -62 33 -24 80 -61 105 -83 25 -22 56 -50 70 -61 111 -93 162 -133 231 -182
71 -50 141 -114 151 -137 4 -11 125 -94 163 -112 17 -8 55 -36 86 -62 30 -27
59 -48 62 -48 4 0 33 -27 65 -59 32 -32 83 -73 114 -90 30 -17 75 -51 100 -76
25 -25 51 -45 57 -45 6 0 15 -8 20 -18 5 -10 31 -29 57 -43 46 -23 74 -47 137
-114 57 -62 83 -83 133 -111 77 -44 148 -101 237 -191 46 -47 92 -85 107 -88
27 -6 69 -43 86 -77 5 -9 64 -53 132 -98 68 -45 127 -92 132 -104 11 -29 101
-112 142 -131 55 -25 227 -162 272 -216 28 -33 90 -79 107 -79 6 0 34 -22 63
-50 29 -27 56 -50 60 -50 5 0 36 -24 69 -54 34 -29 67 -55 73 -57 13 -5 93
-72 171 -144 29 -27 61 -54 71 -59 87 -47 215 -142 255 -189 27 -32 79 -77
115 -102 86 -58 120 -83 179 -132 26 -22 59 -46 72 -53 14 -7 57 -43 95 -81
39 -37 89 -81 111 -98 22 -16 53 -42 69 -57 16 -14 54 -42 85 -62 31 -19 58
-38 61 -41 3 -3 16 -12 31 -19 30 -16 89 -70 89 -82 0 -5 15 -13 34 -20 18 -6
55 -31 82 -56 27 -25 66 -57 86 -71 20 -14 44 -35 52 -48 8 -12 40 -32 71 -45
31 -12 54 -28 52 -34 -7 -22 -88 -25 -623 -25 -373 -1 -551 -4 -573 -12 -42
-15 -56 -50 -36 -89 23 -45 49 -53 185 -59 109 -5 129 -9 157 -29 32 -23 36
-31 48 -103 6 -41 30 -68 45 -53 6 6 13 37 16 71 7 60 6 61 -23 76 -16 9 -42
31 -56 50 -32 42 -63 49 -204 48 -94 -1 -130 7 -102 24 14 9 1287 10 1296 2
15 -16 -15 -22 -123 -28 -99 -4 -117 -8 -137 -27 -13 -12 -32 -22 -44 -22 -32
0 -81 -20 -87 -36 -3 -8 -16 -14 -28 -14 -13 0 -34 -7 -47 -16 -18 -13 -21
-22 -15 -43 4 -14 10 -55 13 -91 3 -36 11 -64 16 -63 6 1 25 47 44 103 34 103
34 103 96 114 11 2 37 10 57 19 27 12 71 17 171 18 l134 2 76 -43 c67 -39 177
-131 177 -150 0 -10 136 -110 149 -110 5 0 34 -19 63 -43 29 -24 61 -46 71
-50 9 -3 17 -10 17 -14 0 -5 23 -26 52 -48 77 -60 242 -196 253 -210 6 -7 55
-43 110 -80 59 -40 119 -90 148 -123 26 -32 67 -68 91 -82 52 -30 163 -107
190 -132 11 -10 23 -18 27 -18 4 0 21 -19 38 -42 23 -30 31 -53 31 -82 0 -51
15 -79 30 -56 5 8 9 30 8 49 -1 27 5 40 28 60 17 14 38 47 47 72 17 44 60 89
115 118 20 11 23 18 18 46 -6 31 -3 36 41 69 63 46 80 61 85 76 3 9 20 13 47
12 31 -1 51 5 74 22 18 12 53 29 78 35 25 7 59 24 74 37 24 21 38 24 101 24
68 0 76 2 109 32 32 27 43 31 86 29 38 -1 59 4 95 25 40 24 44 29 31 42 -13
12 -25 13 -79 3 -34 -6 -68 -18 -74 -26 -14 -19 -29 -19 -58 0 -21 14 -35 14
-112 3 -88 -12 -198 -13 -261 -3 -25 5 -33 11 -33 26 0 22 -22 49 -39 49 -33
0 -62 26 -72 64 -12 44 -78 118 -117 130 -12 4 -22 13 -22 20 0 7 -15 19 -32
27 -21 9 -34 22 -36 37 -2 13 -10 26 -18 29 -8 3 -14 15 -14 27 0 29 -49 35
-57 7 -8 -33 -56 -47 -93 -28 -26 13 -69 56 -70 71 0 4 -13 25 -28 45 -16 20
-37 65 -46 101 -10 36 -21 67 -25 70 -3 3 -11 14 -17 25 -6 11 -31 26 -55 34
-24 8 -45 18 -47 23 -6 13 -54 9 -105 -8 -58 -20 -88 -15 -104 15 -6 14 -23
37 -36 51 -18 18 -27 42 -31 78 -6 59 -17 83 -58 130 -16 18 -26 37 -23 42 8
13 -49 40 -84 40 -16 0 -31 -6 -33 -12 -10 -29 -213 -4 -225 28 -3 8 -17 21
-32 28 -44 23 -91 74 -84 91 4 11 -1 18 -16 22 -15 4 -21 12 -19 26 4 27 73
47 168 47 41 0 91 4 110 10 52 15 163 21 199 10 17 -5 67 -10 109 -11 43 -1
116 -8 161 -15 61 -10 88 -10 107 -2 13 6 24 15 24 20 0 4 7 8 15 8 8 0 21 13
29 29 14 26 14 30 -1 35 -9 4 -61 3 -117 -1 -199 -16 -1191 -2 -1225 17 -53
28 17 99 119 121 30 6 93 22 140 34 155 43 233 55 351 55 135 0 349 -34 385
-62 6 -4 31 -11 55 -14 34 -5 56 -1 99 18 30 14 66 28 80 31 14 4 38 17 54 30
27 22 28 26 21 76 -8 61 -22 71 -71 47 -54 -25 -113 -21 -167 14 -46 29 -50
30 -161 27 -127 -2 -148 5 -193 73 -23 33 -23 36 -23 390 0 406 -1 401 78 448
l47 27 180 -2 c354 -5 485 11 710 86 33 11 102 31 153 45 55 15 106 36 123 50
16 14 38 27 49 31 11 3 20 12 20 19 0 6 20 29 44 49 56 46 144 162 185 244 22
43 35 86 42 145 21 172 31 225 56 293 40 113 40 118 -2 175 -48 66 -107 115
-181 151 -33 17 -74 42 -90 57 -69 62 -113 90 -174 110 -80 25 -100 29 -275
47 -77 8 -158 21 -180 29 -27 9 -93 14 -199 15 -113 1 -176 6 -217 17 -55 16
-60 15 -130 -6 -61 -19 -84 -22 -148 -15 -189 18 -253 20 -456 16 -55 -1 -134
1 -176 5 -49 4 -94 2 -127 -6 -45 -10 -55 -18 -83 -61 -17 -27 -35 -49 -40
-49 -15 0 -9 -43 10 -75 20 -33 33 -35 192 -20 116 11 209 -22 209 -73 0 -9
-67 -82 -76 -82 -1 0 -15 5 -29 12 -22 10 -33 8 -73 -12 -26 -12 -53 -26 -61
-29 -18 -9 -31 -44 -22 -59 3 -6 38 -12 77 -14 62 -4 75 -8 111 -37 l41 -33 7
-121 c4 -73 2 -148 -4 -186 -19 -115 -25 -287 -12 -320 15 -35 9 -60 -25 -96
-15 -16 -23 -35 -20 -48 8 -44 19 -67 30 -67 6 0 5 -4 -3 -9 -11 -7 -12 -35
-7 -142 6 -118 18 -513 18 -594 0 -54 -1 -209 -1 -260 -1 -54 -25 -98 -57
-103 -10 -2 -31 -15 -45 -29 -55 -51 -187 -70 -220 -31 -11 11 -19 25 -19 30
0 4 -11 8 -25 8 -14 0 -37 11 -50 24 -45 45 -69 56 -118 56 -42 0 -53 5 -80
33 -47 48 -104 90 -172 127 -60 32 -115 84 -115 108 0 8 -9 26 -20 40 -12 15
-20 37 -18 51 2 15 -2 26 -9 26 -6 0 -15 3 -19 8 -10 10 -62 9 -68 -2 -11 -17
-61 5 -74 32 -7 15 -17 27 -23 27 -5 0 -9 7 -9 15 0 9 -11 38 -25 65 -14 27
-25 53 -24 57 3 21 -2 41 -17 59 -8 10 -13 14 -10 8 4 -8 -6 -8 -32 1 -20 7
-41 10 -47 7 -23 -15 -45 -10 -56 11 -6 12 -25 36 -43 54 -17 17 -40 41 -50
52 -11 12 -31 21 -45 21 -31 0 -91 40 -91 61 0 9 -11 28 -25 43 -14 15 -25 31
-25 35 0 11 -51 54 -80 68 -39 18 -78 24 -85 13 -9 -14 -87 -12 -106 3 -9 7
-20 28 -24 47 -4 19 -10 40 -13 45 -4 6 -7 16 -9 24 -1 8 -17 30 -36 50 -41
43 -76 102 -70 117 2 6 -3 24 -12 40 -8 16 -15 22 -15 14 0 -13 -2 -13 -9 -1
-7 10 -30 14 -91 13 -45 -1 -87 1 -93 5 -7 4 -19 8 -27 8 -8 0 -20 11 -27 24
-6 14 -23 37 -37 52 -14 15 -26 30 -26 33 0 9 -87 96 -97 96 -4 0 -21 18 -37
40 -17 22 -35 40 -41 40 -6 0 -17 11 -24 24 -14 26 -68 46 -123 46 -54 0 -98
11 -98 25 0 7 -7 18 -15 25 -9 7 -14 15 -11 17 9 9 -26 75 -56 106 -17 18 -37
42 -45 54 -8 12 -30 29 -49 38 -18 9 -40 28 -48 43 -8 15 -31 36 -53 47 -21
10 -46 26 -56 34 -22 19 -86 24 -104 10 -21 -18 -79 8 -98 44 -9 18 -28 53
-43 80 -70 122 -92 168 -92 187 0 11 -4 20 -8 20 -16 0 -52 37 -52 54 0 8 -19
28 -42 42 -24 14 -54 33 -68 42 -14 9 -31 15 -37 14 -15 -3 -61 25 -84 50 -9
10 -19 36 -23 58 -4 24 -14 45 -26 52 -11 7 -20 18 -20 25 0 7 -4 13 -10 13
-5 0 -10 -4 -10 -9 0 -5 -9 -11 -20 -14 -11 -3 -20 -2 -20 2 0 4 -17 7 -37 7
-111 1 -185 53 -204 143 -8 42 -20 64 -45 87 -30 29 -216 129 -239 129 -5 0
-17 15 -26 33 -8 19 -19 32 -24 30 -4 -1 -11 7 -16 20 -13 35 -37 26 -60 -23
-8 -16 -20 -30 -26 -30 -21 0 -124 145 -130 183 -9 55 -46 108 -80 115 -27 5
-78 -14 -85 -31 -1 -5 -17 -12 -34 -15 -27 -5 -36 -1 -65 31 -53 57 -109 131
-108 139 5 24 -17 76 -43 102 -30 31 -43 35 -106 31 -72 -4 -112 25 -112 81 0
9 -20 33 -45 54 -25 20 -43 41 -40 46 4 5 0 10 -7 11 -29 3 -34 5 -65 21 -18
10 -33 15 -33 11 0 -4 -6 -2 -12 4 -7 6 -16 11 -20 11 -5 1 -9 1 -10 2 -2 0
-12 2 -22 4 -11 2 -32 13 -47 24 -16 12 -35 21 -43 21 -8 0 -17 4 -21 9 -3 5
-19 12 -35 16 -17 4 -30 10 -30 15 0 16 -36 23 -122 24 -71 1 -90 5 -108 21
-19 17 -39 20 -134 22 -61 1 -127 3 -146 4 -19 0 -46 0 -60 -1 -14 0 -38 1
-55 4 -16 2 -45 1 -64 -4z m7502 -1956 c270 -29 444 -89 527 -181 28 -31 35
-46 38 -93 4 -49 1 -60 -22 -87 -31 -37 -32 -45 -6 -68 23 -20 50 -107 50
-159 0 -57 -31 -157 -62 -200 -15 -22 -28 -44 -28 -49 0 -10 -78 -87 -89 -87
-4 0 -29 -22 -57 -48 -38 -38 -61 -52 -104 -62 -99 -23 -200 -56 -194 -63 23
-23 -142 -43 -220 -27 -49 10 -56 14 -51 31 4 13 2 19 -8 19 -9 0 -17 5 -19
11 -2 5 -23 13 -47 16 -52 7 -111 -19 -111 -48 0 -23 -58 -49 -106 -49 -53 0
-83 19 -94 59 -6 22 -10 225 -10 507 l0 470 31 31 c38 40 104 72 166 83 81 13
266 11 416 -6z"/>
<path d="M9514 8732 c-17 -15 -37 -37 -43 -50 -29 -54 44 -93 164 -88 33 1 81
-2 107 -6 41 -8 50 -6 85 18 35 24 44 26 116 21 52 -3 87 -11 105 -23 44 -30
70 -43 99 -47 16 -3 45 -14 66 -26 21 -11 54 -21 75 -21 l37 0 -30 20 c-16 11
-41 20 -54 20 -14 0 -46 21 -83 55 -47 44 -66 55 -92 55 -19 0 -50 7 -71 16
-21 8 -77 22 -124 30 -108 17 -114 19 -181 37 -86 24 -139 21 -176 -11z"/>
<path d="M22513 10843 c-25 -40 -86 -108 -95 -106 -3 2 -18 -11 -31 -27 -14
-16 -55 -55 -91 -85 -36 -31 -80 -76 -96 -101 -17 -24 -37 -44 -44 -44 -7 0
-44 -20 -82 -45 -37 -25 -74 -45 -81 -45 -21 0 -86 -36 -107 -59 -11 -12 -27
-21 -36 -21 -9 0 -31 -11 -50 -25 -19 -14 -45 -25 -58 -25 -13 0 -45 -11 -71
-23 -102 -52 -229 -78 -396 -82 -247 -6 -481 -18 -488 -25 -5 -4 36 -16 90
-26 74 -14 143 -19 283 -19 237 0 371 16 458 56 41 19 95 34 146 40 49 7 99
20 126 34 25 13 73 38 107 55 35 18 72 44 83 59 10 16 39 35 62 44 24 9 51 30
62 45 10 15 31 35 46 44 14 8 59 54 98 101 39 47 85 95 102 107 41 29 110 137
110 172 0 37 -24 37 -47 1z"/>
<path d="M5780 10296 c-6 -30 -17 -60 -25 -66 -18 -15 -8 -39 22 -51 20 -7 30
-5 54 15 15 13 46 27 69 31 23 4 40 12 40 20 0 20 -104 105 -128 105 -17 0
-23 -10 -32 -54z"/>
<path d="M12185 10180 c-165 -10 -281 -29 -301 -51 -28 -31 65 -43 273 -35 98
4 266 9 373 12 188 5 276 16 265 33 -2 5 -19 16 -38 24 -38 19 -373 28 -572
17z"/>
<path d="M13680 10183 c-8 -3 -26 -10 -40 -16 -45 -18 -327 -19 -401 0 -58 14
-85 15 -210 5 -140 -11 -219 -28 -219 -46 0 -4 9 -6 21 -3 11 3 37 -1 57 -10
26 -11 52 -13 92 -8 96 12 415 5 470 -10 8 -3 26 2 40 10 60 34 70 36 127 19
31 -9 71 -25 89 -36 l34 -20 66 22 c78 26 170 30 231 10 35 -12 55 -12 115 -2
87 15 127 37 107 57 -12 12 -141 19 -274 14 -11 0 -54 4 -95 10 -81 11 -186
13 -210 4z"/>
<path d="M18014 10162 c-30 -10 -50 -11 -87 -3 -27 6 -74 11 -105 11 -72 0
-222 -21 -222 -30 0 -18 63 -19 370 -9 69 3 143 3 243 1 43 -1 77 2 77 8 0 17
-40 31 -73 25 -17 -3 -62 -2 -98 3 -49 6 -77 5 -105 -6z"/>
<path d="M7247 9550 c-23 -15 -13 -28 39 -51 25 -10 47 -26 50 -34 8 -20 56
-40 117 -48 36 -5 65 -1 113 14 56 18 79 20 172 14 59 -3 161 -7 227 -9 66 -1
143 -6 171 -10 73 -11 127 7 150 50 30 55 18 58 -153 44 -119 -11 -162 -11
-212 -1 -40 8 -94 10 -149 6 -65 -5 -102 -3 -147 9 -77 20 -353 32 -378 16z"/>
<path d="M6433 9419 c-13 -5 -23 -15 -23 -22 0 -8 -7 -20 -15 -27 -8 -7 -15
-20 -15 -30 0 -10 -6 -23 -14 -29 -13 -11 -14 -50 -1 -70 3 -6 18 -11 32 -11
28 0 87 56 76 73 -3 6 -9 36 -12 67 -6 54 -7 57 -28 49z"/>
<path d="M17367 9172 c-90 -2 -135 -7 -150 -17 -12 -8 -53 -19 -92 -25 -38 -6
-77 -18 -85 -25 -9 -8 -48 -19 -87 -25 -40 -5 -93 -21 -119 -35 -26 -14 -55
-25 -64 -25 -9 0 -27 -8 -38 -17 -12 -10 -38 -29 -58 -43 -21 -14 -49 -37 -64
-52 -14 -14 -60 -43 -101 -64 -55 -28 -92 -57 -146 -114 -104 -110 -171 -197
-182 -236 -10 -37 -71 -127 -108 -159 -21 -19 -63 -127 -63 -164 0 -18 -30
-99 -54 -147 -16 -32 -37 -263 -38 -421 0 -68 2 -77 42 -142 24 -41 44 -88 47
-113 5 -39 30 -99 83 -198 10 -19 34 -67 53 -106 19 -38 48 -83 65 -100 28
-28 118 -94 127 -94 3 0 30 -20 61 -45 30 -25 61 -45 69 -45 21 0 132 -58 200
-105 75 -51 142 -90 175 -100 14 -4 41 -18 60 -30 19 -13 82 -35 140 -50 100
-25 128 -34 229 -70 59 -21 302 -30 483 -17 114 8 141 13 167 31 16 12 70 30
118 41 122 27 195 49 214 66 8 8 20 14 25 14 5 0 31 23 57 50 27 27 58 52 69
56 12 3 41 22 66 41 25 19 63 43 86 55 23 11 55 35 71 52 67 68 175 209 180
234 3 15 13 41 22 57 34 65 66 121 77 135 7 8 32 94 56 190 l44 175 0 230 c-1
191 -5 251 -23 355 -12 69 -24 157 -27 195 -4 39 -12 89 -20 113 -8 23 -14 48
-14 53 0 15 -129 174 -229 281 -55 59 -60 62 -122 72 -37 7 -93 51 -84 67 7
11 -22 25 -66 32 -20 3 -48 17 -61 30 -30 30 -72 43 -188 58 -57 8 -97 19
-120 34 -19 13 -59 28 -88 34 -30 6 -61 15 -70 20 -19 10 -332 18 -525 13z
m377 -188 c156 -24 442 -137 507 -200 70 -68 99 -164 77 -255 -5 -22 1 -34 38
-70 43 -42 59 -75 107 -224 9 -27 19 -72 22 -99 4 -27 11 -58 16 -68 13 -24
21 -160 23 -378 1 -222 -20 -363 -72 -474 -21 -45 -45 -97 -52 -116 -8 -19
-22 -48 -32 -65 -10 -16 -18 -37 -18 -45 0 -9 -13 -31 -30 -50 -16 -19 -29
-39 -30 -44 -1 -21 -110 -120 -162 -146 -31 -15 -76 -40 -100 -54 -24 -14 -64
-32 -88 -41 -24 -9 -52 -23 -62 -31 -21 -20 -202 -43 -338 -44 -86 0 -109 4
-240 46 -133 42 -239 83 -315 122 -42 22 -137 107 -156 140 -8 15 -29 31 -45
36 -76 23 -102 41 -143 102 -22 34 -41 66 -41 70 0 3 -17 25 -38 48 -31 33
-45 64 -71 146 -17 58 -42 134 -54 170 -20 60 -22 83 -21 310 l0 245 41 155
c39 147 51 175 123 290 5 8 22 42 37 75 15 33 49 81 76 107 26 27 47 53 47 58
0 5 13 16 28 24 16 8 46 32 68 54 26 27 57 45 93 56 30 9 72 27 95 40 23 13
68 32 101 41 33 9 76 22 95 30 32 12 168 39 245 48 74 9 175 6 269 -9z"/>
<path d="M17245 8753 c-75 -24 -112 -41 -141 -67 -51 -46 -64 -56 -72 -56 -15
0 -150 -146 -157 -170 -12 -41 -44 -108 -55 -115 -33 -21 -59 -135 -36 -158
32 -31 95 8 82 51 -8 23 26 76 61 99 33 20 44 34 37 45 -3 4 23 36 57 70 34
35 69 76 78 93 19 36 75 75 107 75 14 0 25 8 29 19 6 21 16 25 75 36 79 14
152 60 123 78 -24 15 -142 15 -188 0z"/>
<path d="M12290 9149 c-29 -9 -261 -20 -425 -19 -22 0 -123 0 -225 0 -102 0
-244 5 -316 11 -150 13 -203 3 -262 -51 -30 -27 -32 -34 -32 -93 0 -62 1 -65
28 -74 28 -10 122 4 175 26 47 19 128 13 208 -15 41 -15 82 -33 92 -42 26 -23
21 -60 -14 -93 -43 -40 -91 -47 -159 -23 -71 25 -93 21 -113 -21 -16 -34 -16
-35 6 -49 41 -26 67 -28 117 -10 l49 17 34 -26 c38 -29 48 -56 53 -147 12
-215 14 -315 5 -343 -6 -18 -15 -59 -20 -92 -5 -33 -15 -93 -21 -134 -9 -57
-9 -109 1 -225 7 -83 11 -185 9 -226 -4 -69 -4 -228 -1 -439 1 -46 10 -132 21
-192 19 -106 19 -108 0 -146 -11 -21 -25 -45 -33 -54 -22 -29 -110 -79 -138
-79 -14 0 -44 -6 -65 -14 -22 -7 -59 -17 -84 -20 -72 -11 -93 -24 -128 -78
-30 -44 -32 -54 -22 -73 7 -13 9 -35 5 -54 -8 -38 5 -40 97 -11 34 11 112 27
172 35 61 8 142 24 180 34 146 40 257 53 393 48 164 -6 279 -22 351 -47 68
-24 96 -24 187 -1 82 22 109 17 165 -32 30 -25 47 -33 68 -30 72 11 182 37
222 53 61 24 214 50 302 53 73 2 176 -11 319 -39 71 -14 79 -13 140 5 87 27
149 73 149 111 0 36 -12 40 -115 38 -87 -1 -117 9 -151 50 -17 20 -28 25 -60
23 -71 -5 -109 -4 -157 3 -37 6 -50 13 -61 34 -22 45 -26 182 -26 1011 -1 896
-6 841 73 841 52 0 78 -24 131 -120 19 -36 48 -77 63 -92 87 -84 107 -107 125
-142 22 -43 47 -68 93 -93 17 -9 44 -32 60 -51 17 -19 40 -45 53 -57 12 -12
22 -27 22 -33 0 -5 34 -41 75 -79 44 -40 79 -81 85 -100 6 -17 27 -46 46 -65
79 -74 144 -144 144 -153 0 -6 12 -22 28 -35 15 -14 41 -41 58 -61 17 -20 40
-40 51 -43 28 -9 172 -157 191 -195 8 -18 27 -41 41 -51 14 -11 29 -23 33 -27
51 -59 182 -196 213 -222 38 -32 115 -134 115 -152 0 -5 15 -17 33 -26 57 -30
187 -190 187 -229 0 -28 44 -64 78 -64 39 0 87 36 107 80 15 33 17 57 12 157
-4 85 0 166 15 288 18 159 19 224 16 995 l-3 825 22 31 c25 36 102 77 183 99
206 55 297 94 306 132 8 30 -2 42 -53 65 -42 19 -51 19 -216 6 -181 -14 -401
-16 -502 -5 -155 17 -249 16 -307 -3 -55 -18 -67 -25 -108 -62 -22 -20 -35
-77 -26 -113 11 -44 44 -51 140 -26 106 26 153 26 236 0 58 -18 110 -51 110
-69 0 -4 -12 -20 -26 -36 -14 -16 -29 -38 -34 -49 -9 -23 2 -105 20 -150 8
-20 14 -121 16 -300 2 -148 5 -297 7 -330 5 -119 -12 -611 -22 -637 -6 -16
-16 -28 -23 -28 -8 0 -31 23 -53 50 -22 28 -53 61 -69 73 -17 12 -37 29 -45
38 -9 9 -79 80 -155 158 -77 77 -140 149 -141 158 -3 39 -18 64 -44 78 -15 7
-39 28 -52 46 -76 99 -118 149 -153 180 -22 19 -50 44 -63 57 -13 12 -28 22
-33 22 -5 0 -18 12 -27 27 -22 34 -137 143 -166 158 -11 5 -34 36 -52 68 -22
41 -60 84 -125 144 -52 47 -101 98 -108 114 -8 16 -18 29 -23 29 -5 0 -9 6 -9
14 0 8 -17 28 -37 46 -167 140 -213 185 -213 209 0 19 -62 81 -80 81 -6 0 -10
7 -10 15 0 8 -10 24 -22 36 -21 19 -29 20 -93 13 -88 -10 -784 -12 -806 -2
-29 13 -173 18 -209 7z m301 -175 l49 -47 78 6 c85 7 159 -6 227 -39 52 -25
67 -68 39 -119 -10 -19 -22 -35 -25 -35 -16 0 -19 -56 -5 -103 16 -59 19 -117
6 -132 -7 -9 -25 -102 -61 -324 -8 -51 -7 -78 7 -140 9 -42 23 -86 31 -98 11
-16 15 -72 19 -220 2 -109 7 -248 10 -308 4 -72 2 -130 -5 -165 -7 -30 -14
-152 -17 -270 -6 -244 -16 -290 -66 -316 -17 -9 -40 -26 -52 -39 -46 -51 -133
-61 -296 -36 -25 4 -60 3 -79 -2 -41 -10 -118 12 -166 49 -39 29 -48 30 -85 3
-35 -27 -84 -23 -164 14 -96 44 -88 -55 -88 1118 0 980 1 1029 19 1059 31 52
145 103 293 130 36 7 90 20 120 30 124 41 151 39 211 -16z"/>
<path d="M12353 8820 c-85 -13 -143 -69 -143 -137 0 -15 12 -50 25 -77 23 -48
24 -49 34 -25 16 42 65 79 127 95 37 10 66 25 80 41 24 28 39 82 26 95 -13 13
-92 17 -149 8z"/>
<path d="M12239 8088 c0 -2 -8 -93 -17 -203 -23 -275 -21 -492 5 -564 11 -30
24 -56 29 -58 27 -9 55 380 33 452 -7 24 -11 85 -10 153 3 141 -6 222 -25 222
-8 0 -14 -1 -15 -2z"/>
<path d="M15701 8811 c-35 -10 -81 -79 -82 -126 -2 -55 9 -116 26 -139 14 -18
16 -18 34 -2 10 9 21 31 25 47 6 32 37 66 104 113 23 17 42 34 42 39 0 5 9 21
20 37 11 15 17 30 13 34 -8 8 -151 6 -182 -3z"/>
<path d="M15637 8450 c-3 -8 -13 -49 -21 -90 -17 -80 -16 -166 2 -320 7 -52
14 -129 18 -170 9 -129 15 -139 55 -99 11 11 18 27 15 37 -14 43 -13 139 1
229 33 211 26 311 -25 371 -9 11 -22 29 -29 39 -9 15 -12 16 -16 3z"/>
<path d="M11078 7975 c-15 -25 -25 -52 -21 -60 7 -21 -22 -51 -56 -58 -20 -4
-40 -23 -68 -64 -33 -48 -52 -64 -109 -93 -69 -35 -107 -59 -194 -124 -90 -66
-332 -131 -570 -152 -41 -4 -91 -13 -111 -20 -26 -9 -91 -11 -225 -9 -196 4
-233 -2 -248 -40 -23 -62 15 -89 116 -82 40 3 141 10 223 15 221 16 254 16
322 8 l63 -8 47 40 c54 44 90 55 179 54 51 -1 74 5 131 33 38 19 92 40 119 47
27 6 63 24 79 39 17 15 46 30 65 34 36 8 81 49 106 97 8 15 21 28 28 28 24 0
106 80 106 104 0 12 13 33 29 47 26 23 29 31 24 67 -3 23 -1 47 5 54 5 7 9 24
7 38 -1 14 -3 31 -4 38 -2 23 -16 12 -43 -33z"/>
<path d="M13789 6294 c-35 -42 -52 -44 -476 -50 -528 -7 -540 -8 -549 -16 -17
-18 14 -23 124 -20 78 2 141 -2 190 -12 94 -20 141 -20 182 1 28 14 38 14 64
3 17 -7 69 -16 116 -20 47 -4 101 -11 120 -14 25 -5 60 1 125 22 50 16 104 32
122 36 37 8 50 35 31 65 -15 25 -31 27 -49 5z"/>
<path d="M11940 6257 c-3 -3 -157 -7 -342 -9 -219 -2 -341 -7 -348 -14 -12
-12 24 -90 45 -98 6 -2 26 9 44 26 43 40 88 46 153 19 79 -31 139 -34 201 -9
46 18 65 20 173 14 91 -5 140 -2 197 10 71 14 82 14 149 -2 40 -10 82 -23 93
-30 11 -6 57 -15 102 -18 67 -5 84 -3 97 10 9 8 16 19 16 24 0 5 14 17 30 27
36 21 38 38 8 47 -13 3 -104 1 -203 -5 -163 -10 -312 -7 -383 7 -15 3 -29 3
-32 1z"/>
<path d="M12957 4863 c-16 -16 -5 -32 26 -35 28 -3 32 -6 29 -28 -1 -14 -7
-92 -11 -175 -9 -144 -8 -151 11 -167 11 -10 24 -18 29 -18 7 0 41 30 171 155
20 19 42 35 48 35 7 0 23 9 37 20 14 11 33 20 42 20 10 0 30 14 46 30 28 29
33 30 81 24 51 -6 53 -5 98 36 25 23 48 50 51 60 4 11 12 17 21 13 7 -3 14 -1
14 5 0 6 -39 8 -107 5 -97 -5 -110 -8 -128 -29 -18 -21 -42 -28 -121 -33 -6
-1 -16 -12 -22 -26 -6 -13 -22 -27 -36 -31 -13 -3 -32 -21 -42 -40 -10 -19
-27 -37 -37 -40 -9 -3 -25 -16 -33 -30 -9 -13 -20 -21 -25 -18 -5 3 -9 47 -9
98 l0 93 -45 42 c-41 38 -72 50 -88 34z"/>
<path d="M11310 4832 c-41 -7 -50 -19 -38 -53 8 -24 20 -32 64 -45 64 -18 79
-20 122 -10 25 6 33 4 38 -9 8 -19 55 -45 82 -45 11 0 25 -6 31 -14 7 -8 35
-20 62 -26 32 -8 66 -26 94 -50 24 -21 71 -59 104 -84 42 -33 63 -56 69 -80 5
-18 21 -44 36 -59 14 -14 26 -35 26 -46 0 -11 14 -29 30 -41 27 -19 30 -27 30
-78 0 -53 2 -58 33 -78 l32 -21 0 -138 0 -138 -30 -17 c-28 -15 -30 -21 -33
-83 -3 -60 -6 -68 -31 -86 -16 -11 -31 -33 -34 -49 -3 -16 -17 -43 -31 -60
-15 -16 -26 -34 -26 -40 0 -6 -16 -29 -35 -52 -19 -23 -35 -50 -35 -60 0 -33
-55 -75 -142 -108 -47 -17 -89 -32 -95 -32 -5 0 -18 -9 -28 -20 -10 -11 -35
-25 -56 -30 -21 -6 -46 -21 -57 -35 -16 -20 -25 -23 -60 -18 -47 6 -136 -13
-153 -33 -39 -47 91 -63 156 -18 33 22 44 25 88 19 56 -8 240 -97 261 -126 7
-10 30 -32 52 -48 21 -15 59 -47 84 -71 25 -23 56 -49 70 -58 41 -27 123 -95
143 -120 11 -12 44 -40 76 -60 107 -71 151 -106 151 -119 0 -8 -16 -23 -35
-34 -66 -39 -38 -63 74 -60 38 1 74 7 88 16 12 8 47 22 78 30 30 7 60 17 65
20 13 8 13 38 -1 52 -8 8 -7 19 4 39 24 48 38 207 37 424 -1 113 0 237 1 275
3 83 3 55 -1 440 -2 171 0 326 4 345 6 31 -4 155 -20 265 -9 58 -46 82 -77 50
-11 -10 -13 -23 -8 -42 4 -16 3 -45 -2 -67 -7 -27 -6 -58 3 -102 6 -35 9 -72
4 -81 -8 -19 -26 -321 -24 -408 1 -96 -35 -295 -54 -295 -6 0 -24 14 -39 31
-24 28 -31 30 -66 24 -39 -6 -40 -5 -60 33 -19 37 -44 58 -130 108 l-36 21 1
91 c1 76 5 95 23 118 19 24 21 39 21 169 0 129 -2 145 -21 169 -11 14 -29 56
-39 92 -11 36 -26 71 -33 78 -8 6 -20 26 -26 45 -6 19 -20 40 -30 48 -11 7
-25 29 -31 49 -7 22 -21 39 -36 44 -20 8 -24 17 -24 47 0 62 9 80 51 98 21 10
39 25 39 33 0 23 -71 6 -98 -24 l-22 -26 -68 23 c-37 12 -81 34 -97 48 -17 14
-49 34 -71 45 -23 10 -47 29 -53 42 -9 20 -18 24 -58 24 -26 0 -65 9 -87 19
-41 19 -148 32 -196 23z"/>
<path d="M12800 4822 c-25 -8 -67 -24 -94 -36 -26 -11 -61 -19 -77 -18 -16 2
-55 -9 -91 -26 -80 -38 -117 -46 -153 -32 -26 10 -32 8 -57 -19 -16 -17 -33
-31 -39 -31 -23 0 -49 -41 -49 -77 0 -60 9 -77 50 -101 42 -24 89 -28 122 -11
28 15 57 5 102 -36 22 -19 46 -35 53 -35 15 0 58 43 74 72 12 22 -18 43 -81
57 -25 6 -64 17 -87 25 -42 15 -44 14 -70 -10 -40 -37 -58 -28 -58 30 l0 49
130 4 c129 4 130 4 162 34 25 26 36 30 61 25 23 -6 36 -1 61 20 25 21 38 25
63 20 27 -5 37 -1 70 31 47 46 49 68 7 77 -39 8 -44 7 -99 -12z"/>
<path d="M13758 4823 c-32 -8 -19 -32 36 -68 42 -28 62 -35 93 -34 38 3 103
-29 103 -50 0 -5 14 -14 30 -21 17 -7 43 -22 57 -34 15 -11 50 -32 78 -46 37
-19 55 -36 70 -66 11 -23 36 -61 56 -85 20 -24 40 -58 43 -75 4 -17 25 -55 47
-84 31 -41 38 -59 33 -74 -5 -12 -9 -124 -10 -250 l-2 -228 -31 -32 c-17 -18
-29 -35 -26 -38 13 -13 -17 -85 -50 -123 -20 -22 -55 -62 -77 -90 -22 -27 -56
-60 -74 -73 -19 -12 -34 -27 -34 -33 0 -5 -17 -17 -37 -27 -38 -17 -59 -34
-116 -88 -17 -17 -52 -36 -77 -43 -25 -7 -51 -18 -59 -25 -8 -6 -40 -11 -72
-11 -45 0 -62 -5 -81 -22 -13 -12 -40 -29 -61 -38 -20 -8 -37 -17 -37 -20 0
-2 13 -11 30 -20 29 -15 44 -15 158 5 29 5 65 7 80 4 26 -5 79 17 122 51 8 7
28 17 44 22 23 7 32 18 41 49 11 39 12 39 56 36 53 -4 92 5 84 18 -4 6 -10 8
-15 5 -9 -5 -23 25 -15 33 2 3 27 7 55 10 38 3 50 9 50 21 0 9 18 38 40 65 22
26 40 52 40 57 0 4 27 46 59 93 60 86 72 116 76 198 2 30 11 58 26 80 23 32
24 38 24 233 0 175 -2 204 -18 228 -9 14 -24 52 -32 83 -8 32 -24 67 -34 78
-11 12 -29 44 -41 71 -25 60 -100 140 -155 167 -89 43 -115 59 -125 77 -5 11
-25 24 -42 30 -19 6 -40 24 -50 40 -11 20 -29 33 -55 40 -37 11 -171 13 -205
4z"/>
<path d="M18080 4716 c0 -15 10 -32 26 -43 24 -18 27 -26 30 -104 l3 -85 -32
-10 c-25 -7 -32 -15 -32 -34 0 -19 6 -26 23 -28 17 -3 36 9 70 44 45 45 47 49
46 104 -1 68 -19 117 -45 125 -10 4 -27 17 -38 31 -25 31 -51 32 -51 0z"/>
<path d="M11185 4670 c-11 -5 -37 -9 -57 -9 -33 -1 -38 -4 -38 -25 0 -38 23
-44 106 -31 38 7 44 5 59 -18 12 -19 29 -28 61 -33 35 -5 45 -11 50 -29 3 -12
16 -27 30 -34 15 -7 24 -19 24 -34 0 -13 11 -34 25 -47 29 -27 59 -111 52
-146 -2 -15 3 -32 15 -46 11 -13 18 -33 16 -48 -3 -22 -8 -25 -45 -28 -38 -3
-45 1 -101 55 -33 32 -68 74 -78 93 -13 23 -28 36 -44 38 -14 2 -29 8 -35 12
-5 4 -28 8 -50 8 -29 0 -44 6 -58 23 -10 12 -16 28 -13 34 6 17 -59 143 -85
164 l-20 16 20 24 c27 31 26 39 -5 47 -81 20 -223 -28 -314 -107 -67 -58 -67
-57 -79 -158 -7 -53 -17 -84 -38 -114 l-28 -42 0 -191 c0 -230 2 -234 96 -234
74 0 117 -27 307 -195 101 -89 166 -142 197 -158 17 -8 46 -32 66 -53 20 -22
53 -52 73 -67 27 -21 36 -35 36 -57 0 -35 -31 -70 -62 -70 -15 0 -19 -3 -12
-10 7 -7 47 -10 100 -8 86 3 89 4 102 31 8 15 25 32 39 38 14 5 39 20 54 32
16 12 42 33 59 46 22 16 29 29 25 42 -6 18 5 32 53 71 18 15 20 22 12 43 -16
42 -12 60 23 116 31 51 32 56 35 173 3 164 -4 217 -35 263 -21 31 -26 48 -24
96 2 55 0 59 -33 89 -30 26 -36 39 -36 70 0 34 -8 47 -60 100 -33 34 -60 66
-60 71 0 5 -13 25 -30 44 -16 18 -30 38 -30 42 0 5 -11 12 -25 15 -13 3 -30
16 -36 29 -17 32 -29 37 -74 30 -36 -5 -43 -2 -58 21 -18 27 -37 31 -72 16z"/>
<path d="M15650 4668 c0 -20 13 -34 45 -51 35 -18 107 -84 123 -112 8 -15 7
-26 -6 -47 -15 -26 -15 -29 6 -57 l22 -30 -26 -20 c-16 -13 -41 -21 -64 -21
-20 0 -85 -7 -143 -15 -81 -11 -119 -12 -154 -5 -26 6 -87 10 -135 9 -140 -4
-149 29 -39 141 29 30 57 65 62 77 5 13 20 25 36 29 15 4 43 18 61 31 18 14
51 27 73 30 43 6 52 27 17 37 -47 12 -105 6 -131 -14 -15 -12 -40 -20 -64 -20
-33 0 -47 -8 -110 -68 -56 -52 -73 -74 -73 -95 0 -15 -3 -27 -7 -27 -5 0 -19
-9 -32 -19 -18 -14 -25 -30 -27 -59 -1 -23 -11 -53 -24 -70 -56 -75 -13 -82
536 -79 487 3 481 2 468 61 -3 17 -15 46 -25 64 -10 18 -19 51 -19 72 0 29 -8
48 -30 73 -16 19 -30 39 -30 45 0 20 -80 81 -122 92 -23 7 -55 23 -71 36 -32
27 -117 35 -117 12z"/>
<path d="M19698 4609 c3 -23 12 -34 36 -44 29 -13 31 -15 31 -74 0 -43 5 -65
17 -77 35 -36 71 12 61 83 -7 52 -87 143 -125 143 -22 0 -24 -4 -20 -31z"/>
<path d="M13260 4500 c-25 -16 -56 -40 -70 -54 -16 -16 -44 -29 -72 -34 -44
-9 -81 -38 -110 -86 -5 -9 -13 -811 -9 -897 1 -9 12 -21 27 -27 14 -7 30 -26
36 -42 5 -17 23 -37 39 -46 16 -8 29 -19 29 -25 0 -5 16 -17 35 -24 19 -8 39
-24 45 -36 7 -11 27 -27 45 -35 53 -22 99 -18 262 23 15 3 32 -3 53 -21 18
-14 41 -26 52 -26 24 0 78 31 126 72 18 15 40 28 48 28 9 0 29 14 44 30 15 17
37 30 48 30 13 0 24 10 30 29 6 16 20 34 31 41 16 8 20 17 15 36 -5 19 1 31
32 59 36 33 37 36 35 95 -3 54 -3 125 -1 243 4 226 1 295 -15 308 -49 41 -55
50 -55 89 0 29 -6 45 -21 58 -42 34 -50 45 -56 73 -4 22 -16 33 -54 51 -27 12
-49 25 -49 29 0 19 -35 39 -68 39 -23 0 -44 8 -60 23 -22 21 -33 22 -186 24
l-162 1 -44 -28z m338 -49 c16 -5 40 -20 55 -35 15 -15 32 -23 41 -20 19 7 56
-13 56 -31 0 -8 14 -21 30 -30 17 -9 30 -20 30 -25 0 -5 14 -25 30 -43 23 -27
30 -44 30 -76 0 -32 5 -44 25 -57 20 -13 25 -25 25 -57 0 -22 5 -56 12 -74 10
-27 10 -38 0 -54 -11 -17 -10 -33 4 -89 12 -52 15 -91 10 -152 -13 -167 -15
-177 -47 -194 -21 -11 -29 -22 -29 -42 0 -18 -11 -39 -30 -57 -16 -16 -30 -35
-30 -42 0 -7 -13 -19 -30 -28 -16 -8 -34 -24 -39 -34 -7 -12 -27 -21 -55 -25
-24 -4 -50 -14 -56 -21 -16 -20 -44 -19 -61 1 -11 14 -26 15 -86 10 -40 -3
-96 -1 -125 5 -63 13 -64 13 -106 4 -29 -7 -33 -5 -43 23 -6 16 -19 32 -30 35
-11 3 -24 18 -30 35 -5 16 -21 35 -34 42 -30 16 -37 37 -26 75 4 17 6 89 4
160 -2 72 -5 242 -6 379 -2 240 -1 249 18 260 11 6 41 32 68 59 38 38 54 47
82 47 22 0 38 6 41 15 4 8 16 15 28 15 11 1 35 7 51 14 34 15 178 20 223 7z"/>
<path d="M17535 4503 c-8 -12 -29 -30 -45 -38 -32 -16 -41 -51 -16 -61 8 -3
45 11 82 30 82 44 145 49 189 14 21 -16 43 -22 79 -23 72 0 69 24 -7 51 -32
11 -62 26 -66 33 -6 9 -39 14 -105 15 -90 2 -97 1 -111 -21z"/>
<path d="M17390 4321 c-11 -23 -25 -41 -30 -41 -5 0 -16 -13 -25 -30 -13 -24
-15 -88 -15 -410 0 -244 4 -388 10 -401 15 -28 49 -24 60 7 6 15 10 184 10
409 0 367 1 385 19 394 20 11 37 52 37 86 -1 13 -9 21 -23 23 -17 3 -27 -6
-43 -37z"/>
<path d="M19337 4160 c-17 -20 -36 -30 -54 -31 l-28 -1 29 -8 c35 -11 46 -25
46 -63 0 -33 34 -49 94 -45 50 4 62 31 21 50 -22 10 -25 17 -21 37 22 94 23
91 -22 91 -32 0 -45 -6 -65 -30z"/>
<path d="M18700 3992 c-8 -3 -26 -13 -39 -23 -13 -11 -32 -19 -42 -19 -10 0
-26 -11 -35 -25 -15 -24 -22 -27 -75 -39 -16 -4 -36 -22 -54 -51 -19 -30 -36
-45 -50 -45 -29 0 -45 -19 -45 -52 0 -37 14 -35 50 6 18 20 43 36 63 40 22 4
51 24 83 56 34 34 57 50 75 50 17 0 33 9 43 25 12 19 25 25 51 25 35 0 69 24
62 44 -4 11 -60 17 -87 8z"/>
<path d="M18962 3953 c-7 -3 -17 -16 -22 -29 -6 -16 -17 -24 -33 -24 -13 0
-32 -9 -41 -19 -10 -10 -33 -22 -52 -26 -20 -3 -38 -14 -41 -23 -3 -9 -19 -29
-35 -45 -19 -17 -27 -33 -24 -45 6 -20 -3 -36 -25 -44 -24 -9 -59 -82 -48 -99
5 -8 9 -31 9 -52 0 -30 5 -39 23 -46 38 -15 53 -39 38 -63 -14 -22 -7 -34 23
-40 11 -2 23 -17 30 -38 12 -37 31 -46 72 -36 46 12 29 51 -39 85 -43 21 -57
67 -46 145 6 49 5 66 -11 96 l-18 36 34 52 c21 30 43 52 53 52 10 0 35 14 56
30 21 17 42 30 47 30 5 0 21 8 35 18 15 9 43 22 62 27 38 11 53 41 29 56 -14
9 -55 11 -76 2z"/>
<path d="M9710 3670 c-11 -11 -20 -29 -20 -40 0 -11 -7 -23 -15 -27 -22 -8
-77 -91 -70 -103 3 -6 21 -10 40 -10 31 0 35 4 46 40 23 75 66 78 71 7 3 -42
3 -42 43 -42 33 0 41 4 43 20 2 12 -8 31 -23 45 -14 13 -25 29 -25 35 0 7 -9
20 -20 30 -11 10 -20 26 -20 35 0 27 -28 32 -50 10z"/>
<path d="M18290 3613 c-20 -42 -24 -180 -7 -228 11 -32 19 -40 38 -40 22 0 24
5 30 65 6 62 3 160 -7 208 -6 31 -38 28 -54 -5z"/>
<path d="M10205 3549 l-17 -32 36 -33 c20 -18 36 -39 36 -47 0 -7 14 -23 30
-35 17 -13 30 -29 30 -37 0 -20 70 -84 100 -92 14 -3 40 -19 58 -34 18 -16 50
-38 71 -49 22 -11 60 -33 84 -50 45 -30 81 -38 91 -21 13 21 -9 42 -60 57 -45
13 -57 21 -68 47 -18 45 -41 60 -86 59 -33 -2 -41 2 -52 25 -7 15 -23 30 -36
33 -12 3 -28 16 -35 30 -10 19 -21 25 -44 25 -26 0 -30 3 -22 17 5 9 9 29 9
43 0 20 -7 29 -29 38 -22 8 -32 20 -38 46 -11 47 -37 52 -58 10z"/>
<path d="M19391 3489 c-13 -5 -37 -20 -53 -34 -16 -14 -38 -25 -49 -25 -11 0
-42 -21 -69 -46 l-48 -45 -139 -3 c-77 -1 -144 -6 -150 -9 -18 -11 -2 -48 24
-58 22 -8 179 -4 231 7 12 2 28 16 34 29 9 19 19 25 43 25 18 0 43 8 56 19 13
10 60 34 104 53 73 32 80 38 80 64 0 32 -22 40 -64 23z"/>
<path d="M9515 3460 c-10 -11 -24 -20 -31 -20 -7 0 -25 -11 -40 -25 -15 -14
-38 -28 -51 -32 -14 -3 -28 -15 -33 -28 -8 -21 -16 -22 -143 -28 -144 -7 -167
-12 -167 -32 0 -17 34 -23 135 -26 121 -3 143 -1 162 20 10 11 34 22 54 26 24
4 44 17 58 36 12 16 26 29 31 29 17 0 87 74 83 88 -7 18 -38 14 -58 -8z"/>
<path d="M8146 3451 c-9 -9 -21 -33 -28 -51 -10 -30 -9 -35 8 -44 10 -6 33
-26 50 -44 41 -44 88 -54 162 -36 31 7 84 13 116 14 78 0 68 7 -19 14 -39 3
-101 16 -140 28 -69 23 -70 23 -88 75 -21 58 -38 70 -61 44z"/>
<path d="M19842 3458 c-7 -7 -12 -38 -12 -69 0 -53 2 -59 40 -93 42 -38 50
-40 124 -30 42 6 46 9 46 35 0 32 -14 39 -79 37 -48 0 -56 7 -65 62 -7 44 -36
76 -54 58z"/>
<path d="M10771 3377 c-8 -11 -2 -23 27 -54 34 -37 136 -93 168 -93 8 0 24
-11 36 -25 24 -27 47 -32 66 -13 32 32 -9 68 -76 68 -16 0 -37 14 -61 39 -44
48 -105 91 -130 91 -10 0 -24 -6 -30 -13z"/>
<path d="M19349 3305 c-12 -13 -35 -27 -51 -30 -27 -6 -98 -64 -98 -80 0 -3
10 0 23 6 12 7 24 12 27 12 3 0 30 10 60 24 65 29 88 27 109 -8 23 -38 70 -99
105 -136 36 -37 74 -43 100 -14 25 28 3 61 -41 61 -26 0 -36 6 -48 30 -8 16
-15 42 -15 57 0 20 -12 40 -38 66 -47 46 -100 51 -133 12z"/>
<path d="M18360 3268 c0 -33 11 -45 47 -55 19 -5 41 -21 55 -43 13 -19 37 -41
53 -50 16 -8 38 -23 48 -32 23 -20 64 -35 92 -33 11 1 32 2 47 3 21 2 25 6 21
23 -9 34 -47 51 -120 52 -66 2 -67 2 -75 34 -6 24 -16 34 -42 43 -22 7 -42 24
-55 46 -25 42 -71 49 -71 12z"/>
<path d="M16007 3161 c-10 -28 -12 -28 -109 -34 -101 -5 -128 -15 -128 -48 0
-40 111 -33 183 12 18 10 46 19 64 19 34 0 63 29 63 62 0 13 -8 18 -31 18 -25
0 -33 -6 -42 -29z"/>
</g>
</svg>
